<?xml version="1.0" standalone="no"?>
<!DOCTYPE svg PUBLIC "-//W3C//DTD SVG 20010904//EN"
 "http://www.w3.org/TR/2001/REC-SVG-20010904/DTD/svg10.dtd">
<svg version="1.0" xmlns="http://www.w3.org/2000/svg"
 width="634.000000pt" height="948.000000pt" viewBox="0 0 634.000000 948.000000"
 preserveAspectRatio="xMidYMid meet">
<metadata>
Created by potrace 1.14, written by Peter Selinger 2001-2017
</metadata>
<g transform="translate(0.000000,948.000000) scale(0.100000,-0.100000)"
fill="#000000" stroke="none">
<path d="M394 9421 c-77 -28 -107 -46 -158 -96 -121 -117 -149 -314 -65 -461
36 -63 109 -133 172 -163 68 -33 148 -40 450 -41 l267 0 0 -85 0 -85 -35 0
c-19 0 -35 -2 -35 -5 0 -3 16 -37 35 -75 19 -38 35 -72 35 -75 0 -2 -174 -6
-387 -7 l-388 -3 -143 -283 c-79 -156 -142 -293 -140 -303 2 -12 62 99 148
270 l145 291 927 0 c511 0 928 -2 928 -5 0 -3 -69 -142 -152 -310 l-153 -305
-922 0 c-609 0 -923 -3 -923 -10 0 -7 183 -10 530 -10 l530 0 0 -125 0 -125
-35 0 -35 0 35 -70 c19 -38 35 -74 35 -80 0 -7 -156 -10 -470 -10 l-470 0 0
-330 0 -330 470 0 470 0 0 -195 0 -195 -35 0 -35 0 40 -80 40 -80 -393 0 -392
0 -144 -288 c-79 -159 -142 -294 -140 -300 2 -7 69 118 149 278 l145 290 932
0 933 0 -155 -310 -155 -310 -925 0 c-610 0 -925 -3 -925 -10 0 -7 183 -10
530 -10 l530 0 0 -100 0 -100 -35 0 c-19 0 -35 -2 -35 -5 0 -3 16 -37 35 -75
19 -38 35 -74 35 -80 0 -7 -156 -10 -470 -10 l-470 0 0 -425 0 -425 953 2 952
3 0 420 0 420 -472 3 c-260 1 -473 5 -473 7 0 3 18 41 40 85 l40 80 -40 0 -40
0 0 100 0 100 390 0 390 0 160 320 c88 176 160 324 160 330 0 7 -188 10 -550
10 l-550 0 40 79 40 80 -38 3 -37 3 -3 68 c-2 37 0 67 3 67 3 0 41 -18 85 -40
l80 -40 0 40 0 40 935 0 935 0 0 -1525 0 -1525 -557 0 -558 0 -455 181 c-250
100 -459 185 -463 189 -5 4 10 44 32 89 l41 81 -40 0 -40 0 0 155 c0 97 -4
155 -10 155 -6 0 -10 -58 -10 -155 l0 -155 -35 0 c-19 0 -35 -2 -35 -5 0 -3
18 -41 40 -84 l39 -79 -282 -113 c-155 -63 -367 -148 -472 -190 -104 -41 -189
-80 -189 -85 1 -5 210 -92 465 -195 l464 -185 3 -197 2 -197 -35 0 -35 0 40
-80 40 -80 -393 0 -392 0 -144 -288 c-79 -158 -142 -296 -140 -306 2 -11 64
104 148 278 l144 296 934 0 933 0 -155 -310 -155 -310 -925 0 c-610 0 -925 -3
-925 -10 0 -7 183 -10 530 -10 l530 0 0 -115 0 -115 -35 0 c-19 0 -35 -2 -35
-5 0 -3 16 -37 35 -75 19 -38 35 -74 35 -80 0 -7 -113 -10 -335 -10 -317 0
-337 -1 -392 -21 -72 -28 -144 -94 -180 -168 -24 -48 -28 -68 -28 -141 0 -105
24 -161 102 -237 43 -42 67 -57 121 -73 66 -20 86 -21 747 -18 l680 3 55 26
c74 35 144 108 171 178 28 76 24 205 -10 270 -34 66 -111 136 -176 160 -52 20
-76 21 -395 21 -187 0 -340 2 -340 5 0 3 18 41 40 85 l40 80 -40 0 -40 0 0
115 0 115 393 0 394 0 156 321 c87 176 157 325 157 330 0 5 -220 9 -550 9
l-550 0 40 79 40 80 -38 3 -37 3 0 193 0 193 463 185 463 184 552 0 c304 0
558 4 565 8 10 7 12 323 10 1548 l-3 1539 -942 3 -943 2 0 35 c0 19 -2 35 -5
35 -3 0 -37 -16 -75 -35 -38 -19 -74 -35 -80 -35 -7 0 -10 38 -8 113 l3 112
470 5 470 5 0 325 0 325 -473 3 -472 2 40 80 40 79 -38 3 -37 3 -3 123 -3 122
391 0 390 0 164 329 c91 181 162 331 159 335 -4 3 -253 6 -555 6 l-548 0 40
80 40 80 -40 0 -40 0 0 85 0 85 268 0 c147 1 297 5 334 9 134 18 245 96 304
216 27 55 29 69 29 170 0 101 -2 114 -29 165 -35 68 -76 113 -141 155 -102 66
-92 65 -779 64 -571 0 -625 -2 -672 -18z m1396 -37 c75 -36 136 -94 176 -167
24 -45 29 -66 32 -150 4 -97 4 -100 -32 -172 -44 -88 -112 -154 -194 -187 -57
-23 -59 -23 -642 -26 -364 -2 -614 1 -662 7 -137 18 -234 88 -292 211 -28 58
-31 75 -31 155 0 79 4 97 28 148 53 107 156 188 265 207 26 4 326 7 667 7
l620 -2 65 -31z m215 -2464 l0 -305 -932 -3 -933 -2 0 310 0 310 933 -2 932
-3 0 -305z m3 -2332 l-3 -403 -932 -3 -933 -2 0 405 0 405 935 0 935 0 -2
-402z m-488 -1127 c244 -98 445 -183 447 -187 1 -5 -199 -90 -446 -188 l-449
-179 -444 178 c-243 98 -447 181 -451 185 -5 4 180 83 410 175 230 92 432 173
448 180 17 7 32 14 35 14 3 0 205 -80 450 -178z m309 -2230 c24 -13 66 -45 92
-72 64 -65 83 -124 77 -235 -4 -77 -7 -88 -42 -138 -49 -71 -124 -123 -198
-136 -36 -7 -289 -10 -720 -8 l-663 3 -56 28 c-153 75 -218 249 -150 403 35
79 114 150 192 173 21 6 299 9 729 8 l695 -2 44 -24z"/>
<path d="M1140 9206 c0 -38 -10 -56 -34 -57 -16 -1 -17 -2 -3 -6 19 -5 22 -29
6 -70 -9 -24 -7 -30 12 -46 21 -17 21 -18 3 -40 -11 -12 -25 -27 -33 -33 -12
-9 -11 -12 2 -17 10 -4 25 5 42 25 20 24 28 28 40 18 22 -19 39 -2 20 20 -13
14 -15 27 -8 60 l8 41 78 5 c50 3 77 1 77 -6 0 -5 7 -10 15 -10 8 0 15 4 15 8
0 15 -58 77 -66 69 -4 -4 -2 -13 4 -19 21 -21 13 -28 -28 -28 -22 0 -40 3 -40
8 0 4 11 24 25 44 29 43 30 48 11 48 -7 0 -19 -13 -26 -29 -6 -16 -22 -39 -36
-52 -23 -22 -24 -22 -24 -2 0 14 -6 19 -22 19 -24 -1 -25 3 -14 40 4 15 2 24
-9 28 -11 4 -15 -1 -15 -18z m34 -74 c10 -16 -16 -92 -31 -92 -13 0 -14 8 -9
42 4 22 9 45 12 50 7 10 21 10 28 0z"/>
<path d="M800 9190 c0 -5 14 -10 30 -10 29 0 30 -2 30 -45 l0 -45 -45 0 c-25
0 -45 -4 -45 -10 0 -5 20 -10 45 -10 26 0 45 -5 45 -11 0 -22 -33 -80 -53 -94
-15 -11 -18 -18 -11 -25 16 -16 71 51 80 95 6 33 8 35 46 35 l41 0 -7 -70 c-6
-60 -5 -70 8 -70 13 0 16 13 16 70 l0 70 35 0 c19 0 35 5 35 10 0 6 -16 10
-35 10 -35 0 -35 0 -35 45 0 41 2 45 25 45 14 0 25 5 25 10 0 6 -45 10 -115
10 -70 0 -115 -4 -115 -10z m160 -55 l0 -45 -40 0 -40 0 0 45 0 45 40 0 40 0
0 -45z"/>
<path d="M1220 9005 c0 -61 11 -84 24 -50 3 10 19 15 46 15 29 0 40 -4 40 -15
0 -8 5 -15 10 -15 6 0 10 28 10 65 l0 65 -65 0 -65 0 0 -65z m110 9 l0 -35
-42 3 c-40 3 -43 5 -46 36 -3 32 -3 32 42 32 46 0 46 0 46 -36z"/>
<path d="M529 7021 c12 -8 10 -24 -12 -103 -30 -106 -31 -108 -17 -108 5 0 17
17 25 37 13 30 18 35 25 23 5 -8 10 -23 10 -33 0 -10 7 -20 15 -23 16 -7 45
12 45 28 0 6 -6 5 -14 -1 -12 -10 -17 -6 -25 26 -12 41 -10 45 34 67 l30 16
-40 0 c-24 0 -35 -3 -27 -8 9 -7 8 -13 -8 -27 -11 -10 -22 -16 -25 -14 -2 3 4
33 14 67 l19 62 -31 0 c-23 0 -28 -3 -18 -9z"/>
<path d="M887 7012 c-58 -64 -36 -202 33 -202 46 0 65 32 65 110 0 53 -4 73
-19 89 -23 26 -57 27 -79 3z m68 -92 c0 -54 -4 -73 -18 -87 -18 -17 -19 -17
-33 1 -21 29 -19 149 2 171 16 15 18 15 33 0 12 -11 16 -35 16 -85z"/>
<path d="M1477 7018 c-64 -49 -39 -208 33 -208 36 0 59 31 67 89 13 92 -45
160 -100 119z m54 -15 c21 -25 19 -148 -3 -170 -16 -15 -20 -16 -33 -2 -22 22
-29 111 -11 154 17 39 27 43 47 18z"/>
<path d="M703 6943 c26 -2 67 -2 90 0 23 2 2 3 -48 3 -49 0 -68 -1 -42 -3z"/>
<path d="M1127 6943 c-13 -12 -7 -44 14 -72 12 -16 18 -34 15 -40 -12 -18 -37
-12 -43 9 -7 28 -23 25 -23 -5 0 -22 4 -25 40 -25 51 0 68 26 45 69 -8 16 -19
33 -25 36 -17 10 -11 25 10 25 10 0 23 -7 28 -16 8 -14 10 -13 15 5 4 19 1 21
-32 21 -21 0 -41 -3 -44 -7z"/>
<path d="M1283 6943 c26 -2 68 -2 95 0 26 2 4 3 -48 3 -52 0 -74 -1 -47 -3z"/>
<path d="M703 6893 c26 -2 67 -2 90 0 23 2 2 3 -48 3 -49 0 -68 -1 -42 -3z"/>
<path d="M1288 6893 c23 -2 61 -2 85 0 23 2 4 4 -43 4 -47 0 -66 -2 -42 -4z"/>
<path d="M1032 6840 c-14 -40 3 -49 23 -11 19 37 19 41 1 41 -8 0 -19 -13 -24
-30z"/>
<path d="M1370 4795 c0 -33 -2 -35 -35 -35 -19 0 -35 -4 -35 -10 0 -5 16 -10
35 -10 33 0 35 -2 35 -34 0 -19 5 -38 10 -41 6 -4 10 10 10 34 l0 41 41 0 c24
0 38 4 34 10 -3 6 -22 10 -41 10 -32 0 -34 2 -34 35 0 19 -4 35 -10 35 -5 0
-10 -16 -10 -35z"/>
<path d="M537 4773 c-13 -12 -7 -40 13 -66 11 -14 20 -32 20 -41 0 -24 -41
-20 -47 4 -6 24 -23 16 -23 -11 0 -15 7 -19 38 -19 66 0 80 37 36 89 -23 28
-24 32 -8 38 10 4 22 0 29 -11 12 -15 13 -15 19 0 3 8 6 18 6 20 0 7 -76 5
-83 -3z"/>
<path d="M703 4773 c26 -2 67 -2 90 0 23 2 2 3 -48 3 -49 0 -68 -1 -42 -3z"/>
<path d="M877 4773 c-13 -12 -7 -40 13 -66 26 -33 26 -57 -1 -57 -13 0 -23 8
-26 21 -4 16 -8 17 -14 7 -18 -27 -9 -38 29 -38 66 0 80 37 36 89 -23 28 -24
32 -8 38 10 4 22 0 29 -11 12 -15 13 -15 19 0 3 8 6 18 6 20 0 7 -76 5 -83 -3z"/>
<path d="M1160 4760 c11 -11 20 -28 20 -38 0 -26 -29 -63 -47 -60 -9 2 -18 -3
-20 -9 -9 -24 35 -13 55 14 l19 26 7 -26 c7 -29 24 -35 44 -15 17 17 15 33 -2
18 -12 -9 -16 -6 -21 24 -8 41 -2 54 33 68 23 9 24 12 9 15 -10 3 -27 -3 -37
-12 -16 -14 -18 -14 -23 0 -4 8 -18 15 -32 15 l-25 0 20 -20z"/>
<path d="M1528 4763 c-39 -45 -51 -109 -22 -120 8 -3 26 -1 40 5 15 7 24 8 24
2 0 -14 34 -12 48 2 18 18 15 33 -4 17 -13 -11 -14 -9 -8 17 4 16 11 39 15 52
14 38 11 42 -34 42 -29 0 -49 -6 -59 -17z m64 -23 c-4 -32 -34 -74 -56 -78
-24 -5 -21 49 5 82 26 33 55 31 51 -4z"/>
<path d="M1007 4764 c-14 -14 -7 -35 11 -32 9 2 17 10 17 17 0 16 -18 25 -28
15z"/>
<path d="M703 4723 c26 -2 67 -2 90 0 23 2 2 3 -48 3 -49 0 -68 -1 -42 -3z"/>
<path d="M679 4471 c12 -8 10 -24 -12 -103 -30 -106 -31 -108 -17 -108 5 0 17
17 25 37 13 30 18 35 25 23 5 -8 10 -23 10 -33 0 -10 7 -20 15 -23 16 -7 45
12 45 28 0 6 -6 5 -14 -1 -12 -10 -17 -6 -25 26 -12 41 -10 45 34 67 l30 16
-40 0 c-24 0 -35 -3 -27 -8 9 -7 8 -13 -8 -27 -11 -10 -22 -16 -25 -14 -2 3 4
33 14 67 l19 62 -31 0 c-23 0 -28 -3 -18 -9z"/>
<path d="M1038 4471 c11 -7 9 -26 -14 -105 -15 -52 -25 -98 -21 -102 10 -10
27 6 27 25 0 10 6 24 14 30 12 10 15 6 21 -19 4 -17 13 -34 21 -37 15 -6 44
13 44 29 0 6 -7 5 -15 -2 -17 -14 -24 -3 -28 46 -2 24 4 32 33 46 l35 18 -38
0 c-21 0 -36 -4 -33 -9 3 -4 -3 -16 -14 -26 -24 -22 -24 -15 -5 49 20 65 19
66 -12 66 -20 0 -24 -3 -15 -9z"/>
<path d="M1411 4466 c-19 -11 -21 -14 -7 -19 25 -10 23 -162 -1 -176 -14 -8
-8 -10 27 -11 32 0 41 3 30 10 -11 7 -16 35 -20 109 l-5 99 -24 -12z"/>
<path d="M1240 4415 c0 -33 -2 -35 -34 -35 -19 0 -38 -4 -41 -10 -4 -6 10 -10
34 -10 l41 0 0 -41 c0 -24 4 -38 10 -34 6 3 10 22 10 41 0 32 2 34 35 34 19 0
35 5 35 10 0 6 -16 10 -35 10 -33 0 -35 2 -35 35 0 19 -4 35 -10 35 -5 0 -10
-16 -10 -35z"/>
<path d="M853 4393 c26 -2 67 -2 90 0 23 2 2 3 -48 3 -49 0 -68 -1 -42 -3z"/>
<path d="M853 4343 c26 -2 67 -2 90 0 23 2 2 3 -48 3 -49 0 -68 -1 -42 -3z"/>
<path d="M1435 3422 c-28 -6 -55 -32 -55 -54 0 -25 23 -23 35 5 12 26 53 30
68 6 8 -13 3 -26 -21 -60 -18 -24 -32 -49 -32 -56 0 -24 25 -13 45 19 11 17
26 41 34 53 30 46 -15 99 -74 87z"/>
<path d="M659 3381 c12 -8 10 -24 -12 -103 -30 -106 -31 -108 -17 -108 5 0 17
17 25 37 13 30 18 35 25 23 5 -8 10 -23 10 -33 0 -10 7 -20 15 -23 16 -7 45
12 45 28 0 6 -6 5 -14 -1 -12 -10 -17 -6 -25 26 -12 41 -10 45 34 67 l30 16
-40 0 c-24 0 -35 -3 -27 -8 9 -7 8 -13 -8 -27 -11 -10 -22 -16 -25 -14 -2 3 4
33 14 67 l19 62 -31 0 c-23 0 -28 -3 -18 -9z"/>
<path d="M862 3348 c3 -7 32 -24 66 -38 34 -14 62 -28 62 -31 0 -3 -29 -18
-65 -34 -36 -15 -65 -31 -65 -36 0 -5 17 -2 38 7 20 9 58 25 85 36 26 12 47
23 47 27 0 3 -39 23 -86 43 -47 21 -84 32 -82 26z"/>
<path d="M1159 3301 c11 -7 10 -18 -3 -64 -19 -65 -19 -67 -6 -67 5 0 18 19
28 43 18 41 57 85 67 76 2 -3 -2 -27 -10 -54 -8 -26 -15 -52 -15 -57 0 -12 34
-10 48 4 17 17 15 33 -3 18 -18 -15 -18 -17 -1 47 8 28 11 54 8 57 -11 12 -36
5 -58 -15 l-23 -21 6 21 c4 18 1 21 -23 21 -20 0 -25 -3 -15 -9z"/>
<path d="M1430 3210 c0 -11 7 -20 15 -20 8 0 15 9 15 20 0 11 -7 20 -15 20 -8
0 -15 -9 -15 -20z"/>
<path d="M814 1098 c-3 -13 -15 -35 -26 -50 -22 -31 -16 -52 12 -43 29 9 31
-9 4 -38 -31 -33 -31 -51 -1 -43 12 3 32 6 45 6 12 0 22 5 22 11 0 7 -10 9
-25 7 -33 -7 -32 0 10 56 31 39 41 46 70 46 28 0 35 -4 35 -20 0 -17 -7 -20
-40 -20 -22 0 -40 -4 -40 -10 0 -6 35 -10 85 -10 50 0 85 4 85 10 0 6 -16 10
-35 10 -28 0 -35 4 -35 20 0 17 7 20 40 20 22 0 40 5 40 10 0 6 -18 10 -40 10
-36 0 -40 3 -40 25 0 16 -6 25 -16 25 -10 0 -14 -7 -12 -22 3 -20 -3 -24 -41
-29 -30 -4 -49 -13 -59 -27 -16 -24 -42 -30 -42 -9 0 6 9 25 19 41 19 29 19
46 1 46 -5 0 -12 -10 -16 -22z"/>
<path d="M1220 1099 c0 -20 -4 -21 -60 -14 -41 5 -60 4 -60 -4 0 -7 23 -11 60
-11 47 0 60 -3 60 -15 0 -11 -12 -15 -45 -15 l-45 0 0 -43 c0 -43 1 -43 30
-39 17 2 30 0 30 -5 0 -13 -37 -46 -79 -72 -28 -16 -32 -21 -18 -27 19 -7 64
22 101 67 l26 31 0 -61 c0 -34 4 -61 10 -61 6 0 10 25 10 55 0 30 3 55 6 55 3
0 29 -20 56 -45 28 -25 56 -44 61 -42 22 7 17 25 -11 36 -17 7 -43 26 -58 43
l-29 30 35 -4 c35 -3 35 -2 38 39 l3 42 -48 3 c-69 4 -59 22 15 26 34 2 62 7
62 13 0 6 -26 9 -62 7 -55 -3 -63 -1 -62 15 1 9 -4 17 -12 17 -8 0 -14 -9 -14
-21z m0 -104 c0 -22 -4 -25 -35 -25 -31 0 -35 3 -35 25 0 22 4 25 35 25 31 0
35 -3 35 -25z m98 3 c-2 -19 -9 -23 -38 -23 -29 0 -36 4 -38 23 -3 20 1 22 38
22 37 0 41 -2 38 -22z"/>
<path d="M900 916 c0 -24 -3 -51 -6 -60 -4 -11 -1 -16 10 -16 9 0 16 5 16 10
0 6 23 10 50 10 28 0 50 -4 50 -10 0 -5 5 -10 10 -10 6 0 10 27 10 60 l0 60
-70 0 -70 0 0 -44z m120 -6 c0 -29 -1 -30 -50 -30 -49 0 -50 1 -50 30 0 29 1
30 50 30 49 0 50 -1 50 -30z"/>
<path d="M808 891 c-27 -4 -35 -10 -29 -19 6 -10 17 -10 54 0 26 7 47 16 47
20 0 9 -15 8 -72 -1z"/>
<path d="M616 8134 c-4 -15 -14 -24 -26 -24 -11 0 -20 -4 -20 -10 0 -5 7 -10
15 -10 19 0 19 -23 0 -59 -16 -32 -12 -41 22 -41 37 0 31 -39 -7 -46 -16 -4
-30 -11 -30 -16 0 -5 13 -7 30 -3 29 6 30 5 30 -29 0 -20 5 -36 10 -36 6 0 10
18 10 40 0 29 4 40 15 40 8 0 15 5 15 10 0 6 -7 10 -15 10 -8 0 -15 7 -15 15
0 8 7 15 15 15 20 0 19 16 -1 24 -10 4 -14 14 -11 26 3 13 0 20 -9 20 -8 0
-14 -10 -14 -25 0 -14 -4 -25 -10 -25 -13 0 -13 21 0 54 7 20 16 26 40 26 16
0 30 5 30 10 0 6 -14 10 -30 10 -27 0 -29 2 -21 19 8 14 7 20 -3 24 -9 4 -16
-3 -20 -19z"/>
<path d="M741 8117 c-11 -18 -32 -39 -45 -47 -14 -7 -24 -16 -21 -19 6 -11
145 -13 145 -2 0 5 -20 11 -45 13 -45 3 -45 3 -30 26 l16 22 45 -36 c29 -24
48 -34 54 -28 7 7 -6 22 -35 42 -25 17 -45 38 -45 47 0 25 -17 17 -39 -18z"/>
<path d="M1008 8129 c31 -32 -6 -137 -73 -203 -21 -21 -30 -38 -24 -42 17 -10
67 45 98 108 l29 57 26 -52 c31 -63 91 -126 107 -110 7 7 2 15 -16 27 -34 23
-73 83 -100 158 -15 43 -29 64 -41 66 -15 3 -17 1 -6 -9z"/>
<path d="M828 7963 c4 -56 2 -68 -13 -79 -21 -16 -14 -30 10 -21 11 5 15 22
15 71 0 35 3 71 6 80 4 10 1 16 -9 16 -12 0 -14 -12 -9 -67z"/>
<path d="M1222 8023 c41 -11 27 -110 -15 -107 -9 1 -17 -4 -17 -12 0 -23 27
-16 49 12 l20 26 7 -26 c7 -31 24 -33 49 -6 10 11 13 20 7 20 -7 0 -12 -4 -12
-10 0 -26 -19 -6 -24 26 -8 40 5 64 35 64 11 0 19 5 19 10 0 16 -36 12 -51 -6
-11 -14 -13 -14 -21 0 -5 9 -21 15 -36 15 -17 -1 -20 -3 -10 -6z"/>
<path d="M1450 8020 c13 -8 13 -16 -2 -69 -12 -47 -13 -61 -3 -61 15 0 47 75
49 113 1 24 -3 27 -29 27 -22 0 -26 -3 -15 -10z"/>
<path d="M1509 8008 c-11 -21 -11 -22 5 -9 25 21 30 7 15 -48 -7 -28 -9 -54
-5 -58 9 -9 39 9 42 25 1 7 0 8 -3 2 -2 -5 -9 -10 -13 -10 -5 0 -3 19 5 41 22
61 20 79 -10 79 -15 0 -29 -8 -36 -22z"/>
<path d="M690 7940 c0 -47 4 -80 10 -80 6 0 10 14 10 30 0 23 4 30 20 30 22 0
29 -35 8 -43 -7 -2 -10 -8 -6 -12 4 -4 14 -5 23 -2 12 5 15 23 15 82 l0 75
-40 0 -40 0 0 -80z m60 50 c0 -5 -9 -10 -20 -10 -11 0 -20 5 -20 10 0 6 9 10
20 10 11 0 20 -4 20 -10z m0 -40 c0 -5 -9 -10 -20 -10 -11 0 -20 5 -20 10 0 6
9 10 20 10 11 0 20 -4 20 -10z"/>
<path d="M790 7950 c0 -27 3 -50 8 -50 4 0 7 22 7 50 0 27 -3 50 -7 50 -5 0
-8 -22 -8 -50z"/>
<path d="M1373 7890 c1 -22 5 -40 9 -40 11 0 21 47 14 65 -11 29 -25 14 -23
-25z"/>
<path d="M736 5863 c-3 -4 -6 -15 -6 -25 0 -11 -7 -18 -20 -18 -11 0 -20 -4
-20 -10 0 -5 7 -10 15 -10 19 0 19 -17 0 -54 -18 -34 -12 -46 21 -46 17 0 24
-5 24 -20 0 -14 -9 -21 -35 -26 -19 -3 -32 -10 -29 -16 3 -5 19 -6 35 -3 28 6
29 5 29 -29 0 -20 5 -36 10 -36 6 0 10 18 10 40 0 29 4 40 15 40 8 0 15 5 15
10 0 6 -7 10 -15 10 -8 0 -15 7 -15 15 0 8 7 15 15 15 8 0 15 5 15 10 0 6 -7
10 -15 10 -9 0 -15 9 -15 25 0 14 -4 25 -10 25 -5 0 -10 -11 -10 -25 0 -16 -6
-25 -16 -25 -11 0 -14 5 -10 16 3 9 9 27 12 40 5 19 13 24 40 24 19 0 34 5 34
10 0 6 -14 10 -30 10 -27 0 -29 2 -21 19 8 14 7 20 -3 24 -8 3 -17 3 -20 0z"/>
<path d="M865 5841 c-3 -11 -21 -33 -40 -50 -19 -16 -31 -32 -27 -34 19 -9
132 -7 132 2 0 6 -18 11 -40 11 -44 0 -48 5 -24 31 16 18 18 17 57 -16 43 -37
57 -43 57 -22 -1 6 -15 21 -33 32 -18 11 -36 30 -42 43 -12 27 -32 29 -40 3z"/>
<path d="M1123 5832 c10 -10 17 -25 17 -34 0 -30 -62 -137 -96 -168 -30 -26
-32 -31 -18 -37 23 -8 67 43 102 116 l25 55 22 -50 c29 -63 87 -130 104 -120
9 6 2 20 -27 50 -44 45 -61 75 -86 154 -14 40 -22 52 -38 52 -20 0 -20 -1 -5
-18z"/>
<path d="M940 5664 c0 -65 -2 -75 -16 -70 -10 4 -14 1 -12 -6 3 -7 13 -13 24
-13 17 0 20 10 24 83 4 62 2 82 -7 82 -9 0 -13 -22 -13 -76z"/>
<path d="M1358 5723 c-39 -45 -51 -109 -22 -120 8 -3 26 -1 40 5 15 7 24 8 24
2 0 -14 34 -12 48 2 18 18 15 33 -4 17 -13 -11 -14 -9 -8 17 4 16 11 39 15 52
14 38 11 42 -34 42 -29 0 -49 -6 -59 -17z m64 -23 c-4 -32 -34 -74 -56 -78
-24 -5 -21 49 5 82 26 33 55 31 51 -4z"/>
<path d="M810 5650 c0 -47 4 -80 10 -80 6 0 10 14 10 30 0 23 4 30 20 30 22 0
29 -35 8 -43 -7 -2 -10 -8 -6 -12 4 -4 14 -5 23 -2 12 5 15 23 15 82 l0 75
-40 0 -40 0 0 -80z m60 50 c0 -5 -9 -10 -20 -10 -11 0 -20 5 -20 10 0 6 9 10
20 10 11 0 20 -4 20 -10z m0 -40 c0 -5 -9 -10 -20 -10 -11 0 -20 5 -20 10 0 6
9 10 20 10 11 0 20 -4 20 -10z"/>
<path d="M900 5666 c0 -62 17 -67 22 -6 2 35 -1 50 -9 50 -9 0 -13 -16 -13
-44z"/>
<path d="M2360 3670 c0 -6 29 -10 67 -10 l66 0 -24 -26 c-13 -15 -45 -37 -71
-49 -32 -15 -44 -25 -39 -34 8 -13 54 6 109 46 l23 16 -2 -41 -3 -42 -43 0
-43 0 0 -60 c0 -57 11 -78 24 -45 8 22 144 22 152 0 12 -29 24 -3 24 51 l0 54
-45 0 -46 0 3 63 3 62 58 3 c31 2 57 7 57 12 0 6 -56 10 -135 10 -83 0 -135
-4 -135 -10z m218 -187 c-3 -28 -4 -28 -80 -31 l-78 -3 0 31 0 30 81 0 80 0
-3 -27z"/>
<path d="M2526 3621 c-8 -12 95 -74 106 -63 9 9 -11 26 -69 55 -17 10 -34 13
-37 8z"/>
<path d="M700 2760 l0 -50 90 0 90 0 0 50 0 50 -90 0 -90 0 0 -50z m160 25 c0
-12 -14 -15 -70 -15 -56 0 -70 3 -70 15 0 12 14 15 70 15 56 0 70 -3 70 -15z
m0 -45 c0 -6 -30 -10 -70 -10 -40 0 -70 4 -70 10 0 6 30 10 70 10 40 0 70 -4
70 -10z"/>
<path d="M650 2680 c0 -6 26 -9 63 -7 l62 2 3 -47 c2 -27 -1 -48 -6 -48 -16 0
-45 39 -39 54 3 8 0 17 -8 20 -8 3 -17 -4 -21 -17 -3 -12 -17 -36 -30 -54 -29
-39 -14 -54 15 -16 l22 26 38 -21 c30 -17 55 -22 109 -22 39 0 74 5 77 10 4 6
-20 10 -64 10 -69 0 -71 1 -71 25 0 23 3 25 50 25 28 0 50 5 50 10 0 6 -23 10
-51 10 -43 0 -50 3 -47 18 3 14 14 17 66 15 36 -2 62 1 62 7 0 6 -54 10 -140
10 -86 0 -140 -4 -140 -10z"/>
<path d="M750 2144 c0 -19 -5 -24 -25 -24 -14 0 -25 -4 -25 -10 0 -5 9 -10 20
-10 23 0 25 -15 5 -50 -22 -38 -18 -50 15 -50 23 0 30 -4 30 -20 0 -14 -9 -21
-35 -26 -19 -3 -32 -10 -29 -16 3 -5 19 -6 36 -3 29 7 29 7 23 -29 -6 -29 -4
-36 9 -36 12 0 16 10 16 40 0 29 4 40 15 40 8 0 15 5 15 10 0 6 -7 10 -15 10
-20 0 -19 20 3 36 16 13 16 13 0 14 -12 0 -18 8 -18 25 0 14 -4 25 -10 25 -5
0 -10 -11 -10 -25 0 -16 -6 -25 -16 -25 -10 0 -14 6 -10 18 17 61 17 62 47 62
16 0 29 5 29 10 0 6 -11 10 -25 10 -27 0 -32 9 -14 27 7 7 4 12 -10 16 -17 4
-21 0 -21 -19z"/>
<path d="M878 2130 c-9 -16 -31 -38 -48 -49 -37 -22 -28 -26 58 -30 39 -1 62
2 62 8 0 6 -20 11 -47 11 l-46 0 23 25 23 24 40 -34 c30 -26 44 -32 51 -24 8
8 7 13 -2 16 -24 9 -72 55 -72 69 0 24 -24 15 -42 -16z"/>
<path d="M1160 2105 l0 -55 -41 0 -41 0 4 40 c2 28 0 40 -9 40 -9 0 -13 -16
-13 -50 l0 -50 50 0 50 0 0 -61 0 -60 -47 3 -48 3 1 38 c1 25 -3 37 -12 37
-10 0 -14 -15 -14 -51 l0 -50 110 7 c96 6 110 5 116 -10 12 -32 22 -15 26 44
2 43 -1 60 -9 60 -8 0 -13 -15 -13 -40 l0 -40 -45 0 -45 0 0 60 0 60 50 0 50
0 0 50 c0 28 -4 50 -10 50 -5 0 -10 -18 -10 -40 l0 -40 -41 0 -41 0 4 55 c2
39 -1 55 -9 55 -9 0 -13 -18 -13 -55z"/>
<path d="M960 1964 c0 -65 -2 -75 -16 -70 -10 4 -14 1 -12 -6 3 -7 13 -13 24
-13 17 0 20 10 24 83 4 62 2 82 -7 82 -9 0 -13 -22 -13 -76z"/>
<path d="M1367 2033 c-13 -12 -7 -44 14 -72 12 -16 18 -34 15 -40 -12 -18 -37
-12 -43 9 -7 28 -23 25 -23 -5 0 -22 4 -25 40 -25 51 0 68 26 45 69 -8 16 -19
33 -25 36 -17 10 -11 25 10 25 10 0 23 -7 28 -16 8 -14 10 -13 15 5 4 19 1 21
-32 21 -21 0 -41 -3 -44 -7z"/>
<path d="M830 1950 c0 -47 4 -80 10 -80 6 0 10 14 10 30 0 23 4 30 20 30 23 0
27 -28 5 -36 -18 -7 -10 -24 11 -24 11 0 14 17 14 80 l0 80 -35 0 -35 0 0 -80z
m55 50 c-3 -5 -13 -10 -21 -10 -8 0 -14 5 -14 10 0 6 9 10 21 10 11 0 17 -4
14 -10z m5 -40 c0 -5 -9 -10 -20 -10 -11 0 -20 5 -20 10 0 6 9 10 20 10 11 0
20 -4 20 -10z"/>
<path d="M920 1960 c0 -65 17 -65 22 0 2 35 -1 50 -9 50 -9 0 -13 -17 -13 -50z"/>
</g>
</svg>
