<?xml version="1.0" standalone="no"?>
<!DOCTYPE svg PUBLIC "-//W3C//DTD SVG 20010904//EN"
 "http://www.w3.org/TR/2001/REC-SVG-20010904/DTD/svg10.dtd">
<svg version="1.0" xmlns="http://www.w3.org/2000/svg"
 width="1450.000000pt" height="1096.000000pt" viewBox="0 0 1450.000000 1096.000000"
 preserveAspectRatio="xMidYMid meet">
<metadata>
Created by potrace 1.14, written by Peter Selinger 2001-2017
</metadata>
<g transform="translate(0.000000,1096.000000) scale(0.100000,-0.100000)"
fill="#000000" stroke="none">
<path d="M7166 10361 c-30 -43 -88 -93 -155 -133 l-45 -27 27 -12 c23 -10 30
-10 45 4 28 26 32 21 32 -38 l0 -54 80 -3 81 -3 -43 -28 c-36 -23 -70 -36
-167 -63 -11 -4 -11 -7 0 -20 17 -20 51 -13 136 27 57 27 67 29 80 16 13 -13
11 -17 -15 -36 -46 -33 -150 -79 -194 -86 -40 -7 -40 -7 -21 -27 20 -19 20
-19 86 7 37 15 91 44 121 65 39 28 57 35 65 27 20 -20 12 -36 -31 -68 -60 -43
-92 -59 -180 -89 -72 -24 -77 -28 -64 -45 13 -18 16 -17 82 9 83 33 143 67
188 106 18 16 36 27 40 23 3 -3 6 -26 6 -50 0 -57 -25 -83 -80 -83 -38 0 -40
-1 -28 -21 19 -31 94 -21 126 17 21 24 23 35 19 83 -3 31 -8 66 -12 77 -11 36
26 41 50 8 37 -51 100 -117 139 -146 39 -28 39 -28 54 -7 8 11 12 21 11 23 -2
1 -24 14 -49 28 -47 27 -140 119 -140 138 0 12 82 50 108 50 13 0 11 6 -10 27
l-26 26 -33 -27 c-17 -15 -53 -38 -79 -51 l-48 -24 -36 43 c-34 42 -34 44 -17
60 14 13 41 16 144 16 l127 0 0 70 0 69 -75 3 -75 3 25 37 c14 20 25 39 25 42
0 3 -56 2 -125 -1 -132 -6 -150 0 -99 34 25 16 25 17 8 30 -25 19 -28 17 -58
-26z m197 -91 l-17 -30 -125 0 -125 0 34 30 c34 28 38 29 143 30 l108 0 -18
-30z m-83 -81 c0 -49 -16 -59 -95 -59 l-75 0 0 40 0 40 85 0 c79 0 85 -1 85
-21z m218 -21 l3 -38 -99 0 -100 0 10 40 11 41 86 -3 86 -3 3 -37z"/>
<path d="M13326 10361 c-30 -43 -88 -93 -155 -133 l-45 -27 27 -12 c23 -10 30
-10 45 4 28 26 32 21 32 -38 l0 -54 80 -3 81 -3 -43 -28 c-36 -23 -70 -36
-167 -63 -11 -4 -11 -7 0 -20 17 -20 51 -13 136 27 57 27 67 29 80 16 13 -13
11 -17 -15 -36 -46 -33 -150 -79 -194 -86 -40 -7 -40 -7 -21 -27 20 -19 20
-19 86 7 37 15 91 44 121 65 39 28 57 35 65 27 20 -20 12 -36 -31 -68 -60 -43
-92 -59 -180 -89 -72 -24 -77 -28 -64 -45 13 -18 16 -17 82 9 83 33 143 67
188 106 18 16 36 27 40 23 3 -3 6 -26 6 -50 0 -57 -25 -83 -80 -83 -38 0 -40
-1 -28 -21 19 -31 94 -21 126 17 21 24 23 35 19 83 -3 31 -8 66 -12 77 -11 36
26 41 50 8 37 -51 100 -117 139 -146 39 -28 39 -28 54 -7 8 11 12 21 11 23 -2
1 -24 14 -49 28 -47 27 -140 119 -140 138 0 12 82 50 108 50 13 0 11 6 -10 27
l-26 26 -33 -27 c-17 -15 -53 -38 -79 -51 l-48 -24 -36 43 c-34 42 -34 44 -17
60 14 13 41 16 144 16 l127 0 0 70 0 69 -75 3 -75 3 25 37 c14 20 25 39 25 42
0 3 -56 2 -125 -1 -132 -6 -150 0 -99 34 25 16 25 17 8 30 -25 19 -28 17 -58
-26z m197 -91 l-17 -30 -125 0 -125 0 34 30 c34 28 38 29 143 30 l108 0 -18
-30z m-83 -81 c0 -49 -16 -59 -95 -59 l-75 0 0 40 0 40 85 0 c79 0 85 -1 85
-21z m218 -21 l3 -38 -99 0 -100 0 10 40 11 41 86 -3 86 -3 3 -37z"/>
<path d="M3658 10314 l4 -77 -124 7 -123 7 0 -170 c0 -171 0 -171 23 -171 18
0 22 6 22 30 l0 30 101 0 100 0 -2 -122 -1 -123 26 -3 26 -3 0 125 0 126 95 0
c95 0 95 0 95 -25 0 -19 5 -25 23 -25 22 0 22 1 22 166 l0 165 -119 -7 -118
-7 4 77 3 76 -30 0 -30 0 3 -76z m2 -204 l0 -100 -100 0 -100 0 0 100 0 100
100 0 100 0 0 -100z m240 0 l0 -100 -95 0 -95 0 0 100 0 100 95 0 95 0 0 -100z"/>
<path d="M11265 10318 l0 -72 -47 3 c-43 2 -48 0 -48 -18 0 -19 6 -21 50 -21
l51 0 -3 -72 -3 -73 -67 3 c-63 4 -68 2 -68 -17 0 -19 6 -21 65 -21 63 0 65
-1 65 -25 0 -30 -21 -75 -58 -124 -20 -27 -22 -35 -11 -42 20 -12 23 -12 46
14 30 32 53 82 61 130 l7 42 64 3 64 3 -6 -100 -5 -101 24 0 c24 0 24 1 24
100 l0 100 65 0 c60 0 65 2 65 21 0 21 -3 21 -65 15 l-65 -7 0 76 0 75 55 0
c49 0 55 2 55 21 0 20 -4 21 -56 17 l-56 -5 4 68 c3 66 3 68 -23 71 l-27 4 2
-70 1 -71 -59 -3 -59 -3 5 70 c4 55 2 71 -9 75 -34 13 -38 6 -38 -66z m163
-180 l-3 -73 -57 -3 -58 -3 0 76 0 75 60 0 61 0 -3 -72z"/>
<path d="M4205 10343 c-4 -21 -11 -53 -17 -71 -9 -32 -12 -33 -47 -27 l-36 6
0 -261 0 -260 23 0 c19 0 22 5 22 35 l0 35 80 0 80 0 0 -30 c0 -23 4 -30 20
-30 19 0 20 7 20 255 l0 256 -66 -7 -66 -7 7 24 c4 13 15 42 26 63 10 22 17
41 16 42 -1 1 -14 5 -29 9 -25 6 -27 4 -33 -32z m103 -220 l3 -83 -81 0 -80 0
0 85 0 86 78 -3 77 -3 3 -82z m0 -205 l-3 -83 -75 0 -75 0 -3 83 -3 82 81 0
81 0 -3 -82z"/>
<path d="M4464 10352 c-16 -72 -36 -128 -64 -183 -17 -33 -28 -65 -25 -70 15
-23 38 -4 67 56 l32 65 80 0 79 0 -6 -197 c-7 -185 -9 -199 -28 -215 -13 -11
-38 -18 -65 -18 -43 0 -44 0 -32 -26 12 -25 15 -26 68 -21 43 5 60 12 78 32
21 25 22 34 22 203 0 97 3 201 7 230 l6 53 -97 -7 c-108 -8 -109 -8 -77 63
l19 42 -29 10 c-27 9 -29 8 -35 -17z"/>
<path d="M5096 10355 c-12 -47 -134 -158 -221 -201 -44 -21 -82 -40 -84 -42
-3 -1 3 -10 12 -19 14 -14 21 -15 43 -4 53 24 140 87 207 150 l68 64 44 -47
c43 -44 140 -113 213 -150 32 -17 35 -17 53 0 20 18 18 19 -68 59 -105 49
-232 157 -212 181 9 11 5 16 -16 24 -34 13 -32 14 -39 -15z"/>
<path d="M6750 10299 l0 -81 -112 3 c-105 4 -113 2 -113 -15 0 -17 9 -18 113
-17 l112 2 -2 -198 -3 -198 -43 -3 c-34 -3 -42 -7 -38 -18 3 -9 6 -20 6 -25 0
-13 61 -11 90 4 l25 13 5 209 5 210 48 -1 c42 0 47 2 47 22 0 20 -5 22 -47 21
l-48 -2 0 60 c1 33 4 68 9 78 7 14 3 17 -23 17 l-31 0 0 -81z"/>
<path d="M7925 10370 c-3 -5 15 -34 39 -65 54 -66 47 -61 68 -49 15 8 12 16
-29 67 -45 55 -65 68 -78 47z"/>
<path d="M12910 10299 l0 -81 -112 3 c-105 4 -113 2 -113 -15 0 -17 9 -18 113
-17 l112 2 -2 -198 -3 -198 -43 -3 c-34 -3 -42 -7 -38 -18 3 -9 6 -20 6 -25 0
-13 61 -11 90 4 l25 13 5 209 5 210 48 -1 c42 0 47 2 47 22 0 20 -5 22 -47 21
l-48 -2 0 60 c1 33 4 68 9 78 7 14 3 17 -23 17 l-31 0 0 -81z"/>
<path d="M11001 10341 c-11 -7 -4 -21 35 -68 26 -32 50 -60 51 -62 2 -3 11 3
20 12 15 15 13 20 -31 71 -50 59 -53 61 -75 47z"/>
<path d="M11830 10334 c-25 -7 -66 -13 -92 -13 -49 -1 -54 -5 -39 -30 6 -9 22
-12 50 -9 l41 4 0 -53 0 -53 -55 0 c-49 0 -55 -2 -55 -21 0 -19 4 -20 56 -13
56 7 56 6 49 -17 -15 -52 -54 -126 -89 -173 -34 -44 -36 -50 -22 -64 21 -21
27 -14 76 84 l40 79 0 -163 c0 -155 1 -162 20 -162 18 0 20 8 22 163 l3 162
31 -42 c30 -41 32 -42 48 -24 16 18 15 21 -33 61 -40 34 -51 49 -51 73 l0 29
50 -7 c46 -6 50 -5 50 14 0 19 -6 21 -50 21 l-50 0 0 60 0 59 49 7 c46 6 49 8
38 25 -13 21 -23 22 -87 3z"/>
<path d="M5613 10178 c0 -190 -11 -259 -54 -346 -17 -35 -29 -65 -27 -67 1 -2
12 -5 23 -7 39 -6 95 149 95 264 l0 48 213 0 212 0 -3 -122 c-2 -68 -8 -131
-13 -140 -6 -12 -21 -18 -43 -18 -29 0 -33 -3 -29 -20 4 -16 14 -20 43 -20 71
0 78 19 83 229 l3 134 -121 -6 c-66 -3 -168 -3 -227 0 l-108 6 0 34 0 35 209
-4 209 -3 -1 82 -2 83 -231 0 -230 0 -1 -162z m417 77 l0 -45 -185 0 -185 0 0
45 0 45 185 0 185 0 0 -45z"/>
<path d="M11970 10238 l0 -103 153 0 152 0 0 103 0 102 -152 0 -153 0 0 -102z
m260 -3 l0 -65 -110 0 -110 0 0 65 0 65 110 0 110 0 0 -65z"/>
<path d="M910 10056 l0 -256 30 0 30 0 0 208 0 207 136 -207 c133 -203 137
-208 170 -208 l34 0 0 255 0 255 -30 0 -30 0 -2 -205 -3 -204 -131 202 c-128
197 -132 202 -167 205 l-37 3 0 -255z"/>
<path d="M2100 10219 l0 -90 -31 22 c-74 52 -192 24 -232 -55 -61 -118 -10
-265 101 -295 50 -14 112 -1 143 30 19 19 19 19 19 -6 0 -21 5 -25 30 -25 l30
0 0 255 0 255 -30 0 -30 0 0 -91z m-71 -100 c81 -28 96 -186 25 -251 -34 -30
-101 -28 -137 6 -70 64 -49 219 33 249 24 9 45 8 79 -4z"/>
<path d="M2850 10275 c0 -32 2 -35 30 -35 28 0 30 3 30 35 0 32 -2 35 -30 35
-28 0 -30 -3 -30 -35z"/>
<path d="M6260 10285 c0 -20 5 -21 100 -17 92 4 100 3 100 -14 0 -24 -25 -130
-39 -168 l-11 -28 -51 66 c-44 56 -54 64 -70 55 -18 -9 -14 -16 40 -87 l59
-77 -26 -48 c-14 -27 -50 -74 -80 -105 -50 -52 -53 -57 -36 -69 10 -7 21 -13
25 -13 10 0 86 97 117 149 29 50 29 50 84 -46 26 -47 31 -51 49 -40 10 6 19
15 19 19 0 3 -23 40 -51 82 l-51 76 20 58 c18 49 52 196 52 219 0 4 -56 8
-125 8 -119 0 -125 -1 -125 -20z"/>
<path d="M12420 10285 c0 -20 5 -21 100 -17 92 4 100 3 100 -14 0 -24 -25
-130 -39 -168 l-11 -28 -51 66 c-44 56 -54 64 -70 55 -18 -9 -14 -16 40 -87
l59 -77 -26 -48 c-14 -27 -50 -74 -80 -105 -50 -52 -53 -57 -36 -69 10 -7 21
-13 25 -13 10 0 86 97 117 149 29 50 29 50 84 -46 26 -47 31 -51 49 -40 10 6
19 15 19 19 0 3 -23 40 -51 82 l-51 76 20 58 c18 49 52 196 52 219 0 4 -56 8
-125 8 -119 0 -125 -1 -125 -20z"/>
<path d="M7953 10223 c-215 -3 -233 -5 -233 -21 0 -17 14 -18 215 -14 119 3
215 1 215 -4 -2 -30 -176 -186 -320 -287 -52 -37 -105 -75 -118 -85 l-23 -18
20 -18 c20 -18 21 -18 61 18 22 20 48 36 57 36 9 0 45 -14 81 -31 69 -34 152
-48 292 -48 84 -1 94 3 103 40 l7 26 -68 -10 c-37 -5 -112 -7 -167 -5 -87 4
-108 8 -159 34 l-58 31 68 49 c38 26 115 94 172 149 56 55 111 104 122 109 12
5 20 19 20 33 0 19 -5 23 -27 21 -16 -2 -133 -4 -260 -5z"/>
<path d="M1505 10166 c-68 -31 -105 -92 -105 -173 0 -124 63 -195 175 -197
110 -1 178 71 178 189 0 48 -6 74 -24 107 -41 74 -146 109 -224 74z m150 -76
c28 -28 30 -35 30 -104 0 -83 -14 -108 -72 -132 -26 -11 -39 -12 -69 -1 -48
16 -76 54 -81 114 -13 133 106 209 192 123z"/>
<path d="M2345 10166 c-37 -17 -80 -62 -94 -99 -14 -37 -14 -115 0 -158 18
-54 65 -97 118 -108 84 -18 161 13 187 74 19 45 19 45 -16 45 -18 0 -30 -5
-30 -13 0 -29 -47 -59 -94 -59 -66 0 -116 44 -116 102 0 19 8 20 140 20 159 0
152 -5 125 86 -30 101 -129 150 -220 110z m138 -76 c15 -17 27 -39 27 -50 0
-19 -7 -20 -105 -20 -67 0 -105 4 -105 10 0 6 7 24 15 40 34 66 117 76 168 20z"/>
<path d="M3061 10166 c-102 -37 -93 -157 15 -185 22 -5 58 -15 81 -21 47 -12
73 -33 73 -59 0 -70 -163 -71 -185 -1 -4 14 -15 20 -36 20 -33 0 -35 -7 -15
-55 20 -47 65 -68 148 -68 100 0 147 35 148 110 0 51 -33 83 -106 102 -128 34
-145 45 -126 85 21 46 119 46 148 0 11 -16 26 -24 44 -24 24 0 27 3 23 23 -18
71 -119 107 -212 73z"/>
<path d="M8530 10169 c-13 -6 -33 -17 -42 -26 -17 -15 -18 -15 -18 5 0 18 -6
22 -30 22 l-30 0 0 -255 0 -255 30 0 30 0 0 91 0 90 23 -16 c99 -70 230 -16
257 107 35 158 -87 290 -220 237z m104 -58 c42 -28 55 -58 56 -121 0 -75 -24
-121 -72 -137 -85 -28 -151 30 -151 131 0 114 86 180 167 127z"/>
<path d="M8955 10164 c-16 -8 -40 -27 -52 -42 l-22 -27 -1 38 c0 33 -3 37 -25
37 l-25 0 0 -185 0 -185 29 0 29 0 4 124 c3 116 5 126 27 150 14 15 42 31 63
38 32 9 38 15 38 40 0 33 -19 36 -65 12z"/>
<path d="M9145 10166 c-68 -31 -105 -92 -105 -173 0 -124 63 -195 175 -197
110 -1 178 71 178 189 0 48 -6 74 -24 107 -41 74 -146 109 -224 74z m150 -76
c28 -28 30 -35 30 -104 0 -83 -14 -108 -72 -132 -26 -11 -39 -12 -69 -1 -48
16 -76 54 -81 114 -13 133 106 209 192 123z"/>
<path d="M9555 10167 c-96 -44 -135 -205 -72 -298 32 -47 79 -72 140 -72 64
-1 104 18 134 62 33 48 30 71 -7 71 -22 0 -30 -5 -30 -18 0 -44 -74 -77 -130
-58 -46 15 -71 61 -71 130 0 68 22 112 66 133 47 22 103 6 128 -37 12 -20 26
-30 43 -30 41 0 25 63 -24 99 -39 27 -135 37 -177 18z"/>
<path d="M9945 10166 c-37 -17 -80 -62 -94 -99 -14 -37 -14 -115 0 -158 18
-54 65 -97 118 -108 84 -18 161 13 187 74 19 45 19 45 -16 45 -18 0 -30 -5
-30 -13 0 -29 -47 -59 -94 -59 -66 0 -116 44 -116 102 0 19 8 20 140 20 159 0
152 -5 125 86 -30 101 -129 150 -220 110z m138 -76 c15 -17 27 -39 27 -50 0
-19 -7 -20 -105 -20 -67 0 -105 4 -105 10 0 6 7 24 15 40 34 66 117 76 168 20z"/>
<path d="M10301 10166 c-102 -37 -93 -157 15 -185 22 -5 58 -15 81 -21 47 -12
73 -33 73 -59 0 -70 -163 -71 -185 -1 -4 14 -15 20 -36 20 -33 0 -35 -7 -15
-55 20 -47 65 -68 148 -68 100 0 147 35 148 110 0 51 -33 83 -106 102 -128 34
-145 45 -126 85 21 46 119 46 148 0 11 -16 26 -24 44 -24 24 0 27 3 23 23 -18
71 -119 107 -212 73z"/>
<path d="M10661 10166 c-102 -37 -93 -157 15 -185 22 -5 58 -15 81 -21 47 -12
73 -33 73 -59 0 -70 -163 -71 -185 -1 -4 14 -15 20 -36 20 -33 0 -35 -7 -15
-55 20 -47 65 -68 148 -68 100 0 147 35 148 110 0 51 -33 83 -106 102 -128 34
-145 45 -126 85 21 46 119 46 148 0 11 -16 26 -24 44 -24 24 0 27 3 23 23 -18
71 -119 107 -212 73z"/>
<path d="M2850 9952 c0 -226 -3 -242 -42 -242 -13 0 -18 -8 -18 -25 0 -20 5
-25 25 -25 44 0 74 21 85 59 5 20 10 129 10 244 l0 207 -30 0 -30 0 0 -218z"/>
<path d="M10960 10120 c0 -17 7 -20 45 -20 l45 0 0 -118 0 -118 -45 -32 c-49
-34 -53 -43 -30 -62 13 -11 21 -8 48 18 18 18 38 32 45 32 6 0 38 -14 70 -31
l59 -31 198 -1 197 -2 9 24 9 23 -129 -7 c-192 -11 -281 0 -339 39 l-47 31 1
138 2 137 -69 0 c-62 0 -69 -2 -69 -20z"/>
<path d="M4930 10110 c0 -18 5 -19 85 -13 l85 6 0 -62 0 -61 -90 0 c-84 0 -90
-1 -90 -20 0 -20 5 -21 88 -18 l87 3 3 -67 3 -68 -136 0 c-128 0 -135 -1 -135
-20 0 -20 7 -20 285 -20 278 0 285 0 285 20 0 19 -7 20 -130 20 l-130 0 0 71
0 72 90 -7 c87 -7 90 -7 90 13 0 20 -6 21 -90 21 l-90 0 0 61 0 62 90 -6 c84
-5 90 -4 90 14 0 18 -9 19 -195 19 -187 0 -195 -1 -195 -20z"/>
<path d="M6576 10111 c-4 -5 7 -32 24 -59 17 -27 35 -64 41 -81 12 -34 16 -36
39 -21 13 8 9 21 -25 87 -38 73 -65 98 -79 74z"/>
<path d="M12736 10111 c-4 -5 7 -32 24 -59 17 -27 35 -64 41 -81 12 -34 16
-36 39 -21 13 8 9 21 -25 87 -38 73 -65 98 -79 74z"/>
<path d="M4460 10090 c-13 -8 -9 -21 25 -90 37 -74 42 -80 59 -67 17 12 16 17
-20 90 -21 42 -41 77 -44 77 -3 0 -12 -5 -20 -10z"/>
<path d="M11940 10049 c0 -19 4 -20 80 -13 l80 7 0 -53 0 -52 -70 4 c-66 3
-70 2 -70 -18 0 -20 3 -21 70 -16 l70 5 0 -57 0 -58 -90 8 c-87 6 -90 6 -90
-15 0 -21 3 -21 205 -21 200 0 205 0 205 21 0 19 -5 20 -92 17 l-93 -3 -3 54
-3 53 70 -4 c66 -3 71 -2 71 17 0 18 -5 20 -70 17 l-70 -4 0 53 0 52 85 -7
c81 -6 85 -5 85 14 0 19 -6 20 -185 20 -180 0 -185 -1 -185 -21z"/>
<path d="M5730 9914 c0 -97 1 -104 20 -104 15 0 20 7 20 25 0 25 1 25 85 25
78 0 85 -2 85 -20 0 -13 7 -20 20 -20 19 0 20 7 20 99 l0 99 -125 0 -125 1 0
-105z m210 21 l0 -45 -85 0 -85 0 0 45 0 45 85 0 85 0 0 -45z"/>
<path d="M2660 9840 l0 -40 40 0 40 0 0 40 0 40 -40 0 -40 0 0 -40z"/>
<path d="M1870 9381 c0 -5 -12 -24 -26 -41 -15 -17 -24 -34 -20 -37 4 -4 13 3
22 15 21 30 84 32 84 2 0 -16 -7 -20 -38 -20 -35 0 -37 -2 -37 -32 0 -25 -5
-33 -25 -39 -17 -5 -5 -7 38 -8 l62 -1 0 -45 c0 -25 5 -45 10 -45 6 0 10 20
10 44 l0 45 53 4 52 3 -52 2 c-52 2 -53 3 -53 31 0 27 4 30 38 34 l37 4 -37 1
c-31 2 -38 6 -38 22 0 17 7 20 45 20 25 0 45 5 45 10 0 6 -34 10 -81 10 -47 0
-78 4 -74 9 3 5 1 12 -5 16 -5 3 -10 2 -10 -4z m60 -121 c0 -27 -3 -30 -30
-30 -27 0 -30 3 -30 30 0 27 3 30 30 30 27 0 30 -3 30 -30z"/>
<path d="M913 9360 c-34 -21 -63 -66 -63 -100 0 -54 65 -120 118 -120 57 0
122 64 122 120 0 56 -65 120 -122 120 -13 0 -37 -9 -55 -20z m91 -24 c100 -42
38 -190 -65 -154 -67 23 -71 125 -5 154 38 16 31 16 70 0z"/>
<path d="M970 9290 c0 -23 -4 -30 -20 -30 -11 0 -20 -4 -20 -10 0 -5 14 -10
30 -10 28 0 30 2 30 40 0 22 -4 40 -10 40 -5 0 -10 -13 -10 -30z"/>
<path d="M4923 9365 c-17 -7 -39 -27 -47 -44 -52 -100 33 -206 138 -171 95 31
102 178 11 216 -42 17 -61 17 -102 -1z m75 -77 c-3 -45 -6 -53 -23 -53 -17 0
-20 8 -23 53 -3 50 -2 52 23 52 25 0 26 -2 23 -52z m2 -88 c0 -15 -7 -20 -25
-20 -18 0 -25 5 -25 20 0 15 7 20 25 20 18 0 25 -5 25 -20z"/>
<path d="M5310 9364 c0 -13 -10 -15 -55 -12 -30 1 -55 0 -55 -4 0 -5 25 -8 55
-8 41 0 55 -4 55 -14 0 -11 -14 -16 -47 -19 -27 -2 -1 -3 57 -4 70 0 88 2 56
6 -75 9 -72 31 5 31 75 0 72 13 -3 14 -37 1 -52 5 -50 14 1 6 -2 12 -8 12 -5
0 -10 -7 -10 -16z"/>
<path d="M2440 9281 c0 -74 -3 -92 -21 -115 -16 -20 -17 -26 -6 -26 14 0 47
56 47 79 0 7 25 11 66 11 l65 0 -3 -37 c-2 -29 -7 -38 -20 -37 -10 1 -18 -3
-18 -8 0 -5 12 -8 28 -6 l27 3 3 113 3 112 -86 0 -85 0 0 -89z m150 54 c0 -24
-2 -25 -65 -25 -63 0 -65 1 -65 25 0 24 2 25 65 25 63 0 65 -1 65 -25z m0 -70
c0 -24 -2 -25 -65 -25 -63 0 -65 1 -65 25 0 24 2 25 65 25 63 0 65 -1 65 -25z"/>
<path d="M5600 9285 c0 -58 -5 -96 -15 -115 -9 -17 -12 -30 -7 -30 10 0 30 37
34 65 2 15 12 21 41 23 36 3 37 3 37 -33 0 -28 -5 -38 -22 -45 -22 -8 -22 -9
5 -9 l27 -1 0 115 0 115 -50 0 -50 0 0 -85z m90 50 c0 -22 -4 -25 -35 -25 -31
0 -35 3 -35 25 0 22 4 25 35 25 31 0 35 -3 35 -25z m0 -65 c0 -16 -7 -20 -35
-20 -28 0 -35 4 -35 20 0 16 7 20 35 20 28 0 35 -4 35 -20z"/>
<path d="M1215 9348 c-23 -13 -35 -28 -35 -45 0 -20 18 -15 25 6 13 41 75 33
75 -9 0 -10 -22 -37 -50 -60 -28 -23 -50 -50 -50 -61 0 -17 8 -19 60 -19 33 0
60 4 60 10 0 6 -24 10 -52 10 l-53 1 53 47 c59 53 69 89 30 116 -26 19 -36 19
-63 4z"/>
<path d="M1380 9353 c-29 -10 -40 -37 -40 -98 0 -69 17 -95 62 -95 46 0 62 35
59 126 -2 49 -40 81 -81 67z m50 -33 c17 -32 8 -121 -12 -134 -13 -8 -23 -8
-35 0 -25 16 -30 115 -8 138 22 22 42 20 55 -4z"/>
<path d="M1560 9350 c0 -6 -11 -16 -25 -22 -14 -6 -25 -15 -25 -20 0 -4 11 -8
25 -8 24 0 25 -2 25 -70 0 -40 4 -70 10 -70 6 0 10 40 10 100 0 60 -4 100 -10
100 -5 0 -10 -5 -10 -10z"/>
<path d="M2113 9345 c-38 -27 -42 -134 -6 -170 22 -23 69 -19 87 7 19 27 21
127 4 151 -19 24 -60 30 -85 12z m61 -21 c18 -18 22 -95 6 -125 -12 -21 -40
-25 -58 -7 -7 7 -12 37 -12 68 0 74 27 101 64 64z"/>
<path d="M2270 9342 c-31 -25 -41 -119 -16 -157 24 -36 83 -32 105 6 29 52
-21 115 -70 88 -25 -13 -33 -7 -24 20 10 32 43 46 64 27 19 -17 31 -21 31 -8
-1 35 -57 51 -90 24z m65 -96 c21 -32 5 -66 -31 -66 -36 0 -54 43 -29 70 24
26 41 25 60 -4z"/>
<path d="M2732 9340 c-7 -11 -19 -20 -27 -20 -8 0 -15 -4 -15 -10 0 -5 11 -10
25 -10 24 0 25 -2 25 -70 0 -40 4 -70 10 -70 6 0 10 40 10 100 0 55 -3 100 -8
100 -4 0 -13 -9 -20 -20z"/>
<path d="M2860 9340 c-25 -25 -34 -61 -27 -113 6 -46 27 -67 67 -67 67 0 82
101 19 123 -9 3 -29 -1 -44 -9 -27 -14 -27 -14 -21 14 11 45 60 70 72 37 8
-19 24 -19 24 0 0 16 -30 35 -54 35 -9 0 -25 -9 -36 -20z m64 -86 c33 -32 10
-79 -36 -72 -17 2 -24 11 -26 31 -6 49 30 73 62 41z"/>
<path d="M3030 9248 c1 -96 3 -110 14 -95 10 13 28 17 75 17 34 0 61 -4 61
-10 0 -5 5 -10 10 -10 6 0 10 42 10 105 l0 105 -85 0 -85 0 0 -112z m150 62
l0 -40 -65 0 -65 0 0 40 0 40 65 0 65 0 0 -40z m0 -90 l0 -40 -65 0 -65 0 0
40 0 40 65 0 65 0 0 -40z"/>
<path d="M3992 9340 c-7 -11 -19 -20 -27 -20 -8 0 -15 -4 -15 -10 0 -5 11 -10
25 -10 24 0 25 -2 25 -70 0 -40 4 -70 10 -70 6 0 10 40 10 100 0 55 -3 100 -8
100 -4 0 -13 -9 -20 -20z"/>
<path d="M4147 9339 c-9 -10 -24 -19 -32 -19 -8 0 -15 -4 -15 -10 0 -5 11 -10
25 -10 24 0 25 -2 25 -70 0 -56 3 -70 15 -70 12 0 15 17 15 94 0 52 -4 97 -8
100 -5 3 -16 -4 -25 -15z"/>
<path d="M4280 9347 c-25 -12 -41 -57 -21 -57 6 0 11 6 11 14 0 36 61 45 74
10 9 -22 -9 -49 -47 -73 -28 -17 -57 -56 -57 -76 0 -3 29 -5 65 -5 37 0 65 4
65 10 0 6 -22 10 -50 10 -27 0 -50 4 -50 10 0 5 20 23 45 40 25 17 48 41 51
54 6 25 -10 66 -26 66 -4 0 -14 2 -22 5 -7 3 -24 -1 -38 -8z"/>
<path d="M5490 9265 c0 -57 4 -95 10 -95 6 0 10 5 10 11 0 7 12 10 30 7 l30
-5 0 89 0 88 -40 0 -40 0 0 -95z m70 50 c0 -31 -3 -35 -25 -35 -22 0 -25 4
-25 35 0 31 3 35 25 35 22 0 25 -4 25 -35z m0 -75 c0 -25 -4 -30 -25 -30 -21
0 -25 5 -25 30 0 25 4 30 25 30 21 0 25 -5 25 -30z"/>
<path d="M1665 9325 c-3 -14 -7 -37 -11 -51 -4 -23 -2 -25 13 -19 54 23 92 0
79 -48 -5 -22 -12 -27 -36 -27 -17 0 -33 7 -39 17 -11 21 -26 11 -18 -11 15
-40 100 -31 115 11 17 50 -17 99 -63 90 -23 -4 -26 -1 -23 22 3 23 9 27 48 32
l45 6 -52 1 c-49 2 -53 0 -58 -23z"/>
<path d="M4415 9304 c-7 -51 -2 -63 20 -44 20 17 62 5 70 -20 15 -48 -38 -78
-77 -43 -24 22 -32 13 -12 -15 21 -30 77 -30 98 0 35 50 1 115 -55 104 -20 -4
-29 -1 -29 7 0 25 25 46 60 50 27 3 23 4 -16 5 l-52 2 -7 -46z"/>
<path d="M3655 9328 c-38 -13 -85 -57 -85 -78 0 -24 49 -66 94 -80 30 -10 47
-10 80 0 46 13 96 55 96 80 0 22 -48 65 -89 79 -40 13 -56 13 -96 -1z m55 -13
c0 -2 -11 -15 -25 -29 -23 -23 -25 -23 -25 -6 0 10 8 24 18 29 18 11 32 14 32
6z m-65 -71 c7 -31 54 -48 89 -33 25 12 31 23 38 74 3 19 4 19 26 -3 28 -28
28 -38 -4 -67 -48 -45 -130 -45 -178 0 -32 29 -32 39 -4 67 22 22 23 22 26 3
1 -11 5 -30 7 -41z"/>
<path d="M5218 9223 c-2 -32 -8 -67 -13 -77 -6 -14 -5 -17 3 -12 6 4 15 21 20
39 l8 32 87 3 87 3 0 34 0 35 -94 0 -94 0 -4 -57z m92 22 c0 -22 -4 -25 -35
-25 -31 0 -35 3 -35 25 0 22 4 25 35 25 31 0 35 -3 35 -25z m85 0 c0 -15 -8
-21 -29 -23 -33 -4 -51 10 -42 33 9 25 71 16 71 -10z"/>
<path d="M2190 8128 c-25 -23 -37 -38 -27 -35 12 5 17 1 17 -13 0 -14 8 -20
33 -22 l32 -4 -45 -23 c-43 -21 -30 -23 29 -5 39 12 15 -15 -33 -37 -23 -11
-33 -19 -22 -19 10 0 34 10 53 21 29 18 37 19 44 8 16 -26 10 -59 -13 -69 -23
-9 -23 -9 -2 -9 29 -1 48 23 40 52 -9 39 3 37 44 -6 21 -23 42 -38 47 -34 4 5
-1 13 -11 19 -25 14 -56 46 -56 57 0 5 9 13 20 16 11 4 18 10 15 15 -3 5 -20
1 -37 -10 -30 -18 -34 -18 -50 -3 -26 24 -13 33 48 33 51 0 54 1 54 25 0 21
-5 25 -30 25 -22 0 -28 4 -24 15 5 12 -3 15 -41 15 -41 0 -46 2 -35 15 25 30
-6 13 -50 -27z m105 -8 c-3 -5 -26 -10 -51 -10 -28 0 -43 4 -39 10 3 6 26 10
51 10 28 0 43 -4 39 -10z m-31 -35 c-4 -9 -19 -15 -35 -15 -19 0 -29 5 -29 15
0 10 11 15 35 15 26 0 33 -3 29 -15z m86 0 c0 -11 -11 -15 -40 -15 -31 0 -38
3 -34 15 4 9 19 15 40 15 24 0 34 -5 34 -15z"/>
<path d="M3082 8136 c-11 -19 -37 -45 -56 -58 -20 -13 -36 -26 -36 -30 0 -18
21 -5 68 40 l51 47 51 -48 c28 -26 56 -45 61 -41 5 3 -12 20 -38 38 -27 18
-53 43 -59 55 -17 34 -20 34 -42 -3z"/>
<path d="M5000 8161 c0 -5 -19 -24 -42 -41 -30 -23 -36 -31 -20 -27 17 4 22 1
22 -13 0 -14 9 -20 33 -22 l32 -4 -45 -22 c-43 -21 -31 -24 30 -6 23 6 24 5
10 -9 -8 -9 -33 -23 -55 -31 -24 -9 -32 -15 -20 -15 11 -1 35 8 54 20 18 11
35 18 38 15 11 -10 -12 -29 -61 -52 -28 -12 -42 -23 -32 -23 11 -1 39 11 63
25 25 14 47 23 50 20 10 -10 -7 -36 -29 -46 -21 -9 -21 -9 7 -7 27 2 30 6 32
37 1 19 2 38 2 43 1 4 19 -11 42 -34 22 -22 43 -38 47 -35 3 4 -11 20 -31 37
-42 35 -45 44 -16 52 12 3 18 10 14 16 -4 7 -17 3 -36 -11 -27 -20 -31 -21
-45 -6 -25 24 -8 38 47 38 46 0 49 2 49 25 0 27 -6 29 -119 25 -38 -1 -51 2
-46 10 4 7 29 10 61 9 29 -2 57 0 61 4 3 4 -15 7 -41 7 -39 0 -47 3 -42 15 3
8 1 15 -4 15 -6 0 -10 -4 -10 -9z m40 -76 c0 -10 -11 -15 -35 -15 -24 0 -35 5
-35 15 0 10 11 15 35 15 24 0 35 -5 35 -15z m88 -2 c2 -9 -9 -13 -37 -13 -39
0 -50 8 -34 24 11 11 66 2 71 -11z"/>
<path d="M5525 8148 c-4 -13 -18 -38 -32 -55 -19 -26 -21 -33 -9 -33 9 0 17 6
18 13 1 6 5 -26 8 -73 l6 -85 2 93 c1 60 7 103 17 122 9 16 11 31 6 35 -5 3
-13 -5 -16 -17z"/>
<path d="M6413 8151 c-4 -17 -14 -21 -47 -23 l-41 -1 38 -4 c20 -2 37 -9 37
-14 0 -5 -20 -30 -44 -54 -25 -24 -41 -47 -37 -50 5 -2 14 2 21 10 22 26 29
17 33 -42 l3 -58 2 70 c2 50 8 78 22 100 18 27 26 31 87 36 l68 5 -69 2 c-58
2 -67 4 -57 16 9 10 9 16 1 21 -7 4 -14 -2 -17 -14z"/>
<path d="M6930 8157 c0 -7 -13 -34 -30 -60 -28 -44 -29 -62 -2 -35 9 9 12 -5
12 -65 0 -117 18 -92 22 31 2 59 7 115 12 125 5 11 4 17 -3 17 -6 0 -11 -6
-11 -13z"/>
<path d="M7320 8130 c0 -22 -2 -40 -4 -40 -2 0 -12 -3 -21 -7 -15 -5 -17 -1
-13 30 2 21 0 37 -4 37 -4 0 -8 -15 -8 -33 0 -25 -6 -37 -22 -45 l-23 -11 22
0 c20 -1 22 -7 25 -63 l3 -63 65 0 c57 0 65 2 69 20 3 19 3 19 -17 2 -14 -13
-32 -17 -63 -15 l-44 3 -3 59 c-2 41 1 62 10 67 24 16 28 9 30 -43 l1 -53 6
55 c5 47 9 55 28 58 20 3 21 0 16 -35 -3 -21 -11 -44 -17 -52 -8 -10 -6 -12 9
-10 17 4 20 14 23 61 l3 58 -32 -7 c-31 -6 -32 -6 -27 30 2 21 0 37 -4 37 -4
0 -8 -18 -8 -40z"/>
<path d="M7760 8153 c0 -10 -12 -38 -25 -62 -26 -45 -26 -70 0 -35 13 17 15
11 16 -66 l3 -85 6 115 c3 63 10 123 14 133 5 10 4 17 -3 17 -6 0 -11 -8 -11
-17z"/>
<path d="M7871 8153 c-1 -19 -8 -22 -48 -26 l-48 -3 48 -2 c34 -2 47 -6 47
-17 0 -10 -11 -15 -35 -15 -33 0 -35 -2 -35 -35 0 -32 2 -35 30 -35 23 0 30
-4 30 -20 0 -25 -8 -25 -33 -2 -20 17 -20 17 -3 -10 18 -27 18 -27 -16 -48
-18 -11 -26 -20 -18 -20 9 0 26 7 38 16 21 14 26 14 67 -1 24 -10 49 -15 57
-12 7 2 -6 10 -29 16 -49 13 -57 23 -49 57 5 20 13 24 41 24 33 0 35 2 35 35
0 33 -2 35 -35 35 -24 0 -35 5 -35 14 0 11 14 16 48 19 l47 3 -47 2 c-40 2
-47 5 -51 25 l-4 22 -2 -22z m-3 -95 c-2 -15 -11 -24 -25 -26 -19 -3 -23 1
-23 22 0 21 5 26 26 26 21 0 25 -4 22 -22z m62 -3 c0 -20 -5 -25 -25 -25 -20
0 -25 5 -25 25 0 20 5 25 25 25 20 0 25 -5 25 -25z"/>
<path d="M8385 8153 c6 -22 3 -23 -44 -23 -48 0 -51 -2 -51 -25 0 -14 5 -25
10 -25 6 0 10 9 10 20 0 19 7 20 94 20 90 0 95 -1 99 -22 4 -20 4 -19 6 5 1
26 -1 27 -45 27 -35 0 -50 5 -65 23 l-20 22 6 -22z"/>
<path d="M14352 8138 c-12 -19 -40 -48 -63 -62 -22 -15 -38 -30 -35 -33 8 -9
83 46 106 76 17 23 19 24 26 8 9 -24 94 -88 106 -81 5 3 -10 18 -34 33 -45 30
-73 57 -80 80 -3 10 -12 2 -26 -21z"/>
<path d="M2060 8131 c0 -28 -2 -30 -47 -34 l-48 -3 48 -2 48 -2 -3 -77 c-2
-56 -7 -77 -15 -75 -7 1 -13 -2 -13 -8 0 -16 37 -11 44 6 3 9 6 46 6 84 0 57
3 69 18 73 16 4 16 5 0 6 -13 1 -18 10 -18 31 0 17 -4 30 -10 30 -5 0 -10 -13
-10 -29z"/>
<path d="M4171 8129 c-13 -17 -39 -38 -57 -47 -19 -9 -34 -19 -34 -24 0 -12
14 -10 29 5 9 8 15 8 17 1 3 -6 18 -8 34 -6 27 4 30 1 30 -21 0 -22 -5 -26
-37 -30 l-38 -4 38 -1 c34 -2 37 -4 37 -31 0 -29 -2 -30 -52 -34 -29 -2 -1 -3
62 -3 63 0 91 1 63 3 -51 4 -53 5 -53 33 0 26 4 29 38 33 l37 4 -37 1 c-33 2
-38 5 -38 26 0 21 6 24 40 28 22 2 47 0 55 -4 7 -5 16 -4 19 0 3 5 -13 17 -35
27 -22 10 -51 31 -64 47 -13 15 -25 28 -27 27 -2 0 -14 -14 -27 -30z m69 -29
l34 -30 -74 0 -74 0 34 30 c19 16 37 29 40 29 3 0 21 -13 40 -29z"/>
<path d="M4835 8133 c0 -26 -4 -29 -45 -34 l-45 -6 48 -1 47 -2 0 -69 c0 -45
-5 -72 -13 -80 -8 -6 -17 -8 -20 -4 -4 3 -7 1 -7 -6 0 -7 10 -11 23 -9 20 3
22 9 25 86 3 74 5 82 22 82 11 0 20 4 20 9 0 5 -9 7 -20 4 -17 -5 -20 0 -20
26 0 17 -4 31 -8 31 -4 0 -8 -12 -7 -27z"/>
<path d="M5586 8126 c-8 -18 -19 -37 -25 -40 -14 -9 -14 -26 -1 -26 6 0 16 11
22 25 10 22 17 25 64 25 49 0 52 -1 47 -22 -4 -22 -3 -22 11 2 23 38 20 41
-41 34 -54 -7 -56 -6 -51 14 9 35 -10 25 -26 -12z"/>
<path d="M6660 8151 c0 -5 -15 -32 -34 -60 -36 -53 -37 -64 -3 -33 19 17 19
16 15 -60 -2 -43 0 -78 4 -78 5 0 8 41 8 90 0 62 5 100 15 120 9 17 11 30 5
30 -5 0 -10 -4 -10 -9z"/>
<path d="M7190 8130 c0 -20 -5 -30 -15 -30 -8 0 -15 -4 -15 -10 0 -5 7 -7 15
-4 12 5 15 -4 15 -49 0 -48 -3 -55 -22 -60 -12 -4 -19 -9 -16 -13 8 -7 79 14
93 28 7 7 2 8 -12 3 -22 -6 -23 -4 -23 44 0 41 3 49 15 45 8 -4 15 -1 15 5 0
6 -7 11 -15 11 -10 0 -15 10 -15 30 0 17 -4 30 -10 30 -5 0 -10 -13 -10 -30z"/>
<path d="M7545 8140 c6 -18 2 -20 -50 -20 -34 0 -54 -4 -50 -10 3 -5 19 -7 34
-4 38 8 45 -6 36 -71 -4 -38 -14 -61 -32 -79 -14 -15 -23 -29 -20 -33 16 -16
67 57 67 97 0 17 6 20 50 20 46 0 50 -2 50 -24 0 -42 -18 -76 -40 -76 -11 0
-20 -5 -20 -11 0 -11 49 -4 61 9 4 4 9 31 11 60 l5 52 -59 0 c-59 0 -59 0 -56
28 3 27 4 27 76 27 39 0 72 3 72 8 0 4 -25 7 -56 7 -47 0 -57 3 -61 20 -3 11
-10 20 -15 20 -5 0 -6 -9 -3 -20z"/>
<path d="M13736 8135 c-4 -14 -13 -25 -21 -25 -12 0 -15 -18 -15 -102 1 -88 3
-100 14 -85 15 20 62 23 69 5 3 -7 6 31 6 85 1 92 0 97 -20 97 -17 0 -20 5
-17 25 3 14 2 25 -2 25 -4 0 -11 -11 -14 -25z m44 -70 c0 -32 -2 -35 -30 -35
-28 0 -30 3 -30 35 0 32 2 35 30 35 28 0 30 -3 30 -35z m0 -80 c0 -32 -2 -35
-30 -35 -28 0 -30 3 -30 35 0 32 2 35 30 35 28 0 30 -3 30 -35z"/>
<path d="M13834 8133 c-4 -16 -13 -38 -20 -50 -8 -12 -10 -24 -5 -27 4 -3 13
6 19 19 9 19 19 25 42 25 l31 0 -3 -77 c-3 -72 -5 -78 -25 -81 -30 -4 -30 -22
0 -22 39 0 47 18 47 112 l0 88 -36 0 c-31 0 -35 3 -29 20 4 11 2 20 -4 20 -6
0 -13 -12 -17 -27z"/>
<path d="M2470 8105 l0 -45 75 0 75 0 0 45 0 45 -75 0 -75 0 0 -45z m138 18
c3 -10 -14 -13 -62 -13 -61 0 -77 6 -59 24 12 12 116 2 121 -11z m0 -35 c-5
-14 -90 -23 -115 -14 -31 12 1 26 58 26 44 0 60 -3 57 -12z"/>
<path d="M4390 8068 c0 -55 -5 -93 -15 -112 -16 -30 -11 -52 6 -26 11 19 29
79 29 103 0 15 10 17 80 17 l80 0 0 -55 c0 -42 -3 -55 -15 -55 -8 0 -15 -5
-15 -11 0 -6 8 -9 17 -7 20 4 31 36 32 96 l1 42 -90 0 c-73 0 -90 3 -90 15 0
12 16 15 80 15 l80 0 0 30 0 30 -90 0 -90 0 0 -82z m168 50 c3 -16 -6 -18 -72
-18 -70 0 -76 2 -76 20 0 19 5 21 72 18 60 -2 73 -6 76 -20z"/>
<path d="M5760 8140 c0 -6 37 -10 90 -10 l90 0 0 -95 c0 -90 -1 -96 -22 -105
-21 -9 -20 -9 7 -7 l30 2 3 103 c2 94 4 102 22 102 11 0 20 5 20 10 0 6 -47
10 -120 10 -73 0 -120 -4 -120 -10z"/>
<path d="M6136 8115 c14 -19 31 -35 36 -35 5 0 -4 16 -19 35 -36 46 -52 46
-17 0z"/>
<path d="M6227 8099 c-8 -68 -35 -120 -74 -144 -18 -11 -32 -23 -33 -27 0 -17
22 -6 59 27 l39 36 26 -33 c13 -18 28 -29 32 -25 4 4 -7 22 -24 40 -28 29 -31
37 -23 63 13 41 21 114 11 114 -4 0 -10 -23 -13 -51z"/>
<path d="M6750 8137 c-42 -9 -49 -12 -27 -15 23 -3 27 -8 27 -38 0 -32 -2 -34
-35 -34 -19 0 -35 -4 -35 -9 0 -6 16 -7 35 -4 l35 6 0 -47 c0 -44 -1 -46 -30
-46 -16 0 -30 -3 -30 -7 0 -5 34 -8 75 -8 41 0 75 3 75 8 0 4 -16 7 -35 7 -35
0 -35 0 -35 46 l0 47 35 -6 c19 -3 37 -1 40 4 4 5 -12 9 -35 9 l-41 0 3 38 c3
32 7 37 31 40 15 2 25 8 22 13 -4 5 -9 8 -13 8 -4 -1 -32 -6 -62 -12z"/>
<path d="M6950 8138 c0 -5 29 -8 65 -8 l65 0 0 -95 c0 -79 -3 -96 -17 -104
-16 -9 -16 -10 3 -11 29 0 34 17 34 121 0 76 2 89 17 89 9 0 14 3 10 6 -9 9
-177 10 -177 2z"/>
<path d="M8025 8051 c0 -66 -4 -103 -13 -114 -7 -9 -9 -18 -4 -21 10 -6 28 32
34 69 2 14 12 21 36 23 31 3 32 2 32 -37 0 -51 18 -54 22 -3 3 34 6 37 36 40
31 3 32 2 32 -37 0 -32 -4 -41 -17 -41 -12 0 -14 -3 -7 -10 6 -6 18 -8 27 -4
15 5 17 23 17 120 l0 114 -97 0 -98 0 0 -99z m85 59 c0 -28 -3 -30 -35 -30
-30 0 -35 3 -35 23 0 31 7 37 42 37 24 0 28 -4 28 -30z m90 0 c0 -28 -3 -30
-35 -30 -32 0 -35 2 -35 30 0 28 3 30 35 30 32 0 35 -2 35 -30z m-90 -65 c0
-22 -4 -25 -35 -25 -31 0 -35 3 -35 25 0 22 4 25 35 25 31 0 35 -3 35 -25z
m90 0 c0 -22 -4 -25 -35 -25 -31 0 -35 3 -35 25 0 22 4 25 35 25 31 0 35 -3
35 -25z"/>
<path d="M9230 8140 c-52 -3 -76 -7 -52 -8 41 -2 42 -3 42 -36 0 -34 -1 -35
-47 -39 l-48 -3 48 -2 c26 -1 47 -5 47 -9 0 -20 -43 -75 -71 -92 -17 -10 -27
-21 -22 -24 16 -10 81 52 94 88 7 19 16 35 21 35 4 0 8 -26 10 -57 l3 -58 47
-3 c39 -3 49 0 58 17 13 24 -2 28 -20 5 -8 -8 -25 -14 -39 -12 -24 3 -26 7
-29 55 l-3 52 43 4 c38 3 36 4 -14 5 l-58 2 0 35 c0 35 0 35 45 35 25 0 45 5
45 10 0 6 -1 9 -2 8 -2 -1 -46 -5 -98 -8z"/>
<path d="M9463 8143 c63 -5 61 -23 -3 -23 -48 0 -50 -1 -49 -27 0 -27 1 -27 9
-5 8 18 17 22 50 22 38 0 40 -2 40 -30 0 -16 5 -30 10 -30 6 0 10 14 10 30 0
28 2 30 40 30 33 0 42 -4 50 -22 8 -22 9 -22 9 5 1 26 -1 27 -49 27 -64 0 -66
18 -2 23 26 2 0 3 -58 3 -58 0 -84 -1 -57 -3z"/>
<path d="M11860 8105 l0 -45 78 0 77 0 0 45 0 45 -77 0 -78 0 0 -45z m140 20
c0 -12 -13 -15 -60 -15 -47 0 -60 3 -60 15 0 12 13 15 60 15 47 0 60 -3 60
-15z m0 -40 c0 -12 -13 -15 -60 -15 -47 0 -60 3 -60 15 0 12 13 15 60 15 47 0
60 -3 60 -15z"/>
<path d="M1870 8128 c0 -5 18 -8 41 -8 43 0 42 3 24 -58 l-7 -23 -20 26 c-28
36 -35 23 -8 -15 l22 -31 -31 -39 c-17 -21 -27 -41 -22 -44 5 -3 19 10 32 29
13 19 27 35 30 35 3 0 12 -11 19 -25 7 -13 17 -22 22 -19 4 3 -1 19 -13 36
-19 26 -20 34 -10 68 20 67 17 75 -34 75 -25 0 -45 -3 -45 -7z"/>
<path d="M3286 8109 c-54 -64 -16 -169 61 -169 19 0 43 5 54 10 13 7 19 7 19
0 0 -5 5 -10 10 -10 6 0 10 23 10 50 l0 50 -46 0 c-27 0 -43 -4 -39 -10 3 -5
19 -10 36 -10 33 0 35 -6 13 -38 -10 -15 -25 -22 -48 -22 -44 0 -71 30 -71 80
0 50 27 80 71 80 23 0 38 -6 46 -20 15 -23 28 -26 28 -6 0 23 -41 46 -81 46
-29 0 -43 -7 -63 -31z"/>
<path d="M3480 8040 c0 -60 4 -100 10 -100 6 0 10 40 10 100 0 60 -4 100 -10
100 -6 0 -10 -40 -10 -100z"/>
<path d="M3700 8040 c0 -60 4 -100 10 -100 6 0 10 5 10 12 0 9 3 9 12 0 18
-18 63 -14 81 6 17 19 22 67 11 97 -9 24 -49 36 -79 25 -24 -9 -25 -8 -25 25
0 19 -4 35 -10 35 -6 0 -10 -40 -10 -100z m94 14 c19 -18 21 -65 4 -82 -46
-46 -105 32 -61 80 20 22 37 23 57 2z"/>
<path d="M4020 8040 c0 -60 4 -100 10 -100 6 0 10 40 10 100 0 60 -4 100 -10
100 -6 0 -10 -40 -10 -100z"/>
<path d="M4643 8128 c-2 -5 14 -8 36 -8 36 0 41 -3 41 -22 0 -13 -5 -30 -10
-38 -9 -13 -13 -11 -29 10 -11 14 -22 22 -25 19 -4 -3 3 -17 14 -32 26 -33 25
-40 -10 -81 -17 -19 -26 -37 -21 -40 5 -4 22 10 37 30 l28 36 18 -22 c26 -32
34 -17 11 17 -17 25 -18 32 -7 68 21 67 19 70 -32 70 -25 0 -48 -3 -51 -7z"/>
<path d="M8893 8133 c48 -3 58 -7 53 -19 -3 -9 -6 -20 -6 -25 0 -5 -18 -9 -40
-9 l-40 0 0 -80 c0 -47 4 -80 10 -80 6 0 10 32 10 75 0 68 2 75 20 75 18 0 20
-7 20 -70 0 -40 4 -70 10 -70 6 0 10 30 10 70 0 63 2 70 20 70 18 0 20 -7 20
-70 0 -40 4 -70 10 -70 6 0 10 30 10 71 0 67 1 70 23 67 19 -3 22 -10 25 -59
2 -43 -1 -61 -14 -74 -17 -16 -17 -17 2 -13 16 3 19 13 22 81 l3 77 -57 0
c-47 0 -55 3 -50 16 3 9 6 20 6 24 0 5 28 11 63 13 34 2 6 3 -63 3 -69 0 -99
-1 -67 -3z"/>
<path d="M10240 8125 c0 -8 5 -15 10 -15 6 0 10 7 10 15 0 8 -4 15 -10 15 -5
0 -10 -7 -10 -15z"/>
<path d="M12100 8040 l0 -100 70 0 c84 0 94 18 13 22 -57 3 -58 3 -61 36 l-3
32 55 0 c71 0 74 18 4 22 -51 3 -53 4 -53 33 0 30 1 30 58 33 81 4 71 22 -13
22 l-70 0 0 -100z"/>
<path d="M12810 8040 l0 -100 65 0 c37 0 65 4 65 10 0 6 -25 10 -55 10 l-55 0
0 35 0 35 50 0 c28 0 50 5 50 10 0 6 -22 10 -50 10 l-50 0 0 35 0 35 55 0 c30
0 55 5 55 10 0 6 -28 10 -65 10 l-65 0 0 -100z"/>
<path d="M13210 8125 c0 -8 5 -15 10 -15 6 0 10 7 10 15 0 8 -4 15 -10 15 -5
0 -10 -7 -10 -15z"/>
<path d="M6058 8038 c-2 -51 -2 -95 0 -97 4 -7 82 72 82 83 0 5 -13 -2 -28
-17 -15 -15 -32 -27 -36 -27 -5 0 -6 34 -4 75 3 41 1 75 -3 75 -4 0 -9 -42
-11 -92z"/>
<path d="M12720 8105 c0 -14 -5 -25 -11 -25 -8 0 -8 -4 -1 -13 6 -7 12 -37 14
-67 3 -48 6 -55 26 -58 25 -4 30 13 7 22 -22 8 -21 94 1 103 15 5 15 7 0 15
-9 5 -16 18 -16 28 0 11 -4 20 -10 20 -5 0 -10 -11 -10 -25z"/>
<path d="M13280 8105 c0 -14 -5 -25 -11 -25 -8 0 -8 -4 -1 -13 6 -7 12 -37 14
-67 3 -48 6 -55 26 -58 25 -4 30 13 7 22 -22 8 -21 94 1 103 15 5 15 7 0 15
-9 5 -16 18 -16 28 0 11 -4 20 -10 20 -5 0 -10 -11 -10 -25z"/>
<path d="M13370 8105 c0 -14 -5 -25 -11 -25 -8 0 -8 -4 -1 -13 6 -7 12 -37 14
-67 3 -48 6 -55 26 -58 25 -4 30 13 7 22 -22 8 -21 94 1 103 15 5 15 7 0 15
-9 5 -16 18 -16 28 0 11 -4 20 -10 20 -5 0 -10 -11 -10 -25z"/>
<path d="M915 8081 c-11 -5 -26 -6 -32 -4 -10 4 -13 -18 -13 -91 0 -57 4 -96
10 -96 6 0 10 17 10 37 0 29 3 34 12 25 18 -18 63 -14 81 6 20 22 22 81 5 104
-17 21 -48 28 -73 19z m49 -27 c19 -18 21 -65 4 -82 -46 -46 -105 32 -61 80
20 22 37 23 57 2z"/>
<path d="M1072 8074 c-12 -8 -22 -10 -22 -5 0 6 -4 11 -10 11 -6 0 -10 -30
-10 -70 0 -40 4 -70 10 -70 6 0 10 13 10 29 0 44 18 82 40 88 11 3 20 12 20
19 0 18 -10 18 -38 -2z"/>
<path d="M1160 8079 c-13 -6 -28 -15 -32 -22 -13 -20 -9 -71 8 -95 19 -28 74
-30 97 -4 17 19 23 78 9 98 -6 10 -47 35 -54 33 -2 0 -14 -5 -28 -10z m54 -25
c19 -18 21 -65 4 -82 -7 -7 -21 -12 -33 -12 -44 0 -61 56 -28 92 20 22 37 23
57 2z"/>
<path d="M1315 8078 c-29 -16 -35 -28 -35 -69 0 -41 24 -69 59 -69 31 0 61 18
61 35 0 19 -16 19 -24 0 -7 -18 -47 -20 -64 -3 -17 17 -15 64 4 82 20 20 33
20 56 -1 10 -9 21 -13 26 -9 8 9 -34 46 -52 46 -6 0 -20 -6 -31 -12z"/>
<path d="M1465 8078 c-28 -16 -35 -28 -35 -63 0 -43 25 -75 59 -75 31 0 70 24
58 36 -4 4 -13 2 -19 -4 -25 -25 -78 -8 -78 25 0 9 17 13 56 13 53 0 55 1 49
23 -14 43 -55 65 -90 45z m53 -20 c22 -22 13 -38 -22 -38 -41 0 -56 18 -31 37
23 16 37 17 53 1z"/>
<path d="M1603 8080 c-25 -10 -30 -42 -10 -57 6 -6 26 -15 42 -20 41 -13 46
-43 8 -43 -16 0 -34 5 -41 12 -17 17 -28 2 -12 -17 15 -18 71 -20 88 -3 7 7
12 22 12 34 0 17 -10 26 -42 37 -44 14 -57 39 -25 45 10 2 27 -4 38 -14 10 -9
22 -14 27 -10 8 9 -34 46 -52 45 -6 0 -21 -4 -33 -9z"/>
<path d="M1743 8080 c-25 -10 -30 -42 -10 -57 6 -6 26 -15 42 -20 41 -13 46
-43 8 -43 -16 0 -34 5 -41 12 -17 17 -28 2 -12 -17 15 -18 71 -20 88 -3 7 7
12 22 12 34 0 17 -10 26 -42 37 -44 14 -57 39 -25 45 10 2 27 -4 38 -14 10 -9
22 -14 27 -10 8 9 -34 46 -52 45 -6 0 -21 -4 -33 -9z"/>
<path d="M3572 8080 c-44 -18 -54 -87 -16 -124 22 -22 70 -20 94 4 53 53 -8
147 -78 120z m65 -41 c17 -34 6 -68 -24 -75 -48 -13 -78 63 -37 93 26 19 47
13 61 -18z"/>
<path d="M3893 8080 c-13 -5 -23 -16 -23 -25 0 -19 7 -19 26 0 19 19 38 19 54
0 13 -15 15 -13 -65 -45 -45 -17 -26 -70 25 -70 14 0 31 5 38 12 9 9 12 9 12
0 0 -7 7 -12 16 -12 11 0 14 5 10 16 -3 9 -6 34 -6 57 0 23 -4 47 -8 54 -10
17 -53 24 -79 13z m67 -83 c0 -20 -21 -37 -46 -37 -31 0 -41 20 -19 37 24 17
65 17 65 0z"/>
<path d="M5794 8030 c-1 -33 3 -60 7 -60 5 0 9 7 9 15 0 19 66 21 73 3 3 -7 6
13 6 45 l1 57 -47 0 -48 0 -1 -60z m86 15 c0 -33 -2 -35 -35 -35 -33 0 -35 2
-35 35 0 33 2 35 35 35 33 0 35 -2 35 -35z"/>
<path d="M6466 8065 c6 -23 3 -25 -27 -26 l-34 -1 30 -7 c26 -5 30 -11 33 -43
3 -37 3 -37 -40 -41 -24 -2 -2 -4 47 -4 50 0 71 2 48 4 -43 4 -43 5 -43 43 0
36 2 39 33 43 l32 4 -34 1 c-30 2 -33 5 -29 27 4 17 1 25 -9 25 -9 0 -12 -7
-7 -25z"/>
<path d="M6971 8028 c0 -35 3 -57 6 -50 2 6 17 12 33 12 16 0 31 -6 33 -12 3
-7 6 15 6 50 l1 62 -40 0 -40 0 1 -62z m64 12 c0 -31 -3 -35 -25 -35 -19 0
-26 6 -28 23 -5 36 5 54 30 50 19 -2 23 -9 23 -38z"/>
<path d="M8330 8018 c0 -44 5 -79 12 -86 15 -15 122 -16 149 -2 10 6 19 17 19
25 0 19 -16 20 -23 1 -6 -15 -82 -28 -115 -19 -17 4 -22 13 -22 38 0 33 1 34
58 45 74 14 82 17 82 29 0 6 -15 5 -37 -3 -21 -7 -53 -16 -70 -19 -31 -6 -33
-5 -33 23 0 16 -4 32 -10 35 -6 4 -10 -21 -10 -67z"/>
<path d="M9453 8083 c9 -2 23 -2 30 0 6 3 -1 5 -18 5 -16 0 -22 -2 -12 -5z"/>
<path d="M9563 8083 c9 -2 23 -2 30 0 6 3 -1 5 -18 5 -16 0 -22 -2 -12 -5z"/>
<path d="M9722 8074 c-12 -8 -22 -10 -22 -5 0 6 -4 11 -10 11 -6 0 -10 -30
-10 -70 0 -40 4 -70 10 -70 6 0 10 18 10 41 0 47 14 79 35 79 8 0 15 7 15 15
0 19 0 19 -28 -1z"/>
<path d="M9803 8079 c-44 -16 -57 -85 -23 -119 24 -24 72 -26 90 -5 16 19 5
34 -12 17 -18 -18 -56 -14 -67 7 -14 26 -5 31 51 31 52 0 59 10 33 47 -17 25
-43 33 -72 22z m50 -27 c21 -23 13 -32 -29 -32 -39 0 -50 13 -28 34 20 21 37
20 57 -2z"/>
<path d="M9937 8070 c-34 -27 -37 -80 -7 -110 22 -22 60 -26 78 -8 9 9 12 4
12 -25 0 -20 5 -37 10 -37 6 0 10 38 10 94 0 84 -2 95 -17 95 -10 -1 -27 2
-38 6 -14 4 -30 -1 -48 -15z m67 -16 c20 -19 21 -68 2 -84 -44 -36 -95 25 -62
74 19 30 38 33 60 10z"/>
<path d="M10342 8074 c-12 -8 -22 -10 -22 -5 0 6 -4 11 -10 11 -6 0 -10 -30
-10 -70 0 -40 4 -70 10 -70 6 0 10 18 10 41 0 47 14 79 35 79 8 0 15 7 15 15
0 19 0 19 -28 -1z"/>
<path d="M10422 8080 c-43 -18 -52 -88 -16 -124 22 -22 67 -20 89 4 16 18 16
20 2 20 -10 0 -17 -5 -17 -11 0 -6 -14 -9 -32 -7 -25 2 -34 8 -36 26 -3 20 0
22 47 22 44 0 51 3 51 19 0 11 -12 29 -26 40 -30 23 -30 23 -62 11z m52 -26
c22 -22 11 -34 -30 -34 -35 0 -44 16 -22 38 16 16 34 15 52 -4z"/>
<path d="M10865 8081 c-11 -5 -26 -6 -32 -4 -10 4 -13 -18 -13 -91 0 -57 4
-96 10 -96 6 0 10 17 10 37 0 29 3 34 12 25 18 -18 63 -14 81 6 20 22 22 81 5
104 -17 21 -48 28 -73 19z m49 -27 c19 -18 21 -65 4 -82 -46 -46 -105 32 -61
80 20 22 37 23 57 2z"/>
<path d="M11026 8074 c-9 -8 -16 -11 -16 -5 0 6 -4 11 -10 11 -6 0 -10 -30
-10 -70 0 -81 18 -95 22 -17 2 43 7 54 26 62 12 5 22 15 22 22 0 18 -15 16
-34 -3z"/>
<path d="M11110 8079 c-13 -6 -28 -15 -32 -22 -13 -20 -9 -71 8 -95 19 -28 74
-30 97 -4 17 19 23 78 9 98 -6 10 -47 35 -54 33 -2 0 -14 -5 -28 -10z m54 -25
c19 -18 21 -65 4 -82 -7 -7 -21 -12 -33 -12 -44 0 -61 56 -28 92 20 22 37 23
57 2z"/>
<path d="M11265 8078 c-29 -16 -35 -28 -35 -69 0 -41 24 -69 59 -69 31 0 61
18 61 35 0 19 -16 19 -24 0 -7 -18 -47 -20 -64 -3 -17 17 -15 64 4 82 20 20
33 20 56 -1 10 -9 21 -13 26 -9 8 9 -34 46 -52 46 -6 0 -20 -6 -31 -12z"/>
<path d="M11415 8078 c-28 -16 -35 -28 -35 -63 0 -43 25 -75 59 -75 31 0 70
24 58 36 -4 4 -13 2 -19 -4 -25 -25 -78 -8 -78 25 0 9 17 13 56 13 53 0 55 1
49 23 -14 43 -55 65 -90 45z m53 -20 c22 -22 13 -38 -22 -38 -41 0 -56 18 -31
37 23 16 37 17 53 1z"/>
<path d="M11558 8083 c-21 -5 -34 -41 -19 -56 6 -6 26 -16 43 -21 43 -14 51
-46 11 -46 -16 0 -34 5 -41 12 -17 17 -28 2 -12 -17 25 -30 110 -10 110 25 0
11 -29 40 -40 40 -5 0 -21 5 -36 10 -25 10 -26 12 -12 26 16 17 58 11 58 -7 0
-5 5 -9 10 -9 12 0 13 10 2 27 -9 14 -50 23 -74 16z"/>
<path d="M11698 8083 c-21 -5 -34 -41 -19 -56 6 -6 26 -16 43 -21 43 -14 51
-46 11 -46 -16 0 -34 5 -41 12 -17 17 -28 2 -12 -17 25 -30 110 -10 110 25 0
11 -29 40 -40 40 -5 0 -21 5 -36 10 -25 10 -26 12 -12 26 16 17 58 11 58 -7 0
-5 5 -9 10 -9 12 0 13 10 2 27 -9 14 -50 23 -74 16z"/>
<path d="M12443 8079 c-44 -16 -57 -85 -23 -119 24 -24 72 -26 90 -5 16 19 5
34 -12 17 -18 -18 -56 -14 -67 7 -14 26 -5 31 51 31 52 0 59 10 33 47 -17 25
-43 33 -72 22z m50 -27 c21 -23 13 -32 -29 -32 -39 0 -50 13 -28 34 20 21 37
20 57 -2z"/>
<path d="M12605 8081 c-11 -5 -26 -6 -32 -4 -10 4 -13 -13 -13 -66 0 -41 4
-71 10 -71 6 0 10 24 10 54 0 59 16 82 50 71 17 -5 20 -15 20 -66 0 -33 4 -59
10 -59 6 0 10 28 10 65 0 53 -3 66 -19 75 -11 5 -21 10 -23 9 -2 0 -12 -4 -23
-8z"/>
<path d="M13020 8080 c-8 -5 -23 -7 -32 -4 -16 5 -18 -3 -18 -65 0 -41 4 -71
10 -71 6 0 10 22 10 49 0 53 20 84 49 79 12 -2 17 -17 19 -66 3 -73 22 -84 22
-13 0 53 20 84 49 79 12 -2 17 -17 19 -66 4 -82 22 -80 22 3 0 74 -17 93 -65
75 -18 -7 -33 -7 -45 0 -23 12 -21 12 -40 0z"/>
<path d="M13482 8080 c-43 -18 -52 -88 -16 -124 22 -22 67 -20 89 4 16 18 16
20 2 20 -10 0 -17 -5 -17 -11 0 -6 -14 -9 -32 -7 -25 2 -34 8 -36 26 -3 20 0
22 47 22 44 0 51 3 51 19 0 11 -12 29 -26 40 -30 23 -30 23 -62 11z m52 -26
c22 -22 11 -34 -30 -34 -35 0 -44 16 -22 38 16 16 34 15 52 -4z"/>
<path d="M13642 8074 c-12 -8 -22 -10 -22 -5 0 6 -4 11 -10 11 -6 0 -10 -30
-10 -70 0 -40 4 -70 10 -70 6 0 10 18 10 41 0 47 14 79 35 79 8 0 15 7 15 15
0 19 0 19 -28 -1z"/>
<path d="M3100 7993 c0 -47 3 -84 6 -80 9 8 10 167 2 167 -5 0 -8 -39 -8 -87z"/>
<path d="M5630 8010 c0 -63 -2 -70 -20 -70 -11 0 -20 -5 -20 -11 0 -6 10 -9
23 -7 20 3 22 10 27 81 3 42 2 77 -2 77 -5 0 -8 -31 -8 -70z"/>
<path d="M10080 8036 c0 -68 14 -96 48 -96 15 0 33 5 40 12 9 9 12 9 12 0 0
-7 5 -12 10 -12 6 0 10 30 10 70 0 81 -17 95 -22 19 -3 -55 -21 -78 -52 -66
-12 5 -16 20 -16 62 0 42 -3 55 -15 55 -11 0 -15 -12 -15 -44z"/>
<path d="M10240 8010 c0 -40 4 -70 10 -70 6 0 10 30 10 70 0 40 -4 70 -10 70
-6 0 -10 -30 -10 -70z"/>
<path d="M12260 8073 c0 -23 47 -133 56 -133 12 0 68 130 60 138 -10 10 -24
-11 -36 -53 -7 -25 -16 -47 -20 -50 -4 -2 -14 20 -24 50 -9 30 -21 55 -27 55
-5 0 -9 -3 -9 -7z"/>
<path d="M13210 8010 c0 -40 4 -70 10 -70 6 0 10 30 10 70 0 40 -4 70 -10 70
-6 0 -10 -30 -10 -70z"/>
<path d="M14364 7995 c0 -47 3 -85 7 -85 4 0 9 38 11 85 2 52 -1 85 -7 85 -6
0 -10 -35 -11 -85z"/>
<path d="M9453 8063 c9 -2 23 -2 30 0 6 3 -1 5 -18 5 -16 0 -22 -2 -12 -5z"/>
<path d="M9563 8063 c9 -2 23 -2 30 0 6 3 -1 5 -18 5 -16 0 -22 -2 -12 -5z"/>
<path d="M2005 8030 c9 -16 20 -30 26 -30 5 0 3 14 -6 30 -9 17 -20 30 -26 30
-5 0 -3 -13 6 -30z"/>
<path d="M2763 8053 c37 -2 96 -2 130 0 34 2 4 3 -68 3 -71 0 -99 -1 -62 -3z"/>
<path d="M4770 8058 c0 -14 23 -58 32 -58 4 0 8 4 8 9 0 11 -39 59 -40 49z"/>
<path d="M14028 8053 c34 -2 90 -2 125 0 34 2 6 3 -63 3 -69 0 -97 -1 -62 -3z"/>
<path d="M13846 8018 c10 -18 19 -28 21 -21 5 15 -15 53 -28 53 -5 0 -2 -15 7
-32z"/>
<path d="M2478 8033 l62 -4 0 -46 c0 -45 0 -45 -22 -31 -13 9 -24 25 -26 37
-4 23 -22 29 -22 7 0 -7 -10 -25 -21 -40 -25 -32 -17 -48 8 -17 l18 22 40 -21
c41 -21 155 -29 155 -11 0 6 -16 7 -34 4 -54 -9 -88 3 -84 30 2 18 11 23 48
28 l45 6 -47 1 c-35 2 -48 6 -48 17 0 10 16 15 63 18 34 2 4 3 -68 3 -71 0
-102 -1 -67 -3z"/>
<path d="M5566 8003 c-16 -20 -23 -34 -16 -31 16 5 56 56 49 62 -3 3 -18 -11
-33 -31z"/>
<path d="M5670 8038 c0 -9 40 -78 46 -78 2 0 4 6 4 13 0 13 -49 77 -50 65z"/>
<path d="M9447 8033 c41 -3 51 -7 46 -19 -4 -11 -14 -13 -34 -9 l-29 7 0 -52
c0 -32 4 -49 10 -45 6 3 10 22 10 41 0 28 4 34 21 34 18 0 21 -5 17 -30 -3
-16 -1 -30 4 -30 4 0 8 14 8 30 0 23 4 30 20 30 16 0 20 -7 20 -30 0 -16 5
-30 10 -30 6 0 10 14 10 30 0 23 4 30 20 30 16 0 20 -7 20 -30 0 -21 -5 -30
-16 -30 -8 0 -13 -4 -9 -10 3 -5 12 -7 20 -3 10 3 15 20 15 49 l0 43 -50 -6
c-42 -5 -50 -3 -50 10 0 13 14 17 68 20 37 2 11 3 -58 3 -69 0 -102 -1 -73 -3z"/>
<path d="M11868 8033 l62 -4 0 -46 c0 -45 0 -45 -22 -31 -13 9 -25 26 -29 39
-6 23 -7 23 -14 4 -5 -11 -17 -31 -27 -44 -10 -13 -16 -27 -12 -30 3 -3 13 4
22 17 l17 22 40 -20 c39 -20 155 -29 155 -12 0 4 -24 8 -52 7 -51 0 -53 1 -56
29 -3 28 -2 28 37 24 23 -2 41 0 41 4 0 5 -18 8 -40 8 -28 0 -40 4 -40 15 0
10 16 15 58 18 31 2 -1 3 -73 3 -71 0 -102 -1 -67 -3z"/>
<path d="M4440 7988 c0 -33 1 -33 48 -33 46 0 47 0 47 32 0 33 -1 33 -47 33
-47 0 -48 0 -48 -32z m80 1 c0 -17 -5 -20 -32 -17 -22 2 -34 9 -36 21 -3 14 4
17 32 17 30 0 36 -4 36 -21z"/>
<path d="M10564 7996 c-10 -26 4 -48 28 -44 17 2 23 10 23 28 0 18 -6 26 -23
28 -13 2 -25 -3 -28 -12z m42 -7 c10 -17 -13 -36 -27 -22 -12 12 -4 33 11 33
5 0 12 -5 16 -11z"/>
<path d="M2242 7975 c-12 -9 -39 -22 -59 -30 -21 -7 -30 -14 -20 -14 20 -1 93
34 102 49 9 14 3 13 -23 -5z"/>
<path d="M5243 7956 c1 -19 5 -32 10 -29 10 6 9 63 -2 63 -5 0 -9 -15 -8 -34z"/>
<path d="M8603 7956 c1 -19 5 -32 10 -29 10 6 9 63 -2 63 -5 0 -9 -15 -8 -34z"/>
<path d="M2260 7740 c0 -29 -1 -30 -47 -30 l-48 0 1 -60 c0 -33 4 -63 7 -67 4
-3 7 1 7 10 0 13 9 17 40 17 l40 0 0 -50 c0 -28 5 -50 11 -50 6 0 9 19 7 48
l-3 47 38 3 c21 2 37 -1 37 -7 0 -6 5 -11 10 -11 6 0 10 26 10 59 l0 60 -47 3
c-45 3 -48 4 -46 31 1 15 -2 27 -8 27 -5 0 -9 -13 -9 -30z m0 -80 l0 -40 -40
0 -40 0 0 40 0 40 40 0 40 0 0 -40z m90 -1 l0 -40 -37 3 c-31 2 -39 7 -41 26
-6 39 5 52 43 52 34 0 35 -1 35 -41z"/>
<path d="M2538 7733 c-3 -33 -7 -38 -30 -41 -24 -3 -28 0 -28 23 0 14 -4 24
-9 21 -5 -3 -7 -15 -4 -25 3 -14 -3 -24 -24 -35 l-28 -15 27 -1 c26 0 27 -2
30 -62 l3 -63 83 -3 c86 -3 112 5 112 36 0 12 -5 11 -20 -6 -17 -18 -32 -22
-83 -22 -36 0 -68 5 -75 12 -19 19 -16 114 4 122 37 14 44 7 44 -44 0 -27 5
-50 10 -50 6 0 10 24 10 54 0 54 8 66 46 66 22 0 19 -76 -3 -89 -21 -11 -13
-24 9 -16 16 7 28 47 28 96 0 32 -2 33 -48 20 -32 -10 -32 -9 -32 25 0 46 -18
43 -22 -3z"/>
<path d="M2797 7750 c-4 -16 -14 -20 -49 -22 l-43 -1 38 -4 c20 -2 37 -9 37
-16 0 -6 -19 -31 -42 -54 -42 -43 -42 -57 0 -27 l22 15 0 -65 c0 -37 4 -66 10
-66 6 0 10 16 10 35 l0 35 60 0 c53 0 60 -2 60 -20 0 -10 -8 -24 -17 -29 -16
-9 -16 -10 5 -11 21 0 22 4 22 80 l0 80 -61 0 c-52 0 -60 2 -55 16 3 9 6 18 6
20 0 2 33 5 73 6 l72 2 -68 3 c-63 4 -67 5 -57 23 8 16 7 20 -3 20 -8 0 -17
-9 -20 -20z m101 -97 c-2 -14 -15 -19 -61 -21 -52 -3 -57 -1 -57 18 0 18 6 20
61 20 52 0 60 -2 57 -17z m2 -48 c0 -12 -13 -15 -60 -15 -47 0 -60 3 -60 15 0
12 13 15 60 15 47 0 60 -3 60 -15z"/>
<path d="M3030 7740 c0 -25 -4 -30 -25 -30 -14 0 -25 -5 -25 -11 0 -7 10 -9
25 -7 33 7 32 -7 -5 -65 -16 -26 -25 -47 -20 -47 6 0 19 15 30 33 l20 32 0
-67 c0 -39 4 -68 10 -68 6 0 10 31 10 72 0 70 0 71 20 53 11 -10 20 -14 20 -8
0 5 -9 18 -20 28 -11 10 -20 22 -20 27 0 4 9 8 20 8 11 0 20 5 20 10 0 6 -9
10 -20 10 -16 0 -20 7 -20 30 0 17 -4 30 -10 30 -5 0 -10 -13 -10 -30z"/>
<path d="M3420 7740 c-12 -28 -16 -30 -74 -32 -59 -1 -60 -1 -16 -7 42 -6 45
-8 45 -36 0 -29 -1 -30 -47 -30 -25 0 -50 -4 -54 -8 -4 -4 16 -7 44 -7 31 0
52 -4 52 -11 0 -15 -59 -69 -76 -69 -8 0 -14 -4 -14 -10 0 -15 11 -12 48 10
18 11 37 31 43 44 l12 25 24 -30 c22 -26 71 -59 88 -59 14 0 3 19 -15 25 -25
8 -80 53 -80 66 0 5 23 9 50 9 28 0 50 4 50 8 0 5 -25 7 -55 4 l-55 -4 0 36 0
36 53 2 c44 1 46 2 14 5 -38 4 -38 5 -23 28 9 13 12 26 7 29 -5 3 -14 -8 -21
-24z"/>
<path d="M3661 7758 c-1 -15 -11 -18 -56 -18 -30 0 -55 -4 -55 -9 0 -4 22 -6
49 -3 30 2 51 0 55 -7 5 -7 -7 -11 -38 -11 -42 0 -46 -2 -46 -25 0 -23 4 -25
43 -25 39 0 43 -2 42 -22 -1 -20 -8 -24 -61 -29 l-59 -6 63 -1 c75 -2 82 -20
10 -25 l-53 -3 53 -2 c40 -2 52 -6 52 -18 0 -9 -9 -18 -20 -21 -18 -5 -29 -23
-14 -23 19 0 44 24 44 42 0 19 4 20 45 16 39 -5 45 -3 45 12 0 10 8 21 18 23
16 4 16 5 0 6 -11 1 -18 9 -18 21 0 11 -4 20 -10 20 -5 0 -10 -9 -10 -20 0
-16 -7 -20 -34 -20 -29 0 -33 3 -33 25 0 22 4 25 38 25 35 0 39 3 39 25 0 23
-4 25 -40 25 -22 0 -40 5 -40 11 0 7 20 10 55 7 30 -1 55 0 55 5 0 4 -24 7
-54 7 -44 0 -55 4 -59 18 -4 16 -5 16 -6 0z m-6 -73 c0 -5 -15 -11 -32 -13
-25 -3 -33 1 -33 13 0 12 8 16 33 13 17 -2 32 -7 32 -13z m80 0 c0 -5 -15 -11
-32 -13 -25 -3 -33 1 -33 13 0 12 8 16 33 13 17 -2 32 -7 32 -13z m5 -95 c0
-5 -16 -10 -35 -10 -19 0 -35 5 -35 10 0 6 16 10 35 10 19 0 35 -4 35 -10z"/>
<path d="M3869 7745 c-7 -16 -22 -43 -32 -58 -22 -32 -15 -51 8 -21 14 17 15
12 14 -64 -1 -45 1 -85 5 -89 3 -3 6 40 6 96 0 56 5 111 11 122 6 11 8 25 6
32 -2 7 -10 -1 -18 -18z"/>
<path d="M5265 7754 c-4 -10 -15 -38 -26 -62 -23 -50 -24 -64 -4 -38 14 18 15
12 15 -62 0 -132 18 -94 22 46 3 132 2 148 -7 116z"/>
<path d="M5370 7751 c0 -16 -8 -21 -42 -24 l-43 -4 43 -1 c30 -1 42 -6 42 -17
0 -10 -10 -15 -29 -15 -25 0 -29 -4 -33 -35 -4 -34 -3 -35 29 -35 21 0 33 -5
33 -13 0 -24 -13 -28 -32 -10 -10 9 -18 11 -18 6 0 -6 7 -16 15 -23 19 -16 12
-27 -28 -44 -25 -11 -27 -15 -12 -15 11 -1 31 6 43 15 13 9 28 14 35 11 7 -3
29 -12 50 -21 20 -9 37 -12 37 -7 0 4 -21 16 -46 26 -32 12 -44 21 -40 32 3 8
6 21 6 29 0 9 11 14 35 14 33 0 35 2 35 35 0 32 -2 35 -30 35 -49 0 -38 28 13
33 l42 4 -42 1 c-36 2 -43 5 -43 22 0 11 -4 20 -10 20 -5 0 -10 -9 -10 -19z
m0 -96 c0 -20 -5 -25 -25 -25 -20 0 -25 5 -25 25 0 20 5 25 25 25 20 0 25 -5
25 -25z m65 0 c0 -13 -8 -21 -22 -23 -19 -3 -23 1 -23 23 0 22 4 26 23 23 14
-2 22 -10 22 -23z"/>
<path d="M7105 7727 c-22 -22 -32 -37 -22 -34 12 5 17 1 17 -13 0 -14 8 -20
33 -22 l32 -4 -45 -22 c-43 -21 -30 -24 30 -6 22 7 24 6 11 -9 -7 -9 -31 -22
-52 -28 -21 -7 -36 -16 -33 -20 5 -9 50 8 75 28 18 15 39 17 39 4 0 -5 -28
-23 -62 -40 -33 -17 -53 -31 -42 -31 10 0 39 11 63 25 52 30 51 30 51 5 0 -12
-10 -25 -22 -30 -23 -10 -23 -10 2 -7 22 2 25 7 28 45 l3 43 41 -40 c22 -23
44 -38 49 -35 5 3 -5 15 -23 28 -39 26 -47 52 -18 61 11 3 18 11 14 16 -3 6
-20 0 -40 -12 -34 -21 -36 -21 -49 -3 -19 27 -10 34 46 34 46 0 49 2 49 25 0
20 -5 25 -26 25 -19 0 -25 4 -20 15 4 12 -4 15 -41 15 -39 0 -44 2 -33 15 28
33 -16 11 -55 -28z m110 -7 c-3 -5 -26 -10 -51 -10 -28 0 -43 4 -39 10 3 6 26
10 51 10 28 0 43 -4 39 -10z m-35 -35 c0 -10 -10 -15 -30 -15 -20 0 -30 5 -30
15 0 10 10 15 30 15 20 0 30 -5 30 -15z m90 0 c0 -11 -11 -15 -40 -15 -38 0
-49 8 -33 23 3 4 21 7 40 7 23 0 33 -5 33 -15z"/>
<path d="M9420 7741 c0 -23 -5 -31 -22 -34 l-23 -4 23 -2 c17 -1 22 -7 22 -30
0 -25 -5 -30 -27 -34 l-28 -4 28 -2 27 -1 -15 -36 c-19 -45 -19 -50 -1 -35 8
7 18 26 21 42 5 22 12 29 31 29 21 0 24 -4 24 -40 0 -22 5 -40 10 -40 6 0 10
18 10 39 0 36 3 40 28 44 l27 4 -27 2 c-24 1 -28 5 -28 30 0 23 5 31 23 34
l22 4 -22 2 c-17 1 -23 7 -23 25 0 14 -4 28 -10 31 -6 4 -10 -7 -10 -25 0 -27
-3 -31 -22 -28 -18 2 -22 9 -20 31 1 15 -2 27 -8 27 -5 0 -10 -13 -10 -29z
m60 -72 c0 -26 -3 -30 -22 -27 -17 2 -24 11 -26 31 -3 23 0 27 22 27 22 0 26
-4 26 -31z"/>
<path d="M9910 7740 c0 -25 -4 -30 -25 -30 -32 0 -33 -18 -1 -22 23 -3 24 -4
11 -33 -8 -16 -22 -40 -31 -52 -9 -13 -12 -23 -5 -23 6 0 19 17 30 38 l20 37
1 -72 c0 -40 4 -73 9 -73 6 0 7 29 4 70 -6 70 4 91 26 53 5 -10 13 -14 18 -10
4 5 -4 18 -20 29 -34 25 -35 38 -2 38 14 0 25 5 25 10 0 6 -12 10 -26 10 -24
0 -26 3 -20 30 3 17 1 30 -4 30 -6 0 -10 -13 -10 -30z"/>
<path d="M10457 7740 c5 -26 3 -30 -16 -30 -11 0 -21 -4 -21 -10 0 -5 9 -10
20 -10 15 0 20 -7 20 -26 0 -17 -6 -28 -20 -31 -11 -3 -20 -10 -20 -15 0 -5 9
-6 20 -3 18 6 20 2 20 -34 0 -30 -4 -41 -15 -41 -8 0 -15 -5 -15 -11 0 -6 8
-9 18 -7 13 2 18 15 20 56 2 35 8 55 18 59 7 3 14 9 14 14 0 4 -7 6 -15 3 -10
-4 -15 0 -15 15 0 12 6 21 15 21 8 0 15 5 15 10 0 6 -7 10 -15 10 -10 0 -15
10 -15 30 0 17 -4 30 -10 30 -5 0 -7 -13 -3 -30z"/>
<path d="M10741 7731 c-12 -22 -25 -42 -31 -46 -5 -3 -10 -11 -10 -17 0 -6 9
-3 20 7 19 17 19 16 23 -76 l3 -94 2 109 c1 83 6 114 18 127 10 11 12 19 5 23
-6 4 -19 -11 -30 -33z"/>
<path d="M3330 7755 c0 -18 19 -40 26 -32 4 4 0 15 -9 24 -9 10 -17 13 -17 8z"/>
<path d="M3980 7735 c0 -20 -5 -25 -25 -25 -18 0 -23 4 -19 15 4 8 2 15 -2 15
-11 0 -37 -80 -30 -88 3 -2 10 7 16 22 15 41 54 33 58 -11 3 -33 3 -33 -42
-33 -25 0 -46 -3 -46 -7 0 -5 19 -8 42 -8 l43 0 4 -50 5 -50 5 50 6 50 38 0
c20 0 37 3 37 8 0 4 -18 7 -41 7 -39 0 -40 1 -37 33 3 28 6 32 31 30 15 -1 27
2 27 8 0 5 -14 9 -31 9 -28 0 -31 3 -27 25 3 14 1 25 -3 25 -5 0 -9 -11 -9
-25z"/>
<path d="M4150 7739 c0 -12 -8 -23 -20 -26 -18 -5 -20 -14 -20 -104 0 -59 4
-99 10 -99 6 0 10 7 10 15 0 10 10 15 30 15 17 0 30 -4 30 -10 0 -5 3 -10 8
-10 4 0 7 43 7 95 0 93 0 95 -24 95 -20 0 -22 4 -17 25 4 14 2 25 -4 25 -5 0
-10 -9 -10 -21z m40 -74 c0 -32 -2 -35 -30 -35 -28 0 -30 3 -30 35 0 32 2 35
30 35 28 0 30 -3 30 -35z m0 -80 c0 -32 -2 -35 -30 -35 -28 0 -30 3 -30 35 0
32 2 35 30 35 28 0 30 -3 30 -35z"/>
<path d="M4237 7709 c-20 -54 -16 -80 4 -35 10 21 19 26 47 26 27 0 33 -3 28
-16 -3 -9 -6 -45 -6 -80 0 -57 -2 -64 -20 -64 -11 0 -20 -5 -20 -11 0 -6 12
-9 28 -7 l27 3 3 98 3 97 -36 0 c-32 0 -36 3 -30 20 3 11 3 20 -2 20 -5 0 -16
-23 -26 -51z"/>
<path d="M4460 7695 c0 -37 4 -65 10 -65 6 0 10 28 10 65 0 37 -4 65 -10 65
-6 0 -10 -28 -10 -65z"/>
<path d="M4513 7710 c-12 -28 -18 -50 -13 -50 5 0 12 9 15 20 5 16 15 20 56
20 27 0 49 5 49 10 0 6 -18 10 -41 10 -36 0 -40 2 -34 20 13 40 -11 18 -32
-30z"/>
<path d="M6980 7729 c0 -31 -1 -31 -45 -27 -25 2 -45 0 -45 -4 0 -5 20 -8 45
-8 l45 0 0 -75 c0 -73 -4 -81 -33 -76 -5 1 -6 -3 -2 -9 3 -5 15 -10 26 -10 17
0 19 8 19 85 0 81 1 85 23 86 l22 0 -24 10 c-18 7 -22 15 -19 34 3 14 1 25 -3
25 -5 0 -9 -14 -9 -31z"/>
<path d="M8285 7740 c6 -18 2 -20 -44 -20 -28 0 -51 -4 -51 -9 0 -5 15 -8 33
-7 28 1 32 -2 35 -28 6 -48 -8 -97 -34 -123 -32 -32 -22 -44 11 -13 15 14 28
40 31 62 7 38 7 38 55 38 l49 0 0 -34 c0 -50 -9 -66 -37 -66 -13 0 -21 -4 -18
-10 3 -5 12 -10 19 -10 26 0 44 27 51 77 l7 52 -59 3 c-54 3 -58 5 -58 28 0
24 2 25 73 25 39 0 72 3 72 8 0 4 -24 7 -54 7 -46 0 -56 3 -61 20 -3 11 -11
20 -16 20 -6 0 -7 -9 -4 -20z"/>
<path d="M8500 7746 c0 -7 -11 -34 -24 -59 -24 -45 -24 -78 1 -35 11 20 12 13
13 -59 0 -49 4 -83 10 -83 6 0 10 44 10 113 0 75 4 117 12 125 9 9 8 12 -5 12
-9 0 -17 -6 -17 -14z"/>
<path d="M8776 7705 c-9 -30 -21 -57 -26 -60 -12 -8 -13 -25 -2 -25 5 0 17 18
27 40 15 33 23 40 47 40 28 0 29 -2 23 -32 -4 -18 -12 -42 -17 -52 -10 -18
-11 -18 -25 8 -8 15 -17 26 -20 23 -2 -3 3 -19 11 -35 15 -30 15 -31 -15 -57
-18 -14 -29 -28 -26 -31 7 -8 57 26 57 38 0 6 12 2 27 -7 29 -19 141 -36 149
-23 3 4 -10 8 -28 8 -44 0 -103 17 -117 34 -8 10 -7 22 4 49 8 20 15 48 15 62
0 21 -4 25 -31 25 -28 0 -31 2 -25 25 12 49 -11 24 -28 -30z"/>
<path d="M8903 7660 c0 -94 1 -98 6 -35 l6 69 28 -33 c15 -19 31 -31 34 -27 4
3 -10 23 -29 44 -20 20 -38 48 -41 62 -2 14 -4 -22 -4 -80z"/>
<path d="M10210 7740 c11 -20 30 -28 30 -12 0 11 -22 32 -32 32 -5 0 -4 -9 2
-20z"/>
<path d="M10296 7735 c-14 -22 -24 -25 -79 -27 -56 -1 -58 -2 -14 -5 47 -4 47
-4 47 -40 l0 -36 -50 5 c-27 3 -50 1 -50 -3 0 -5 23 -9 51 -9 l50 0 -17 -30
c-10 -16 -30 -34 -46 -41 -25 -10 -39 -29 -22 -29 18 0 72 43 82 65 l12 26 26
-31 c30 -36 80 -64 89 -51 3 5 -4 12 -15 16 -25 8 -80 53 -80 66 0 5 23 9 50
9 28 0 50 4 50 8 0 5 -25 7 -55 4 l-55 -4 0 36 0 36 48 2 c36 1 39 2 15 5 -38
5 -40 9 -16 35 9 10 11 18 6 18 -6 0 -18 -11 -27 -25z"/>
<path d="M10530 7730 c0 -29 1 -30 50 -30 49 0 50 1 50 30 0 29 -1 30 -50 30
-49 0 -50 -1 -50 -30z m85 0 c0 -10 -12 -16 -32 -18 -28 -3 -33 0 -33 18 0 18
5 21 33 18 20 -2 32 -8 32 -18z"/>
<path d="M10826 7737 c-3 -13 -17 -35 -30 -50 -14 -15 -21 -29 -16 -32 5 -3
17 6 26 20 9 14 20 25 25 25 5 0 9 -43 9 -96 0 -52 4 -93 8 -90 5 3 7 19 4 36
-4 30 -4 30 42 30 25 0 46 5 46 10 0 6 -20 10 -45 10 -38 0 -45 3 -45 20 0 17
7 20 40 20 22 0 40 3 40 8 0 4 -17 7 -37 7 -31 0 -39 4 -41 22 -3 20 2 22 50
26 l53 3 -57 2 c-59 2 -72 14 -46 40 9 9 8 12 -4 12 -9 0 -18 -10 -22 -23z"/>
<path d="M966 7715 c14 -19 31 -35 36 -35 5 0 -4 16 -19 35 -36 46 -52 46 -17
0z"/>
<path d="M1057 7699 c-8 -68 -35 -120 -74 -144 -18 -11 -32 -23 -33 -27 0 -17
22 -6 59 27 l39 36 26 -33 c13 -18 28 -29 32 -25 4 4 -7 22 -24 40 -28 29 -31
37 -23 63 13 41 21 114 11 114 -4 0 -10 -23 -13 -51z"/>
<path d="M4815 7741 l-40 -6 -1 -73 c0 -58 -5 -78 -22 -101 -12 -17 -18 -33
-12 -36 15 -9 42 42 48 90 4 42 7 45 33 45 l29 0 0 -70 c0 -38 3 -70 8 -70 4
0 7 30 7 67 0 63 2 67 25 74 17 5 5 7 -37 8 l-63 1 0 30 c0 29 2 30 43 30 23
0 49 5 57 10 17 11 -6 11 -75 1z"/>
<path d="M5528 7648 c-2 -57 -7 -112 -12 -123 -7 -20 -7 -20 8 -1 9 11 19 35
22 53 6 31 9 34 38 31 28 -3 31 -7 34 -40 4 -51 22 -48 22 3 0 39 1 40 33 37
27 -3 32 -7 35 -33 3 -18 -2 -33 -13 -41 -9 -7 -12 -14 -8 -17 24 -15 32 14
35 121 l3 112 -97 0 -97 0 -3 -102z m92 62 c0 -28 -3 -30 -35 -30 -32 0 -35 2
-35 30 0 28 3 30 35 30 32 0 35 -2 35 -30z m88 -2 c3 -26 1 -28 -32 -28 -33 0
-36 2 -36 31 0 28 2 30 33 27 27 -2 33 -8 35 -30z m-88 -63 c0 -22 -4 -25 -35
-25 -31 0 -35 3 -35 25 0 22 4 25 35 25 31 0 35 -3 35 -25z m90 0 c0 -22 -4
-25 -35 -25 -31 0 -35 3 -35 25 0 22 4 25 35 25 31 0 35 -3 35 -25z"/>
<path d="M7620 7740 c0 -6 37 -10 90 -10 l90 0 0 -95 c0 -90 -1 -96 -22 -105
-21 -9 -20 -9 7 -7 l30 2 3 103 c3 101 3 102 27 102 14 0 25 5 25 10 0 6 -48
10 -125 10 -77 0 -125 -4 -125 -10z"/>
<path d="M7997 7715 c15 -19 32 -35 36 -35 10 0 0 18 -26 48 -33 36 -41 25
-10 -13z"/>
<path d="M8090 7711 c0 -62 -19 -103 -68 -148 -26 -24 -41 -43 -34 -43 6 0 29
16 51 35 l39 35 26 -31 c15 -17 30 -29 33 -25 4 3 -7 21 -24 39 -23 24 -29 37
-23 52 15 39 22 125 11 125 -6 0 -11 -17 -11 -39z"/>
<path d="M8540 7740 c0 -5 16 -10 35 -10 26 0 35 -4 35 -16 0 -13 -7 -15 -30
-10 l-30 6 0 -50 c0 -49 1 -50 30 -50 19 0 30 -5 30 -14 0 -21 -20 -30 -33
-17 -6 6 -17 11 -25 11 -9 0 -6 -7 9 -19 l23 -18 -30 -16 c-16 -9 -22 -16 -14
-17 9 0 25 7 36 14 18 13 27 13 69 0 33 -9 52 -11 59 -4 7 7 1 10 -16 10 -15
0 -38 4 -51 9 -19 8 -23 15 -20 35 5 22 11 26 39 26 l34 0 0 50 0 50 -30 -6
c-23 -5 -30 -3 -30 10 0 12 10 16 40 16 22 0 40 5 40 10 0 6 -35 10 -85 10
-50 0 -85 -4 -85 -10z m70 -65 c0 -9 -9 -15 -25 -15 -16 0 -25 6 -25 15 0 9 9
15 25 15 16 0 25 -6 25 -15z m70 0 c0 -9 -9 -15 -25 -15 -16 0 -25 6 -25 15 0
9 9 15 25 15 16 0 25 -6 25 -15z m-70 -40 c0 -9 -9 -15 -25 -15 -16 0 -25 6
-25 15 0 9 9 15 25 15 16 0 25 -6 25 -15z m70 0 c0 -9 -9 -15 -25 -15 -16 0
-25 6 -25 15 0 9 9 15 25 15 16 0 25 -6 25 -15z"/>
<path d="M9020 7740 c0 -5 9 -10 20 -10 31 0 28 -57 -2 -63 l-23 -4 23 -2 c21
-1 23 -5 20 -43 -3 -36 -7 -43 -28 -48 -15 -3 -20 -9 -14 -13 7 -4 27 -2 45 4
39 13 67 35 32 24 -21 -6 -23 -3 -23 34 0 29 5 41 18 44 16 4 16 5 0 6 -27 2
-25 61 2 61 11 0 20 5 20 10 0 6 -20 10 -45 10 -25 0 -45 -4 -45 -10z"/>
<path d="M9120 7690 l0 -60 30 0 c20 0 30 -5 30 -15 0 -10 -10 -15 -30 -15
-16 0 -30 -4 -30 -10 0 -5 13 -7 30 -3 27 5 30 3 30 -20 0 -23 -4 -26 -42 -29
-27 -2 -10 -5 45 -8 48 -3 87 -2 87 3 0 4 -18 7 -41 7 -36 0 -40 2 -37 23 2
17 9 22 31 22 15 -1 27 3 27 7 0 4 -13 8 -30 8 -20 0 -30 5 -30 15 0 10 10 15
30 15 l30 0 0 60 0 60 -65 0 -65 0 0 -60z m58 28 c-5 -34 -38 -37 -38 -4 0 20
5 26 21 26 15 0 20 -5 17 -22z m57 -3 c0 -30 -39 -27 -43 3 -3 20 0 23 20 20
15 -2 23 -10 23 -23z m-57 -52 c-5 -26 -38 -29 -38 -4 0 15 6 21 21 21 14 0
19 -5 17 -17z m60 0 c-2 -10 -12 -18 -23 -18 -11 0 -21 8 -23 18 -3 13 3 17
23 17 20 0 26 -4 23 -17z"/>
<path d="M9330 7725 c13 -14 26 -23 28 -20 7 7 -29 45 -41 45 -6 0 0 -11 13
-25z"/>
<path d="M9610 7740 c-17 -5 -19 -8 -7 -9 25 -1 23 -41 -3 -41 -11 0 -20 -5
-20 -11 0 -6 9 -9 19 -6 15 4 19 0 18 -17 -3 -64 4 -146 13 -146 6 0 10 27 10
61 0 54 2 60 15 49 8 -7 15 -8 15 -2 0 5 -7 15 -15 22 -23 19 -19 43 5 35 11
-4 20 -2 20 4 0 6 -9 11 -20 11 -26 0 -28 46 -2 53 14 4 13 5 -3 5 -11 0 -31
-4 -45 -8z"/>
<path d="M9690 7710 l0 -40 60 0 60 0 0 40 0 40 -60 0 -60 0 0 -40z m105 0 c0
-22 -5 -25 -42 -28 -42 -3 -43 -2 -43 28 0 30 1 31 43 28 37 -3 42 -6 42 -28z"/>
<path d="M3108 7629 c-2 -61 0 -113 5 -116 4 -2 7 3 7 11 0 12 10 16 40 16 22
0 40 -4 40 -10 0 -5 5 -10 10 -10 6 0 10 43 10 110 l0 110 -54 0 -55 0 -3
-111z m92 76 c0 -22 -4 -25 -40 -25 -36 0 -40 3 -40 25 0 23 4 25 40 25 36 0
40 -2 40 -25z m0 -60 c0 -22 -4 -25 -40 -25 -36 0 -40 3 -40 25 0 23 4 25 40
25 36 0 40 -2 40 -25z m0 -65 c0 -28 -2 -30 -40 -30 -38 0 -40 2 -40 30 0 28
2 30 40 30 38 0 40 -2 40 -30z"/>
<path d="M4411 7688 c1 -55 5 -50 11 15 2 20 0 37 -4 37 -4 0 -7 -24 -7 -52z"/>
<path d="M4670 7650 c0 -53 4 -90 10 -90 6 0 10 7 10 15 0 8 9 15 20 15 11 0
20 -4 20 -10 0 -5 5 -10 10 -10 6 0 10 35 10 85 l0 85 -40 0 -40 0 0 -90z m60
15 c0 -58 -2 -65 -20 -65 -18 0 -20 7 -20 65 0 58 2 65 20 65 18 0 20 -7 20
-65z"/>
<path d="M6790 7728 c0 -5 18 -8 39 -8 l39 0 -10 -41 -11 -41 -23 29 c-28 34
-32 16 -4 -19 l20 -26 -30 -41 c-35 -48 -23 -56 14 -8 26 32 35 31 49 -8 3 -5
8 -7 12 -3 4 4 -1 20 -11 37 -15 25 -16 35 -6 69 19 63 17 67 -33 67 -25 0
-45 -3 -45 -7z"/>
<path d="M9980 7623 c1 -100 3 -115 14 -100 15 20 82 24 89 5 3 -7 6 38 6 100
l1 112 -55 0 -55 0 0 -117z m100 82 c0 -22 -4 -25 -40 -25 -36 0 -40 3 -40 25
0 23 4 25 40 25 36 0 40 -2 40 -25z m0 -60 c0 -22 -4 -25 -40 -25 -36 0 -40 3
-40 25 0 23 4 25 40 25 36 0 40 -2 40 -25z m0 -65 c0 -28 -2 -30 -40 -30 -38
0 -40 2 -40 30 0 28 2 30 40 30 38 0 40 -2 40 -30z"/>
<path d="M888 7638 c-2 -51 -2 -95 0 -97 4 -7 82 72 82 83 0 5 -13 -2 -28 -17
-15 -15 -32 -27 -36 -27 -5 0 -6 34 -4 75 3 41 1 75 -3 75 -4 0 -9 -42 -11
-92z"/>
<path d="M7918 7638 c-2 -51 -2 -95 0 -97 4 -7 82 72 82 83 0 5 -13 -3 -30
-19 l-30 -29 0 77 c0 109 -18 96 -22 -15z"/>
<path d="M1195 7681 c-11 -5 -26 -6 -32 -4 -10 4 -13 -18 -13 -91 0 -57 4 -96
10 -96 6 0 10 17 10 37 0 29 3 34 12 25 18 -18 63 -14 81 6 20 22 22 81 5 104
-17 21 -48 28 -73 19z m49 -27 c19 -18 21 -65 4 -82 -46 -46 -105 32 -61 80
20 22 37 23 57 2z"/>
<path d="M1352 7674 c-12 -8 -22 -10 -22 -5 0 6 -4 11 -10 11 -6 0 -10 -30
-10 -70 0 -40 4 -70 10 -70 6 0 10 13 10 29 0 44 18 82 40 88 11 3 20 12 20
19 0 18 -10 18 -38 -2z"/>
<path d="M1440 7679 c-13 -6 -28 -15 -32 -22 -13 -20 -9 -71 8 -95 19 -28 74
-30 97 -4 17 19 23 78 9 98 -6 10 -47 35 -54 33 -2 0 -14 -5 -28 -10z m54 -25
c19 -18 21 -65 4 -82 -7 -7 -21 -12 -33 -12 -44 0 -61 56 -28 92 20 22 37 23
57 2z"/>
<path d="M1595 7678 c-29 -16 -35 -28 -35 -69 0 -41 24 -69 59 -69 31 0 61 18
61 35 0 19 -16 19 -24 0 -7 -18 -47 -20 -64 -3 -17 17 -15 64 4 82 20 20 33
20 56 -1 10 -9 21 -13 26 -9 8 9 -34 46 -52 46 -6 0 -20 -6 -31 -12z"/>
<path d="M1745 7678 c-28 -16 -35 -28 -35 -63 0 -43 25 -75 59 -75 31 0 70 24
58 36 -4 4 -13 2 -19 -4 -25 -25 -78 -8 -78 25 0 9 17 13 56 13 53 0 55 1 49
23 -14 43 -55 65 -90 45z m53 -20 c22 -22 13 -38 -22 -38 -41 0 -56 18 -31 37
23 16 37 17 53 1z"/>
<path d="M1883 7680 c-25 -10 -30 -42 -10 -57 6 -6 26 -15 42 -20 41 -13 46
-43 8 -43 -16 0 -34 5 -41 12 -17 17 -28 2 -12 -17 15 -18 71 -20 88 -3 7 7
12 22 12 34 0 17 -10 26 -42 37 -44 14 -57 39 -25 45 10 2 27 -4 38 -14 10 -9
22 -14 27 -10 8 9 -34 46 -52 45 -6 0 -21 -4 -33 -9z"/>
<path d="M2023 7680 c-25 -10 -30 -42 -10 -57 6 -6 26 -15 42 -20 41 -13 46
-43 8 -43 -16 0 -34 5 -41 12 -17 17 -28 2 -12 -17 15 -18 71 -20 88 -3 7 7
12 22 12 34 0 17 -10 26 -42 37 -44 14 -57 39 -25 45 10 2 27 -4 38 -14 10 -9
22 -14 27 -10 8 9 -34 46 -52 45 -6 0 -21 -4 -33 -9z"/>
<path d="M4550 7683 c0 -12 38 -48 45 -41 3 2 -6 15 -20 28 -14 13 -25 19 -25
13z"/>
<path d="M5831 7681 c-8 -5 -20 -7 -28 -4 -10 4 -13 -15 -13 -91 0 -57 4 -96
10 -96 6 0 10 13 10 29 0 28 2 29 34 24 42 -7 76 23 76 66 0 49 -55 93 -89 72z
m55 -36 c32 -49 -19 -110 -62 -75 -20 18 -18 77 4 89 27 16 40 13 58 -14z"/>
<path d="M5992 7674 c-12 -8 -22 -10 -22 -5 0 6 -4 11 -10 11 -6 0 -10 -30
-10 -70 0 -40 4 -70 10 -70 6 0 10 18 10 41 0 47 14 79 35 79 8 0 15 7 15 15
0 19 0 19 -28 -1z"/>
<path d="M6072 7680 c-44 -18 -54 -87 -16 -124 22 -22 70 -20 94 4 53 53 -8
147 -78 120z m65 -41 c17 -34 6 -68 -24 -75 -48 -13 -78 63 -37 93 26 19 47
13 61 -18z"/>
<path d="M6233 7680 c-31 -12 -46 -46 -38 -86 6 -36 29 -54 68 -54 22 0 57 27
57 43 0 14 -28 7 -34 -8 -3 -8 -17 -15 -31 -15 -47 0 -55 86 -10 104 22 8 21
8 39 -10 21 -21 41 -14 24 8 -17 21 -48 29 -75 18z"/>
<path d="M6382 7680 c-43 -18 -52 -88 -16 -124 22 -22 67 -20 89 4 16 18 16
20 2 20 -10 0 -17 -5 -17 -11 0 -6 -14 -9 -32 -7 -25 2 -34 8 -36 26 -3 20 0
22 47 22 44 0 51 3 51 19 0 11 -12 29 -26 40 -30 23 -30 23 -62 11z m52 -26
c22 -22 11 -34 -30 -34 -35 0 -44 16 -22 38 16 16 34 15 52 -4z"/>
<path d="M6518 7679 c-10 -5 -18 -21 -18 -34 0 -19 8 -26 43 -37 23 -8 42 -21
42 -29 0 -18 -55 -25 -66 -8 -4 8 -11 10 -15 6 -15 -15 20 -38 54 -35 68 6 69
60 2 82 -37 12 -47 38 -17 44 10 2 27 -4 38 -14 17 -15 19 -15 19 -1 0 30 -49
46 -82 26z"/>
<path d="M6658 7679 c-10 -5 -18 -21 -18 -34 0 -19 8 -26 43 -37 23 -8 42 -21
42 -29 0 -18 -55 -25 -66 -8 -4 8 -11 10 -15 6 -15 -15 20 -38 54 -35 68 6 69
60 2 82 -37 12 -47 38 -17 44 10 2 27 -4 38 -14 17 -15 19 -15 19 -1 0 30 -49
46 -82 26z"/>
<path d="M7661 7628 c1 -35 3 -55 6 -45 3 12 15 17 39 17 19 0 34 -4 34 -10 0
-5 5 -10 10 -10 6 0 10 25 10 55 l0 55 -50 0 -50 0 1 -62z m79 17 c0 -33 -2
-35 -35 -35 -33 0 -35 2 -35 35 0 33 2 35 35 35 33 0 35 -2 35 -35z"/>
<path d="M10510 7665 c0 -21 5 -25 30 -25 25 0 30 4 30 25 0 21 -5 25 -30 25
-25 0 -30 -4 -30 -25z m50 0 c0 -8 -9 -15 -20 -15 -20 0 -26 11 -13 23 12 13
33 7 33 -8z"/>
<path d="M10590 7666 c0 -23 4 -26 33 -26 29 0 33 3 32 23 -1 17 -9 23 -33 25
-28 3 -32 0 -32 -22z m50 -1 c0 -8 -9 -15 -20 -15 -20 0 -26 11 -13 23 12 13
33 7 33 -8z"/>
<path d="M9318 7663 c18 -4 22 -11 22 -46 0 -28 -7 -48 -22 -64 -20 -22 -13
-34 8 -13 6 6 24 4 49 -5 46 -16 175 -20 175 -5 0 6 -34 10 -81 10 -108 0
-119 7 -119 75 0 54 -1 55 -27 54 -24 -2 -25 -2 -5 -6z"/>
<path d="M4250 7652 c0 -18 23 -62 32 -62 5 0 1 15 -8 33 -20 39 -24 44 -24
29z"/>
<path d="M6925 7629 c9 -17 19 -29 21 -26 7 7 -18 57 -28 57 -5 0 -1 -14 7
-31z"/>
<path d="M3560 7640 c0 -5 17 -10 38 -9 33 1 34 2 12 9 -36 11 -50 11 -50 0z"/>
<path d="M9708 7633 c24 -3 32 -9 32 -25 0 -16 -5 -19 -25 -16 -14 3 -25 1
-25 -3 0 -5 11 -9 25 -9 18 0 25 -5 25 -19 0 -15 -8 -21 -37 -24 -21 -2 0 -4
47 -4 47 0 68 2 48 4 -30 3 -38 9 -38 24 0 14 7 19 25 19 14 0 25 4 25 9 0 4
-11 6 -25 3 -20 -3 -25 0 -25 16 0 16 8 22 33 25 17 2 -2 4 -43 4 -41 0 -60
-2 -42 -4z"/>
<path d="M9587 7605 c-9 -13 -13 -26 -9 -29 9 -5 39 41 31 48 -2 2 -12 -6 -22
-19z"/>
<path d="M10570 7620 c0 -5 -17 -11 -37 -11 -36 -1 -37 -2 -9 -8 l30 -6 -33
-28 c-19 -15 -31 -31 -27 -34 3 -4 21 8 39 25 42 41 51 40 43 -2 -4 -20 -2
-37 4 -41 6 -4 10 10 10 38 l0 45 35 -35 c20 -20 39 -33 43 -29 3 4 -9 19 -28
34 l-34 27 29 6 c29 6 28 7 -7 8 -21 0 -38 6 -38 11 0 6 -4 10 -10 10 -5 0
-10 -4 -10 -10z"/>
<path d="M4420 7579 c0 -31 -4 -38 -22 -42 -13 -2 36 -4 107 -4 72 -1 122 1
113 4 -13 3 -18 15 -18 42 l0 38 -90 -1 -90 0 0 -37z m50 -9 c0 -23 -4 -30
-20 -30 -16 0 -20 7 -20 30 0 23 4 30 20 30 16 0 20 -7 20 -30z m60 0 c0 -23
-4 -30 -20 -30 -16 0 -20 7 -20 30 0 23 4 30 20 30 16 0 20 -7 20 -30z m50 0
c0 -23 -4 -30 -20 -30 -16 0 -20 7 -20 30 0 23 4 30 20 30 16 0 20 -7 20 -30z"/>
<path d="M4965 7600 c-3 -5 -3 -19 0 -31 10 -31 60 -23 60 11 0 20 -6 26 -27
28 -14 2 -29 -2 -33 -8z m45 -20 c0 -11 -7 -20 -15 -20 -8 0 -15 9 -15 20 0
11 7 20 15 20 8 0 15 -9 15 -20z"/>
<path d="M11004 7595 c-10 -25 4 -45 30 -45 25 0 39 20 30 45 -4 8 -17 15 -30
15 -14 0 -27 -7 -30 -15z m46 -9 c0 -8 -5 -18 -11 -22 -14 -8 -33 11 -25 25
10 16 36 13 36 -3z"/>
<path d="M7383 7556 c2 -32 3 -34 15 -19 15 20 12 45 -5 50 -8 3 -11 -8 -10
-31z"/>
<path d="M1420 7130 c0 -6 -11 -16 -25 -22 -14 -6 -25 -15 -25 -20 0 -4 11 -8
25 -8 24 0 25 -2 25 -70 0 -40 4 -70 10 -70 6 0 10 40 10 100 0 60 -4 100 -10
100 -5 0 -10 -5 -10 -10z"/>
<path d="M1500 6955 c0 -8 7 -15 15 -15 8 0 15 7 15 15 0 8 -7 15 -15 15 -8 0
-15 -7 -15 -15z"/>
<path d="M2167 6652 c-22 -24 -21 -45 1 -65 24 -22 45 -21 65 1 22 24 21 45
-1 65 -24 22 -45 21 -65 -1z m58 -32 c0 -18 -6 -26 -23 -28 -24 -4 -38 18 -28
44 3 9 15 14 28 12 17 -2 23 -10 23 -28z"/>
<path d="M2167 6252 c-22 -24 -21 -45 1 -65 24 -22 45 -21 65 1 22 24 21 45
-1 65 -24 22 -45 21 -65 -1z m58 -32 c0 -18 -6 -26 -23 -28 -24 -4 -38 18 -28
44 3 9 15 14 28 12 17 -2 23 -10 23 -28z"/>
<path d="M2167 5852 c-22 -24 -21 -45 1 -65 24 -22 45 -21 65 1 22 24 21 45
-1 65 -24 22 -45 21 -65 -1z m58 -32 c0 -18 -6 -26 -23 -28 -24 -4 -38 18 -28
44 3 9 15 14 28 12 17 -2 23 -10 23 -28z"/>
<path d="M1383 5525 c-24 -17 -37 -55 -18 -55 7 0 15 9 18 20 12 44 67 31 67
-16 0 -17 -12 -31 -40 -49 -37 -24 -60 -51 -60 -74 0 -7 26 -11 65 -11 37 0
65 4 65 10 0 6 -23 10 -51 10 -60 0 -61 12 -4 51 60 41 69 100 18 120 -32 12
-35 12 -60 -6z"/>
<path d="M1500 5355 c0 -8 7 -15 15 -15 8 0 15 7 15 15 0 8 -7 15 -15 15 -8 0
-15 -7 -15 -15z"/>
<path d="M2167 5052 c-22 -24 -21 -45 1 -65 24 -22 45 -21 65 1 22 24 21 45
-1 65 -24 22 -45 21 -65 -1z m58 -32 c0 -18 -6 -26 -23 -28 -24 -4 -38 18 -28
44 3 9 15 14 28 12 17 -2 23 -10 23 -28z"/>
<path d="M2167 4652 c-22 -24 -21 -45 1 -65 24 -22 45 -21 65 1 22 24 21 45
-1 65 -24 22 -45 21 -65 -1z m58 -32 c0 -18 -6 -26 -23 -28 -24 -4 -38 18 -28
44 3 9 15 14 28 12 17 -2 23 -10 23 -28z"/>
<path d="M2167 4252 c-22 -24 -21 -45 1 -65 24 -22 45 -21 65 1 22 24 21 45
-1 65 -24 22 -45 21 -65 -1z m58 -32 c0 -18 -6 -26 -23 -28 -24 -4 -38 18 -28
44 3 9 15 14 28 12 17 -2 23 -10 23 -28z"/>
<path d="M1383 3925 c-13 -9 -23 -23 -23 -31 0 -20 9 -18 30 9 15 18 22 20 37
11 25 -16 22 -46 -6 -61 l-25 -12 27 -6 c30 -8 44 -39 27 -60 -18 -21 -58 -18
-72 5 -15 23 -28 26 -28 7 0 -23 35 -47 67 -47 52 0 83 59 48 94 -9 9 -11 17
-5 21 12 7 13 45 2 62 -13 20 -56 25 -79 8z"/>
<path d="M1500 3755 c0 -8 7 -15 15 -15 8 0 15 7 15 15 0 8 -7 15 -15 15 -8 0
-15 -7 -15 -15z"/>
<path d="M2167 3452 c-22 -24 -21 -45 1 -65 24 -22 45 -21 65 1 22 24 21 45
-1 65 -24 22 -45 21 -65 -1z m58 -32 c0 -18 -6 -26 -23 -28 -24 -4 -38 18 -28
44 3 9 15 14 28 12 17 -2 23 -10 23 -28z"/>
<path d="M2167 3052 c-22 -24 -21 -45 1 -65 24 -22 45 -21 65 1 22 24 21 45
-1 65 -24 22 -45 21 -65 -1z m58 -32 c0 -18 -6 -26 -23 -28 -24 -4 -38 18 -28
44 3 9 15 14 28 12 17 -2 23 -10 23 -28z"/>
<path d="M2167 2652 c-22 -24 -21 -45 1 -65 24 -22 45 -21 65 1 22 24 21 45
-1 65 -24 22 -45 21 -65 -1z m58 -32 c0 -18 -6 -26 -23 -28 -24 -4 -38 18 -28
44 3 9 15 14 28 12 17 -2 23 -10 23 -28z"/>
<path d="M2167 2252 c-22 -24 -21 -45 1 -65 24 -22 45 -21 65 1 22 24 21 45
-1 65 -24 22 -45 21 -65 -1z m58 -32 c0 -18 -6 -26 -23 -28 -24 -4 -38 18 -28
44 3 9 15 14 28 12 17 -2 23 -10 23 -28z"/>
<path d="M2167 1852 c-22 -24 -21 -45 1 -65 24 -22 45 -21 65 1 22 24 21 45
-1 65 -24 22 -45 21 -65 -1z m58 -32 c0 -18 -6 -26 -23 -28 -24 -4 -38 18 -28
44 3 9 15 14 28 12 17 -2 23 -10 23 -28z"/>
<path d="M2167 1452 c-22 -24 -21 -45 1 -65 24 -22 45 -21 65 1 22 24 21 45
-1 65 -24 22 -45 21 -65 -1z m58 -32 c0 -18 -6 -26 -23 -28 -24 -4 -38 18 -28
44 3 9 15 14 28 12 17 -2 23 -10 23 -28z"/>
<path d="M2167 1052 c-22 -24 -21 -45 1 -65 24 -22 45 -21 65 1 22 24 21 45
-1 65 -24 22 -45 21 -65 -1z m58 -32 c0 -18 -6 -26 -23 -28 -24 -4 -38 18 -28
44 3 9 15 14 28 12 17 -2 23 -10 23 -28z"/>
<path d="M2167 652 c-22 -24 -21 -45 1 -65 24 -22 45 -21 65 1 22 24 21 45 -1
65 -24 22 -45 21 -65 -1z m58 -32 c0 -18 -6 -26 -23 -28 -13 -2 -25 3 -28 12
-10 26 4 48 28 44 17 -2 23 -10 23 -28z"/>
<path d="M2167 252 c-22 -24 -21 -45 1 -65 24 -22 45 -21 65 1 22 24 21 45 -1
65 -24 22 -45 21 -65 -1z m58 -32 c0 -18 -6 -26 -23 -28 -24 -4 -38 18 -28 44
3 9 15 14 28 12 17 -2 23 -10 23 -28z"/>
</g>
</svg>
