<?xml version="1.0" standalone="no"?>
<!DOCTYPE svg PUBLIC "-//W3C//DTD SVG 20010904//EN"
 "http://www.w3.org/TR/2001/REC-SVG-20010904/DTD/svg10.dtd">
<svg version="1.0" xmlns="http://www.w3.org/2000/svg"
 width="1030.000000pt" height="188.000000pt" viewBox="0 0 1030.000000 188.000000"
 preserveAspectRatio="xMidYMid meet">
<metadata>
Created by potrace 1.14, written by Peter Selinger 2001-2017
</metadata>
<g transform="translate(0.000000,188.000000) scale(0.100000,-0.100000)"
fill="#000000" stroke="none">
<path d="M260 910 l0 -780 4910 0 4910 0 0 780 0 780 -4910 0 -4910 0 0 -780z
m1215 385 l0 -370 -597 -3 -598 -2 0 375 0 375 598 -2 597 -3 0 -370z m1220 0
l0 -370 -597 -3 -598 -2 0 375 0 375 598 -2 597 -3 0 -370z m1240 0 l0 -370
-607 -3 -608 -2 0 375 0 375 608 -2 607 -3 0 -370z m1220 0 l0 -370 -597 -3
-598 -2 0 375 0 375 598 -2 597 -3 0 -370z m1220 0 l0 -370 -597 -3 -598 -2 0
375 0 375 598 -2 597 -3 0 -370z m1220 0 l0 -370 -597 -3 -598 -2 0 375 0 375
598 -2 597 -3 0 -370z m1240 0 l0 -370 -607 -3 -608 -2 0 375 0 375 608 -2
607 -3 0 -370z m1220 0 l0 -370 -597 -3 -598 -2 0 375 0 375 598 -2 597 -3 0
-370z m-8580 -770 l0 -370 -597 -3 -598 -2 0 375 0 375 598 -2 597 -3 0 -370z
m1220 0 l0 -370 -597 -3 -598 -2 0 375 0 375 598 -2 597 -3 0 -370z m1240 0
l0 -370 -607 -3 -608 -2 0 375 0 375 608 -2 607 -3 0 -370z m1220 0 l0 -370
-597 -3 -598 -2 0 375 0 375 598 -2 597 -3 0 -370z m1220 0 l0 -370 -597 -3
-598 -2 0 375 0 375 598 -2 597 -3 0 -370z m1220 0 l0 -370 -597 -3 -598 -2 0
375 0 375 598 -2 597 -3 0 -370z m1240 0 l0 -370 -607 -3 -608 -2 0 375 0 375
608 -2 607 -3 0 -370z m1220 0 l0 -370 -597 -3 -598 -2 0 375 0 375 598 -2
597 -3 0 -370z"/>
<path d="M693 1389 c-5 -8 -34 -57 -62 -110 -42 -79 -55 -96 -70 -92 -42 11
-32 113 11 113 10 0 18 5 18 10 0 18 -29 11 -42 -10 -7 -11 -16 -20 -19 -20
-4 0 -9 9 -12 20 -3 11 -13 20 -22 20 -9 0 -13 -5 -10 -10 22 -35 23 -70 3
-95 -10 -14 -28 -25 -39 -25 -10 0 -19 -4 -19 -10 0 -20 35 -9 56 18 l22 27
11 -29 c9 -21 16 -27 31 -23 10 3 21 0 24 -7 3 -7 11 -4 21 9 28 34 117 205
113 216 -2 7 -7 6 -15 -2z"/>
<path d="M744 1301 c-39 -24 -61 -79 -44 -111 14 -26 72 -28 91 -2 11 14 11
15 -1 5 -8 -7 -24 -13 -37 -13 -41 0 -40 72 2 113 21 21 45 22 45 2 0 -17 16
-20 25 -6 5 9 -24 31 -42 31 -4 0 -22 -9 -39 -19z"/>
<path d="M866 1313 c-13 -4 -15 -7 -7 -13 10 -5 9 -19 -3 -60 -19 -63 -19 -70
-6 -70 5 0 17 17 26 38 17 40 28 113 16 111 -4 -1 -16 -4 -26 -6z"/>
<path d="M920 1293 c-22 -25 -22 -26 -2 -9 30 26 38 14 23 -36 -7 -24 -15 -51
-17 -60 -3 -11 0 -18 9 -18 15 0 40 68 41 115 1 40 -23 43 -54 8z"/>
<path d="M1008 1298 c-13 -13 -16 -17 -6 -9 26 21 32 8 19 -43 -6 -25 -11 -52
-11 -60 0 -23 24 -19 46 7 10 12 12 16 4 10 -26 -23 -29 -14 -14 38 23 77 7
100 -38 57z"/>
<path d="M1715 1376 c-32 -32 -42 -101 -20 -151 18 -44 30 -55 61 -55 68 0 95
150 38 207 -29 29 -49 29 -79 -1z m59 -2 c19 -18 23 -143 6 -175 -22 -40 -56
-14 -60 46 -5 68 1 114 16 129 8 9 17 16 19 16 2 0 11 -7 19 -16z"/>
<path d="M2970 1385 c-14 -8 -19 -14 -12 -15 17 0 17 -186 0 -193 -7 -3 7 -5
32 -5 25 0 37 2 28 5 -15 4 -18 20 -20 113 l-3 108 -25 -13z"/>
<path d="M4172 1384 c-12 -8 -22 -20 -22 -27 0 -8 3 -8 12 1 7 7 21 12 33 12
28 0 45 -19 45 -50 0 -29 -18 -59 -69 -112 l-35 -38 66 0 c61 0 78 7 78 34 0
2 -20 -1 -45 -7 -25 -6 -48 -7 -52 -4 -4 4 7 22 24 40 67 72 79 111 43 147
-24 24 -48 25 -78 4z"/>
<path d="M5402 1384 c-12 -8 -22 -20 -22 -25 0 -6 10 -3 22 5 15 11 26 12 40
5 26 -14 20 -60 -9 -74 -21 -11 -21 -11 6 -22 34 -12 44 -44 24 -72 -12 -18
-21 -20 -55 -15 -30 5 -39 4 -34 -4 4 -7 24 -12 45 -12 67 0 108 77 62 116
-17 15 -18 18 -3 44 15 27 15 30 -2 49 -23 25 -44 26 -74 5z"/>
<path d="M6693 1388 c-4 -7 -6 -41 -4 -75 l3 -63 -36 0 c-20 0 -36 4 -36 8 0
4 14 27 31 50 17 24 29 45 26 48 -7 7 -77 -96 -77 -113 0 -9 15 -13 45 -13 43
0 45 -1 45 -30 0 -20 5 -30 15 -30 10 0 15 10 15 30 0 20 5 30 15 30 8 0 15 5
15 10 0 6 -7 10 -15 10 -12 0 -15 15 -15 75 0 71 -9 91 -27 63z"/>
<path d="M7867 1354 c-19 -39 -15 -54 12 -54 24 0 61 -41 61 -68 0 -30 -42
-57 -69 -43 -26 14 -31 14 -31 -4 0 -11 11 -15 35 -15 76 0 113 85 59 135 -15
14 -33 25 -41 25 -8 0 -13 7 -11 18 2 12 14 18 41 20 49 4 48 22 -1 22 -34 0
-40 -4 -55 -36z"/>
<path d="M9143 1384 c-98 -49 -98 -222 0 -212 65 6 82 119 21 134 -13 3 -31 4
-39 0 -8 -3 -15 0 -15 7 0 22 32 59 64 73 17 7 24 13 16 13 -8 0 -30 -7 -47
-15z m6 -94 c40 -21 32 -110 -9 -110 -47 0 -57 108 -12 119 2 1 11 -3 21 -9z"/>
<path d="M688 610 c-43 -68 -118 -214 -112 -219 8 -8 28 21 85 127 28 51 49
98 47 104 -3 8 -11 2 -20 -12z"/>
<path d="M467 544 c-3 -4 0 -12 7 -19 7 -7 18 -38 25 -68 11 -49 10 -59 -5
-82 -11 -18 -24 -25 -36 -22 -19 6 -34 -8 -19 -17 16 -11 40 5 70 46 23 31 28
45 21 62 -5 11 -14 40 -20 64 -10 38 -26 52 -43 36z"/>
<path d="M556 542 c-2 -4 2 -16 10 -27 13 -18 14 -18 14 8 0 25 -13 36 -24 19z"/>
<path d="M744 531 c-39 -24 -61 -79 -44 -111 14 -26 72 -28 91 -2 11 14 11 15
-1 5 -8 -7 -24 -13 -37 -13 -41 0 -40 72 2 113 21 21 45 22 45 2 0 -17 16 -20
25 -6 5 9 -24 31 -42 31 -4 0 -22 -9 -39 -19z"/>
<path d="M866 543 c-13 -4 -15 -7 -7 -13 10 -5 9 -19 -3 -60 -19 -63 -19 -70
-6 -70 5 0 17 17 26 38 17 40 28 113 16 111 -4 -1 -16 -4 -26 -6z"/>
<path d="M920 523 c-22 -25 -22 -26 -2 -9 30 26 38 14 23 -36 -7 -24 -15 -51
-17 -60 -3 -11 0 -18 9 -18 15 0 40 68 41 115 1 40 -23 43 -54 8z"/>
<path d="M1008 528 c-13 -13 -16 -17 -6 -9 26 21 32 8 19 -43 -6 -25 -11 -52
-11 -60 0 -23 24 -19 46 7 10 12 12 16 4 10 -26 -23 -29 -14 -14 38 23 77 7
100 -38 57z"/>
<path d="M551 463 c-10 -26 -10 -27 4 -9 8 11 15 23 15 28 0 15 -7 8 -19 -19z"/>
<path d="M1715 606 c-32 -32 -42 -101 -20 -151 18 -44 30 -55 61 -55 68 0 95
150 38 207 -29 29 -49 29 -79 -1z m59 -2 c19 -18 23 -143 6 -175 -22 -40 -56
-14 -60 46 -5 68 1 114 16 129 8 9 17 16 19 16 2 0 11 -7 19 -16z"/>
<path d="M2942 614 c-12 -8 -22 -20 -22 -27 0 -8 3 -8 12 1 7 7 21 12 33 12
28 0 45 -19 45 -50 0 -29 -18 -59 -69 -112 l-35 -38 66 0 c61 0 78 7 78 34 0
2 -20 -1 -45 -7 -25 -6 -48 -7 -52 -4 -4 4 7 22 24 40 67 72 79 111 43 147
-24 24 -48 25 -78 4z"/>
<path d="M3212 623 c-43 -17 -58 -150 -21 -197 39 -49 101 -23 115 48 16 90
-35 173 -94 149z m47 -17 c17 -20 25 -105 14 -145 -12 -46 -39 -63 -59 -37
-20 28 -19 144 2 174 18 26 27 27 43 8z"/>
<path d="M3100 415 c0 -8 7 -15 15 -15 8 0 15 7 15 15 0 8 -7 15 -15 15 -8 0
-15 -7 -15 -15z"/>
<path d="M4172 614 c-12 -8 -22 -20 -22 -27 0 -8 3 -8 12 1 7 7 21 12 33 12
28 0 45 -19 45 -50 0 -29 -18 -59 -69 -112 l-35 -38 66 0 c61 0 78 7 78 34 0
2 -20 -1 -45 -7 -25 -6 -48 -7 -52 -4 -4 4 7 22 24 40 67 72 79 111 43 147
-24 24 -48 25 -78 4z"/>
<path d="M4432 623 c-7 -2 -17 -14 -23 -25 -11 -20 -10 -20 11 -5 17 12 28 13
42 6 25 -13 23 -54 -4 -73 -18 -13 -19 -16 -6 -16 18 0 48 -36 48 -57 0 -26
-31 -44 -66 -37 -22 4 -34 2 -34 -5 0 -20 74 -13 98 9 29 27 30 83 2 103 -18
13 -19 16 -5 27 44 36 -7 96 -63 73z"/>
<path d="M4330 415 c0 -8 7 -15 15 -15 8 0 15 7 15 15 0 8 -7 15 -15 15 -8 0
-15 -7 -15 -15z"/>
<path d="M5402 614 c-12 -8 -22 -20 -22 -27 0 -8 3 -8 12 1 7 7 21 12 33 12
28 0 45 -19 45 -50 0 -29 -18 -59 -69 -112 l-35 -38 66 0 c61 0 78 7 78 34 0
2 -20 -1 -45 -7 -25 -6 -48 -7 -52 -4 -4 4 7 22 24 40 67 72 79 111 43 147
-24 24 -48 25 -78 4z"/>
<path d="M5680 615 c-14 -8 -19 -14 -12 -15 9 0 12 -26 12 -94 0 -66 -4 -96
-12 -99 -7 -3 7 -5 32 -5 25 0 37 2 28 5 -15 4 -18 20 -20 113 l-3 108 -25
-13z"/>
<path d="M5555 421 c-7 -12 12 -24 25 -16 11 7 4 25 -10 25 -5 0 -11 -4 -15
-9z"/>
<path d="M7865 606 c-32 -32 -42 -101 -20 -151 18 -44 30 -55 61 -55 68 0 95
150 38 207 -29 29 -49 29 -79 -1z m59 -2 c19 -18 23 -143 6 -175 -22 -40 -56
-14 -60 46 -5 68 1 114 16 129 8 9 17 16 19 16 2 0 11 -7 19 -16z"/>
<path d="M8114 607 c-52 -45 -23 -135 38 -123 16 3 28 3 28 0 0 -16 -36 -64
-54 -73 -16 -7 -17 -10 -5 -10 9 -1 28 8 43 20 60 47 76 140 31 184 -30 31
-47 31 -81 2z m60 -6 c12 -13 16 -32 14 -58 -3 -33 -7 -38 -30 -41 -22 -3 -28
2 -38 33 -10 30 -9 40 4 60 20 30 28 31 50 6z"/>
<path d="M8015 421 c-7 -12 12 -24 25 -16 11 7 4 25 -10 25 -5 0 -11 -4 -15
-9z"/>
<path d="M9095 606 c-32 -32 -42 -101 -20 -151 18 -44 30 -55 61 -55 68 0 95
150 38 207 -29 29 -49 29 -79 -1z m59 -2 c19 -18 23 -143 6 -175 -22 -40 -56
-14 -60 46 -5 68 1 114 16 129 8 9 17 16 19 16 2 0 11 -7 19 -16z"/>
</g>
</svg>
