<?xml version="1.0" standalone="no"?>
<!DOCTYPE svg PUBLIC "-//W3C//DTD SVG 20010904//EN"
 "http://www.w3.org/TR/2001/REC-SVG-20010904/DTD/svg10.dtd">
<svg version="1.0" xmlns="http://www.w3.org/2000/svg"
 width="358.000000pt" height="794.000000pt" viewBox="0 0 358.000000 794.000000"
 preserveAspectRatio="xMidYMid meet">
<metadata>
Created by potrace 1.14, written by Peter Selinger 2001-2017
</metadata>
<g transform="translate(0.000000,794.000000) scale(0.100000,-0.100000)"
fill="#000000" stroke="none">
<path d="M1728 7705 c-2 -3 -141 -5 -309 -5 -484 -2 -562 -16 -654 -119 -56
-63 -98 -167 -96 -236 2 -44 29 -125 59 -174 23 -37 83 -82 160 -119 56 -27
60 -27 267 -28 268 -2 253 0 260 -24 9 -27 -11 -50 -41 -50 -30 0 -32 -26 -6
-78 27 -54 47 -131 36 -142 -13 -13 -167 -20 -611 -29 -28 -1 -49 -7 -60 -20
-22 -23 -114 -125 -151 -167 -15 -17 -45 -52 -67 -78 -38 -45 -88 -102 -197
-225 -50 -55 -55 -65 -37 -77 12 -7 232 -7 755 2 365 6 394 4 394 -34 0 -23
-19 -42 -41 -42 -28 0 -33 -19 -16 -58 8 -21 21 -57 28 -82 7 -25 17 -51 22
-58 7 -9 6 -17 -4 -27 -11 -11 -113 -16 -521 -23 -279 -6 -512 -13 -517 -17
-16 -9 -8 -572 7 -587 10 -10 135 -12 526 -9 492 3 514 2 520 -16 7 -23 1 -72
-10 -83 -5 -4 -18 -10 -29 -12 -13 -2 -19 -11 -19 -23 3 -30 33 -137 46 -163
9 -18 9 -26 -4 -38 -13 -13 -62 -16 -309 -21 l-294 -5 -85 -89 c-47 -49 -116
-126 -155 -170 -38 -45 -94 -107 -123 -138 -85 -89 -135 -159 -128 -177 6 -15
24 -16 174 -10 304 11 931 11 944 -2 6 -6 8 -22 4 -36 -5 -19 -13 -26 -30 -26
-14 0 -26 -6 -29 -12 -5 -16 25 -135 42 -167 10 -17 10 -26 2 -34 -8 -8 -104
-14 -279 -18 -147 -4 -386 -10 -532 -14 -200 -5 -268 -10 -279 -20 -15 -15
-16 -90 -5 -472 6 -212 8 -223 27 -229 16 -5 409 2 617 11 125 6 448 5 463 -1
12 -4 17 -15 15 -33 -2 -20 -9 -27 -31 -29 -27 -3 -29 -5 -22 -40 4 -20 18
-64 31 -98 13 -33 24 -68 24 -77 0 -16 -131 -87 -162 -87 -7 0 -29 -10 -48
-22 -19 -12 -62 -32 -95 -44 -107 -39 -130 -49 -155 -66 -13 -10 -28 -18 -33
-18 -30 0 -363 -151 -405 -183 -16 -13 0 -33 36 -42 14 -3 47 -16 72 -27 25
-12 81 -33 125 -49 44 -15 116 -43 160 -62 44 -19 121 -49 172 -66 51 -17 107
-40 125 -51 18 -11 42 -20 53 -20 11 0 54 -17 95 -38 71 -35 75 -39 81 -77 8
-47 3 -65 -20 -65 -44 -1 -46 -14 -16 -115 24 -83 26 -98 14 -110 -14 -14
-168 -22 -498 -24 l-103 -1 -37 -38 c-83 -88 -149 -161 -191 -212 -53 -66
-194 -226 -227 -258 -13 -13 -23 -34 -23 -48 l0 -25 298 6 c163 3 371 8 462
10 91 2 209 1 263 -2 l98 -6 -3 -41 c-2 -32 -7 -42 -23 -44 -11 -2 -24 -8 -29
-12 -11 -11 7 -86 36 -152 11 -25 18 -53 15 -61 -7 -18 -72 -24 -285 -26 -203
-3 -258 -19 -341 -101 -48 -48 -74 -95 -91 -168 -15 -66 -9 -121 25 -204 28
-70 66 -107 162 -160 l58 -32 325 -1 c179 -1 409 2 511 5 180 6 188 7 234 34
76 45 124 95 161 168 30 60 34 76 34 147 0 72 -3 84 -30 124 -17 25 -30 49
-30 54 0 16 -73 79 -125 108 l-50 29 -250 5 -250 6 3 43 c2 24 15 70 28 104
27 66 26 88 -5 88 -36 0 -53 56 -26 83 12 13 59 15 272 16 322 2 344 4 383 45
51 53 124 133 152 168 15 18 87 100 160 182 73 82 134 157 136 167 2 13 -5 20
-22 25 -14 3 -263 2 -553 -3 -291 -6 -532 -6 -537 -2 -12 11 11 135 30 166 22
35 17 53 -16 59 -34 7 -45 31 -36 78 8 41 27 57 91 81 28 10 82 33 122 52 40
18 78 33 85 33 7 0 36 12 63 25 28 14 55 25 60 25 6 0 22 8 35 18 26 17 32 20
160 67 41 16 86 36 99 46 13 11 29 19 36 19 6 0 40 12 76 28 l64 27 407 3
c327 3 409 6 418 17 11 14 16 1475 5 1885 -2 107 -7 314 -11 460 -3 145 -8
268 -11 273 -3 5 -22 7 -42 3 -48 -7 -811 -21 -1171 -21 -269 0 -285 1 -288
19 -2 10 0 22 5 27 5 5 184 14 398 20 214 5 396 14 405 19 14 8 16 17 9 57 -4
26 -8 151 -8 276 -1 143 -5 236 -12 248 -10 20 -17 20 -222 15 -722 -19 -816
-19 -822 -3 -6 14 9 72 42 164 16 45 12 63 -16 63 -42 0 -59 66 -18 74 12 3
147 7 301 9 l278 3 62 65 c124 130 247 267 304 340 32 41 78 93 101 116 24 24
40 47 36 54 -6 8 -152 9 -556 4 -613 -9 -564 -14 -535 62 20 54 46 140 46 152
0 6 -10 11 -23 11 -42 0 -63 44 -33 69 8 7 88 13 217 16 112 3 208 10 213 15
6 6 23 10 38 10 69 0 176 84 217 170 23 48 26 67 25 147 -1 67 -6 99 -18 117
-9 14 -16 32 -16 40 0 25 -83 101 -142 130 -55 27 -145 45 -224 46 -22 0 -43
-2 -46 -5z m245 -73 c55 -27 77 -45 112 -93 37 -51 44 -68 51 -126 8 -77 -6
-146 -37 -179 -10 -11 -19 -25 -19 -31 0 -21 -83 -83 -139 -104 -53 -20 -80
-22 -461 -28 -223 -3 -440 -3 -482 1 -122 12 -165 39 -245 155 -55 80 -55 189
-1 265 54 76 101 118 158 140 68 28 173 33 655 33 l340 0 68 -33z m494 -959
c2 -6 -26 -43 -63 -82 -37 -39 -75 -81 -83 -94 -9 -13 -56 -68 -106 -121 -49
-54 -94 -106 -100 -116 -5 -10 -23 -29 -40 -42 -29 -23 -35 -23 -325 -29 -162
-4 -493 -10 -735 -13 -242 -3 -488 -9 -547 -12 -97 -6 -108 -5 -114 11 -5 13
5 29 39 61 26 24 47 48 47 53 0 6 13 17 30 26 16 8 39 33 50 55 11 22 34 50
51 62 17 13 46 46 64 73 19 28 60 76 93 108 l58 58 610 6 c335 3 611 7 613 10
3 2 106 2 230 1 160 -2 225 -6 228 -15z m9 -884 c3 -6 8 -70 10 -143 2 -72 6
-181 9 -242 4 -82 2 -114 -8 -122 -7 -6 -132 -13 -317 -17 -168 -3 -381 -8
-475 -10 -93 -2 -416 -7 -717 -10 l-547 -7 -5 23 c-3 13 -7 126 -11 250 -4
176 -2 229 7 237 18 14 187 20 953 33 369 6 671 12 673 14 2 1 97 3 212 4 146
1 211 -2 216 -10z m-871 -588 c18 -7 15 -10 -20 -26 -22 -9 -56 -18 -75 -19
-29 -1 -35 3 -35 19 0 16 9 21 40 26 57 9 67 9 90 0z m1586 -145 c1 -39 2
-120 3 -181 2 -60 6 -593 10 -1182 7 -825 6 -1076 -3 -1087 -10 -12 -56 -15
-247 -15 -129 -1 -234 2 -234 6 0 4 10 17 22 30 29 31 102 32 133 3 31 -29 42
-11 46 80 l4 75 -47 3 -46 3 -4 46 c-2 25 2 58 9 74 11 26 17 28 70 31 44 2
59 7 61 19 3 15 -13 16 -165 12 -92 -3 -172 -9 -177 -13 -19 -18 8 -30 65 -30
34 0 59 -4 59 -10 0 -14 -80 -88 -102 -96 -20 -6 -24 -29 -7 -39 5 -4 36 10
67 32 74 50 72 49 72 16 0 -39 -17 -53 -63 -53 l-39 0 4 -95 3 -95 -156 0
-155 0 -47 30 c-26 17 -53 30 -60 30 -14 0 -68 19 -232 84 -142 56 -211 82
-244 91 -14 4 -45 18 -69 31 -25 13 -52 24 -61 24 -20 0 -133 59 -143 74 -8
12 -3 37 23 118 26 78 25 98 -5 98 -31 0 -41 26 -21 56 l15 24 493 2 c270 1
520 2 555 2 37 1 66 6 70 13 13 21 3 685 -11 701 -10 13 -94 14 -572 11 l-560
-4 2 37 c1 20 11 62 23 94 26 76 26 83 -9 90 -34 7 -45 27 -31 55 10 17 23 19
139 19 70 0 211 3 312 7 l184 6 55 56 c30 31 84 90 120 132 65 76 187 211 274
304 29 31 46 57 44 70 -3 20 -10 20 -298 17 -162 -1 -412 -5 -555 -7 -143 -3
-265 -1 -272 3 -12 7 -9 26 24 149 20 75 31 81 106 56 67 -22 97 -17 97 17 0
12 9 20 28 24 15 3 198 8 407 12 209 4 515 9 680 13 165 3 312 4 328 2 26 -3
27 -5 28 -75z m-663 -249 c-3 -17 -76 -103 -153 -184 -27 -28 -72 -77 -100
-107 -27 -31 -80 -87 -116 -124 l-66 -69 -399 -6 c-1009 -17 -1284 -20 -1284
-13 0 18 27 55 74 102 53 54 102 110 155 178 17 21 41 49 53 61 13 13 39 42
58 66 80 97 57 89 257 90 98 1 342 5 543 8 852 14 982 14 978 -2z m55 -876
l25 -10 1 -305 c1 -242 -1 -307 -11 -310 -7 -3 -159 -7 -338 -10 -179 -3 -514
-10 -745 -15 -490 -11 -1122 -17 -1128 -11 -3 3 -7 143 -11 311 -4 236 -3 309
7 317 12 9 334 15 1502 28 319 4 582 8 584 10 9 8 90 4 114 -5z m-1038 -1052
c33 -11 66 -26 73 -31 12 -11 108 -47 182 -69 19 -6 51 -19 70 -29 32 -17 205
-80 258 -95 13 -4 50 -20 82 -36 33 -16 65 -29 73 -29 7 0 22 -6 33 -14 17
-13 17 -16 4 -29 -8 -8 -46 -27 -85 -42 -38 -15 -86 -35 -105 -46 -19 -10 -80
-35 -135 -55 -55 -21 -109 -46 -121 -56 -11 -10 -27 -18 -36 -18 -15 0 -151
-55 -207 -84 -118 -61 -163 -60 -291 8 -14 7 -43 19 -65 26 -22 6 -59 20 -82
31 -24 10 -46 19 -50 19 -4 0 -30 11 -58 24 -27 14 -102 43 -165 66 -194 70
-244 90 -259 104 -11 12 -10 15 10 21 13 4 36 16 51 26 14 11 32 19 40 19 8 0
50 18 93 40 43 22 86 40 94 40 9 0 25 7 36 16 11 8 37 19 60 25 22 6 52 20 66
30 15 10 33 19 41 19 7 0 27 8 43 18 17 10 53 24 80 32 28 7 56 18 64 24 11 9
125 62 141 65 3 1 33 -8 65 -20z m1311 -127 c18 -12 24 -42 14 -63 -9 -15 -22
-19 -71 -19 l-60 0 3 37 c3 33 7 39 33 44 43 9 68 10 81 1z m-289 -998 c2 -6
-32 -47 -74 -93 -114 -120 -162 -174 -181 -203 -9 -14 -52 -62 -94 -107 l-77
-81 -233 0 c-260 0 -815 -7 -1190 -15 -136 -3 -249 -2 -251 2 -3 5 31 51 75
103 160 191 189 226 217 255 15 17 42 49 60 73 18 23 41 47 51 52 10 5 260 12
581 16 310 3 566 8 568 10 2 2 125 2 274 1 181 -1 272 -6 274 -13z m-507 -923
c49 -27 99 -73 137 -124 38 -51 38 -52 38 -148 0 -96 0 -97 -40 -155 -44 -65
-76 -95 -114 -107 -104 -32 -137 -35 -553 -41 -470 -6 -480 -5 -577 55 -47 30
-98 94 -121 153 -12 34 -13 120 -1 162 21 73 116 168 207 205 67 28 973 28
1024 0z"/>
<path d="M1656 7528 c-8 -13 -20 -35 -27 -50 -7 -16 -17 -28 -23 -29 -6 -1
-22 -2 -36 -2 -22 -2 -26 -8 -31 -53 -4 -28 -12 -61 -19 -73 -11 -21 -13 -22
-28 -8 -14 14 -13 21 5 74 12 32 24 80 28 106 6 43 4 48 -11 45 -11 -2 -21
-16 -25 -37 -4 -19 -14 -38 -23 -43 -11 -6 -15 -16 -11 -29 4 -11 1 -43 -6
-71 -12 -51 -11 -52 16 -74 l28 -22 -26 -32 c-52 -61 -26 -83 29 -25 30 32 37
35 69 29 19 -3 35 -10 35 -14 0 -5 4 -20 10 -34 l9 -26 41 21 c38 20 42 20 65
5 50 -33 56 -24 53 72 l-3 87 -80 0 -80 0 -3 -35 c-5 -56 -9 -63 -33 -49 -19
9 -21 18 -17 60 3 27 8 52 10 55 3 3 55 7 114 9 60 3 110 5 111 5 1 0 -3 14
-9 30 -16 49 -63 64 -63 22 0 -12 -10 -18 -37 -20 -46 -4 -48 6 -13 66 24 42
25 62 5 62 -5 0 -16 -10 -24 -22z m79 -253 l0 -40 -40 0 c-38 0 -40 2 -43 34
-4 39 10 52 53 49 28 -3 30 -6 30 -43z"/>
<path d="M1195 7512 c-77 -1 -144 -7 -149 -12 -7 -7 1 -10 21 -10 40 0 55 -20
51 -67 -3 -36 -5 -38 -40 -41 -45 -4 -51 -22 -8 -22 63 0 58 -82 -11 -149 -21
-22 -35 -42 -29 -46 16 -10 46 12 89 66 30 37 41 61 41 85 0 24 6 37 22 45
l22 12 -22 8 c-20 8 -23 15 -20 56 3 45 5 48 34 51 19 2 36 -3 44 -13 18 -22
15 -77 -6 -92 -17 -12 -17 -14 0 -26 15 -11 18 -26 17 -76 -1 -35 -3 -67 -6
-71 -8 -13 6 -40 21 -40 10 0 14 23 16 93 l3 92 45 5 c55 6 51 25 -5 25 l-40
0 0 50 0 50 38 3 c23 2 37 8 34 15 -4 14 5 13 -162 9z"/>
<path d="M1002 6578 c-7 -7 -12 -17 -12 -24 0 -6 -16 -32 -35 -58 -28 -36 -42
-46 -65 -46 -16 0 -32 -4 -35 -10 -12 -20 -22 -10 -17 18 7 39 20 52 56 53 29
1 30 1 6 8 -18 5 -26 15 -28 34 -4 36 -28 35 -47 -2 -8 -16 -20 -31 -27 -34
-10 -3 -10 -9 0 -27 10 -16 11 -25 3 -33 -6 -6 -11 -21 -11 -34 0 -18 6 -23
24 -23 28 0 51 -24 42 -45 -3 -9 -19 -23 -36 -33 -36 -21 -34 -36 6 -37 25 0
29 -4 32 -33 2 -20 8 -32 15 -29 7 2 11 18 10 34 -3 34 18 59 42 49 10 -4 15
-19 15 -51 0 -43 1 -45 29 -45 50 0 61 9 61 50 0 36 2 39 27 37 23 -2 28 3 34
28 5 25 7 21 8 -21 1 -40 -3 -53 -16 -58 -24 -9 -1 -29 28 -24 23 3 24 6 26
104 0 56 6 112 13 124 6 12 10 23 8 24 -2 1 -24 14 -49 29 -31 18 -51 37 -57
57 -11 31 -30 38 -50 18z m48 -68 c0 -24 -26 -38 -42 -22 -8 8 -8 15 2 27 18
21 40 19 40 -5z m-52 -62 c-7 -19 -38 -22 -38 -4 0 10 9 16 21 16 12 0 19 -5
17 -12z m102 2 c25 -15 -10 -43 -43 -34 -30 7 -36 30 -9 37 28 8 36 7 52 -3z
m-160 -74 c0 -8 -7 -17 -16 -20 -19 -7 -47 12 -38 25 9 15 54 10 54 -5z m105
-25 c3 -5 1 -12 -5 -16 -5 -3 -10 1 -10 9 0 18 6 21 15 7z m-45 -76 c0 -18 -5
-25 -20 -25 -20 0 -28 28 -13 43 15 16 33 6 33 -18z"/>
<path d="M1290 6567 c0 -7 14 -18 30 -24 23 -9 30 -18 30 -37 0 -50 -25 -108
-72 -166 -53 -67 -72 -99 -63 -108 9 -10 135 127 135 147 0 21 34 54 44 44 4
-5 13 -21 20 -38 21 -49 106 -136 129 -133 32 5 31 26 -2 46 -46 28 -95 98
-126 180 -15 39 -36 79 -48 87 -26 18 -77 20 -77 2z"/>
<path d="M1645 6479 c-4 -5 1 -19 10 -29 24 -26 13 -61 -25 -83 -51 -31 -32
-59 22 -31 22 11 33 13 36 5 5 -16 42 -13 48 4 4 8 1 22 -6 30 -18 22 -8 69
18 80 12 5 22 15 22 22 0 16 -32 17 -48 1 -9 -9 -18 -9 -37 0 -32 15 -32 15
-40 1z"/>
<path d="M1921 6476 c-4 -6 -11 -32 -14 -58 -4 -25 -8 -52 -9 -59 -2 -7 5 -15
15 -17 13 -3 23 8 37 41 11 25 27 48 36 51 14 5 15 -1 9 -43 -7 -54 2 -68 35
-51 15 8 20 20 19 43 -1 18 1 41 4 52 12 36 -8 50 -68 51 -31 0 -59 -4 -64
-10z"/>
<path d="M1798 6359 c-14 -8 -14 -14 -5 -42 15 -43 14 -42 32 -27 18 15 20 66
2 73 -7 3 -20 1 -29 -4z"/>
<path d="M2053 5630 c-33 -13 -43 -42 -43 -120 0 -64 3 -73 27 -96 61 -57 128
-7 127 94 -1 103 -43 149 -111 122z m57 -49 c5 -11 10 -47 10 -80 0 -51 -3
-61 -20 -66 -11 -3 -24 -3 -30 0 -11 7 -14 123 -4 149 8 22 31 20 44 -3z"/>
<path d="M1226 5601 c-58 -60 -40 -201 28 -225 22 -8 30 -5 55 18 53 50 49
169 -6 213 -36 29 -44 29 -77 -6z m58 -37 c8 -20 8 -92 0 -121 -7 -26 -29 -30
-38 -7 -8 20 -8 108 0 128 3 9 12 16 19 16 7 0 16 -7 19 -16z"/>
<path d="M710 5574 c0 -25 -9 -66 -21 -91 -29 -64 -36 -113 -16 -113 9 0 22 9
30 20 l14 20 18 -20 c22 -24 38 -25 55 -5 10 13 10 19 -4 33 -22 25 -20 55 4
77 21 19 27 45 10 45 -6 0 -18 -9 -27 -20 -10 -11 -23 -20 -31 -20 -15 0 -10
25 15 73 17 33 10 47 -23 47 -22 0 -24 -4 -24 -46z"/>
<path d="M1544 5525 c-6 -16 -2 -47 11 -77 6 -14 2 -18 -18 -18 -30 0 -42 -24
-21 -45 21 -21 60 -19 84 5 23 23 24 36 5 70 -19 32 -19 54 -1 47 16 -6 40 16
29 26 -13 14 -84 7 -89 -8z"/>
<path d="M1759 5528 c-10 -4 -19 -12 -19 -18 0 -15 162 -9 167 7 5 13 -117 22
-148 11z"/>
<path d="M924 5509 c-13 -21 14 -30 87 -27 61 2 74 6 77 21 3 15 -6 17 -77 17
-47 0 -83 -5 -87 -11z"/>
<path d="M1735 5450 c-3 -5 0 -13 8 -16 24 -9 162 0 162 11 0 14 -161 19 -170
5z"/>
<path d="M933 5438 c4 -13 108 -21 135 -11 33 13 5 23 -64 23 -56 0 -75 -3
-71 -12z"/>
<path d="M1350 5406 c0 -8 5 -18 11 -21 6 -4 7 -19 4 -36 -9 -40 19 -39 40 1
12 23 13 35 5 50 -13 23 -60 28 -60 6z"/>
<path d="M2856 2881 c-3 -4 6 -13 19 -19 14 -7 25 -16 25 -21 0 -5 16 -15 36
-21 71 -24 68 27 -3 57 -37 15 -69 17 -77 4z"/>
<path d="M960 4699 c-7 -13 -24 -33 -38 -45 l-26 -21 22 -12 23 -12 -22 -30
c-25 -36 -19 -59 16 -59 14 0 28 -7 32 -15 6 -18 -23 -55 -44 -55 -21 0 -10
-24 13 -29 31 -5 44 -21 44 -53 0 -49 24 -27 30 28 4 35 10 50 22 52 14 3 17
-6 20 -50 l3 -53 42 -2 c46 -1 59 8 65 47 1 14 8 25 15 25 6 0 15 3 19 8 13
13 24 7 24 -13 0 -10 -8 -24 -17 -29 -16 -9 -16 -12 -3 -21 26 -17 49 -11 56
15 3 13 4 65 3 115 -2 49 -1 90 4 90 4 0 7 8 7 18 0 11 -16 23 -43 35 -31 13
-48 27 -60 53 -22 45 -44 42 -64 -8 -8 -21 -31 -55 -50 -75 -32 -35 -35 -37
-47 -20 -7 9 -19 17 -25 17 -7 0 -11 8 -9 18 2 11 13 17 32 17 16 0 31 6 33
13 3 7 -5 12 -21 12 -18 0 -26 5 -26 18 0 9 -4 23 -9 31 -7 11 -11 9 -21 -10z
m204 -70 c-7 -11 -44 -12 -44 -1 0 4 5 13 12 20 13 13 42 -4 32 -19z m57 -43
c8 -9 -3 -116 -12 -110 -5 3 -9 14 -9 26 0 32 -58 80 -92 76 -15 -3 -28 -1
-28 4 0 8 133 12 141 4z m-251 -10 c0 -3 -4 -8 -10 -11 -5 -3 -10 -1 -10 4 0
6 5 11 10 11 6 0 10 -2 10 -4z m76 -67 c3 -6 2 -15 -2 -19 -12 -12 -38 5 -30
19 9 14 23 14 32 0z m64 -104 c0 -8 -4 -15 -10 -15 -5 0 -10 7 -10 15 0 8 5
15 10 15 6 0 10 -7 10 -15z"/>
<path d="M1418 4704 c-4 -3 10 -20 29 -37 34 -31 34 -33 20 -62 -8 -17 -25
-52 -37 -78 -13 -26 -41 -67 -62 -91 -38 -44 -47 -66 -28 -66 20 0 89 72 109
115 11 24 30 49 41 55 17 9 24 3 59 -53 48 -76 92 -111 128 -103 29 8 26 26
-8 43 -44 21 -107 104 -139 182 -17 42 -39 82 -48 89 -16 12 -54 16 -64 6z"/>
<path d="M1761 4582 c-34 -27 -54 -89 -39 -125 10 -25 15 -28 42 -22 17 3 45
6 63 6 38 -1 46 9 50 64 2 22 4 51 6 65 2 23 -1 25 -48 28 -36 1 -56 -3 -74
-16z m79 -43 c0 -19 -35 -49 -58 -49 -18 0 -8 47 15 72 19 21 43 8 43 -23z"/>
<path d="M1897 3843 c-4 -3 -7 -21 -7 -39 0 -35 -13 -44 -62 -44 -39 0 -32
-24 8 -28 38 -5 52 -17 56 -50 5 -40 32 -34 38 8 4 29 10 37 38 45 35 10 43
25 13 25 -34 0 -51 12 -51 35 0 43 -16 66 -33 48z"/>
<path d="M2163 3814 c-18 -9 -33 -22 -33 -29 0 -7 -9 -24 -20 -38 -43 -55 -10
-114 53 -96 18 5 46 6 63 3 37 -7 61 15 46 43 -7 13 -6 26 4 43 7 14 13 37 14
51 0 22 -6 28 -31 33 -46 9 -60 7 -96 -10z m65 -40 c2 -25 -3 -37 -28 -58 -36
-29 -48 -32 -56 -12 -5 13 17 66 39 94 18 22 42 9 45 -24z"/>
<path d="M1238 3809 c-10 -5 -18 -21 -18 -34 0 -28 20 -75 32 -75 4 0 8 -9 8
-20 0 -27 -36 -27 -43 1 -8 28 -31 19 -35 -14 -3 -23 1 -27 32 -33 69 -12 111
47 71 100 -21 27 -20 53 0 36 18 -15 45 -6 45 14 0 30 -58 46 -92 25z"/>
<path d="M1564 3808 c-4 -6 4 -19 19 -30 16 -12 27 -29 27 -43 0 -28 -45 -69
-96 -85 -33 -11 -36 -15 -30 -41 3 -16 1 -41 -5 -57 -21 -52 -48 -177 -40
-185 13 -13 39 3 45 29 7 28 36 33 36 5 0 -30 26 -46 55 -33 32 15 32 36 0 50
-18 8 -25 19 -25 40 0 17 10 38 25 52 34 32 32 40 -10 40 -29 0 -35 4 -35 21
0 32 18 57 51 75 26 13 36 13 61 3 25 -10 32 -9 45 4 14 14 14 18 -6 43 -28
36 -27 44 11 76 26 21 30 29 21 39 -10 10 -18 10 -38 1 -18 -8 -32 -9 -45 -2
-25 13 -57 13 -66 -2z"/>
<path d="M666 3788 c-22 -30 -20 -41 9 -76 40 -47 27 -77 -20 -46 -23 15 -25
15 -31 0 -18 -46 39 -68 92 -36 40 25 43 48 13 97 l-21 34 28 -3 c25 -3 29 0
29 22 0 22 -5 25 -42 28 -33 2 -44 -1 -57 -20z"/>
<path d="M890 3780 c-31 -19 6 -31 91 -28 70 3 84 6 87 21 3 15 -6 17 -80 17
-46 0 -90 -5 -98 -10z"/>
<path d="M1422 3743 c2 -10 10 -18 18 -18 22 0 18 29 -3 33 -14 3 -18 -1 -15
-15z"/>
<path d="M900 3712 c-5 -2 -10 -10 -10 -18 0 -12 13 -14 78 -9 92 8 105 11 97
26 -6 9 -136 10 -165 1z"/>
<path d="M896 3628 c-2 -7 -7 -39 -10 -71 -4 -32 -13 -71 -21 -87 -21 -41 -24
-115 -5 -115 8 0 22 15 30 32 19 41 28 41 42 2 8 -25 15 -30 37 -27 27 3 44
38 18 38 -35 0 -36 71 -1 99 32 25 22 45 -17 37 l-30 -6 3 53 c3 47 1 52 -20
55 -12 2 -24 -3 -26 -10z"/>
<path d="M2010 3625 c-9 -11 -9 -22 0 -51 9 -25 11 -65 6 -121 l-6 -83 41 0
c35 0 40 2 33 18 -4 9 -9 70 -12 135 -4 114 -5 117 -27 117 -12 0 -28 -7 -35
-15z"/>
<path d="M1799 3563 c0 -5 -2 -21 -2 -38 -2 -27 -6 -30 -42 -35 -52 -6 -55
-33 -5 -40 30 -4 35 -9 38 -35 8 -65 52 -65 52 0 0 34 13 45 52 45 32 0 15 25
-20 28 -29 3 -33 7 -38 43 -4 23 -12 39 -20 39 -8 0 -14 -3 -15 -7z"/>
<path d="M1193 3513 c-52 -4 -69 -17 -35 -27 23 -7 150 -2 158 6 3 4 3 11 -1
17 -6 11 -16 11 -122 4z"/>
<path d="M1140 3431 c0 -6 4 -12 9 -15 13 -9 171 6 171 15 0 5 -40 9 -90 9
-50 0 -90 -4 -90 -9z"/>
<path d="M1234 2672 c-5 -4 -10 -29 -11 -57 -1 -27 -6 -59 -11 -70 -15 -34
-32 -91 -32 -108 0 -22 36 -22 44 -1 6 15 8 15 25 -1 13 -11 27 -14 40 -10 24
7 28 40 6 49 -24 9 -17 48 12 71 31 25 23 49 -13 42 -22 -4 -24 -1 -24 38 0
42 -15 61 -36 47z"/>
<path d="M1441 2591 c-20 -13 -6 -28 45 -50 25 -12 43 -24 40 -29 -3 -5 -23
-17 -45 -27 -42 -19 -59 -42 -37 -51 15 -6 57 12 124 52 35 21 41 29 31 40 -6
8 -16 14 -22 14 -6 0 -27 11 -46 24 -45 30 -72 38 -90 27z"/>
<path d="M1715 2553 c-4 -21 -11 -53 -17 -71 -7 -23 -7 -37 0 -44 13 -13 32
-2 32 18 0 20 50 85 61 79 4 -3 5 -28 2 -55 -6 -49 -5 -50 21 -50 14 0 27 6
27 13 1 6 3 26 5 42 2 17 5 46 6 65 l3 35 -67 3 -67 3 -6 -38z"/>
<path d="M1233 1663 c-29 -46 -93 -104 -111 -101 -9 2 -18 11 -20 21 -3 13 3
17 27 17 17 0 31 5 31 10 0 6 -11 10 -25 10 -14 0 -28 7 -30 15 -17 53 -15 52
-30 30 -18 -25 -25 -32 -50 -49 -16 -12 -17 -16 -7 -29 9 -10 11 -28 7 -51 -6
-32 -5 -36 19 -42 54 -13 51 -62 -5 -79 -28 -9 -19 -29 17 -35 25 -5 29 -10
29 -40 0 -28 4 -35 20 -35 17 0 20 7 21 40 1 60 3 65 18 65 11 0 16 -14 18
-47 l3 -48 47 -3 c43 -3 48 -1 54 22 7 28 64 51 64 26 0 -5 -9 -10 -21 -10
-12 0 -19 -5 -17 -12 6 -18 52 -33 73 -24 16 6 17 17 12 109 -5 81 -3 106 8
121 8 11 15 23 15 26 0 4 -23 17 -51 30 -34 15 -58 34 -71 56 -11 19 -22 34
-24 34 -2 0 -11 -12 -21 -27z m35 -60 c-4 -22 -22 -20 -26 1 -2 10 3 16 13 16
10 0 15 -7 13 -17z m67 -74 c0 -8 -6 -14 -12 -13 -7 1 -24 2 -38 3 -29 1 -34
27 -7 33 25 6 57 -7 57 -23z m-110 11 c-3 -5 -13 -10 -21 -10 -8 0 -12 5 -9
10 3 6 13 10 21 10 8 0 12 -4 9 -10z m-70 -70 c0 -7 -6 -15 -12 -17 -8 -3 -13
4 -13 17 0 13 5 20 13 18 6 -3 12 -11 12 -18z m73 -108 c2 -7 -3 -12 -12 -12
-9 0 -16 7 -16 16 0 17 22 14 28 -4z"/>
<path d="M1605 1668 c-2 -7 -6 -40 -7 -72 -2 -43 -8 -62 -20 -70 -30 -19 -53
4 -56 58 -3 38 -6 46 -23 46 -18 0 -20 -6 -17 -62 l3 -63 58 -3 58 -3 -3 -67
c-3 -63 -4 -67 -31 -77 -24 -8 -31 -6 -43 10 -8 10 -14 36 -14 57 0 31 -4 38
-19 38 -16 0 -21 -9 -26 -44 -13 -83 -16 -81 125 -83 69 -1 140 -5 158 -8 l32
-7 0 71 c0 64 -2 71 -20 71 -15 0 -20 -7 -20 -24 0 -49 -17 -76 -49 -76 -41 0
-53 20 -49 82 l3 53 58 3 57 3 0 54 c0 62 -7 85 -25 85 -17 0 -25 -23 -25 -70
0 -42 -19 -57 -50 -40 -15 8 -20 24 -22 77 -2 42 -8 68 -15 71 -7 2 -15 -2
-18 -10z"/>
<path d="M1857 1553 c-12 -11 -7 -47 8 -67 22 -28 19 -49 -5 -43 -27 7 -47
-18 -30 -38 18 -21 64 -19 85 6 17 17 17 24 7 52 -19 48 -19 51 6 55 14 2 22
10 22 23 0 16 -7 19 -43 19 -24 0 -47 -3 -50 -7z"/>
<path d="M1345 718 c-2 -7 -5 -22 -7 -33 -2 -14 -14 -21 -42 -26 -27 -4 -47
-16 -65 -38 -50 -61 -70 -29 -24 40 20 31 23 43 14 52 -17 17 -41 -2 -60 -50
-9 -22 -25 -51 -36 -63 -19 -21 -19 -22 -1 -36 10 -7 23 -11 28 -8 20 13 19
-29 -2 -48 -21 -20 -22 -22 -5 -34 18 -13 64 -9 97 7 28 15 40 10 36 -12 -2
-17 -15 -25 -53 -35 -84 -21 -105 -32 -99 -49 8 -20 30 -18 89 10 27 13 53 21
57 19 5 -3 8 -19 8 -35 0 -41 26 -48 56 -15 29 30 41 32 72 10 37 -26 47 -13
47 62 l-1 69 -114 3 c-63 1 -118 6 -123 11 -4 4 7 28 25 52 26 34 41 45 67 47
27 3 32 0 29 -14 -2 -10 -14 -21 -27 -24 -14 -3 -26 -11 -29 -18 -3 -10 17
-12 84 -10 56 2 89 7 91 15 3 7 -9 13 -29 15 -25 2 -33 8 -33 23 0 16 8 21 35
23 19 2 39 8 45 13 16 15 -14 28 -52 22 -31 -5 -33 -4 -33 25 0 18 -6 32 -16
36 -22 8 -24 8 -29 -6z m59 -247 c26 -29 17 -65 -17 -69 -54 -6 -77 43 -35 72
28 20 31 20 52 -3z"/>
<path d="M1691 713 c-6 -12 -31 -22 -78 -29 l-68 -12 68 -1 c71 -1 92 -15 67
-46 -10 -11 -9 -18 4 -30 9 -9 16 -19 16 -23 0 -18 -86 -134 -120 -161 -22
-18 -38 -36 -35 -41 9 -15 60 9 95 45 19 19 38 35 42 35 4 0 8 -20 8 -45 0
-32 5 -47 15 -52 23 -8 28 1 33 62 2 30 8 55 12 55 4 0 19 -15 33 -34 29 -37
78 -62 103 -52 16 6 16 8 0 25 -9 10 -32 27 -51 37 -19 10 -38 27 -41 37 -3
10 -17 28 -31 41 -21 20 -25 33 -27 82 l-1 59 78 3 c61 2 77 6 77 18 0 13 -8
14 -42 8 -24 -4 -47 -7 -53 -7 -42 -1 -57 5 -62 23 -7 25 -29 26 -42 3z"/>
<path d="M1583 618 c-11 -14 -11 -124 0 -134 3 -3 15 -3 26 1 18 5 21 14 19
68 -2 70 -20 96 -45 65z"/>
<path d="M1791 621 c-12 -8 -12 -12 3 -26 11 -11 14 -24 10 -39 -12 -38 -9
-51 12 -54 33 -5 44 18 37 76 -5 44 -9 52 -27 52 -12 0 -27 -4 -35 -9z"/>
<path d="M1777 2206 c-3 -6 -3 -44 -2 -83 3 -79 -2 -88 -48 -85 -20 2 -27 -2
-25 -10 3 -7 13 -13 24 -14 39 -2 44 -4 44 -21 0 -10 -18 -45 -40 -78 -48 -71
-39 -95 15 -41 40 40 45 40 120 5 56 -27 166 -36 184 -16 22 28 3 40 -53 33
-73 -8 -98 0 -94 33 3 24 6 26 57 26 34 0 56 5 58 12 7 20 -26 27 -64 14 -40
-15 -64 -2 -60 32 2 19 -3 22 -38 22 -29 0 -40 4 -40 15 0 10 14 17 45 21 51
7 70 3 70 -16 0 -7 7 -16 16 -19 25 -10 92 -7 99 4 4 6 -10 10 -34 10 l-41 0
0 84 0 83 -95 0 c-57 -1 -96 -5 -98 -11z m108 -16 c32 0 51 -16 37 -32 -7 -9
-8 -19 -2 -28 17 -27 11 -31 -42 -28 -46 3 -53 6 -53 24 -1 12 -6 28 -13 36
-16 19 5 41 33 34 11 -3 29 -6 40 -6z m-27 -222 c3 -52 -2 -56 -36 -32 -35 24
-26 87 12 82 17 -2 22 -11 24 -50z"/>
</g>
</svg>
